<!DOCTYPE svg PUBLIC "-//W3C//DTD SVG 1.1//EN" "http://www.w3.org/Graphics/SVG/1.1/DTD/svg11.dtd"><svg xmlns="http://www.w3.org/2000/svg"><symbol id="afisha-logo" viewBox="0 0 240 56"><path d="M36.0126949 19.9854092C36.0126949 16.2553785 32.98934 14.6753169 29.5946959 14.6753169L2.00731906 14.6753169 2.00437232 19.9281169 22.9704251 19.9281169C24.5881852 19.9281169 25.9083245 20.5492862 25.9083245 22.4731015L25.9171648 23.4500862 5.94121653 23.4500862C2.45522349 23.4500862.424919861 26.0342708.424919861 28.8777785L.424919861 35.1708862C.424919861 37.7158708 2.32556695 40.76744 5.94121653 40.76744L35.9950144 40.76744 36.0126949 19.9854092ZM10.4968761 31.4046708C10.4968761 30.0115631 11.2482947 28.8174708 13.4170951 28.8174708L25.9171648 28.8174708 25.9171648 35.1105785 13.4760299 35.1105785C11.0272892 35.1105785 10.4968761 33.5817785 10.4968761 32.7796862L10.4968761 31.4046708Z" id="Fill-1"/><path d="M239.934742 19.9854092C239.934742 16.2553785 236.90844 14.6753169 233.516743 14.6753169L205.926419 14.6753169 205.926419 19.9281169 226.892472 19.9281169C228.510232 19.9281169 229.827425 20.5492862 229.827425 22.4731015L229.839212 23.4500862 209.863263 23.4500862C206.374324 23.4500862 204.34402 26.0342708 204.34402 28.8777785L204.34402 35.1708862C204.34402 37.7158708 206.247614 40.76744 209.863263 40.76744L239.917061 40.76744 239.934742 19.9854092ZM214.42187 31.4046708C214.42187 30.0115631 215.170341 28.8174708 217.339142 28.8174708L229.839212 28.8174708 229.839212 35.1105785 217.398077 35.1105785C214.946389 35.1105785 214.42187 33.5817785 214.42187 32.7796862L214.42187 31.4046708Z" id="Fill-3"/><path d="M127.922684 27.5651815 127.922684 40.7725662 138.421917 40.76352 138.421917 14.7437662 127.922684 14.7437662 112.853057 31.7414892C112.853057 31.7414892 112.900205 30.3845662 112.900205 28.6989662L112.900205 14.7437662 102.412759 14.7437662 102.412759 40.7725662 112.900205 40.7725662 127.996352 23.5848738C127.996352 23.5848738 127.922684 26.2052431 127.922684 27.5651815" id="Fill-5"/><polygon id="Fill-7" points="199.578258 14.7437662 189.114385 14.7437662 189.114385 35.1096738 176.873629 35.1096738 176.873629 14.7437662 166.380289 14.7437662 166.380289 35.1096738 154.145426 35.1096738 154.145426 14.7437662 143.607885 14.7437662 143.607885 40.7725662 199.578258 40.7725662"/><path d="M87.5231777 32.4651815C87.5231777 34.3950277 86.2030383 35.2574277 84.5793848 35.2574277L74.5162688 35.2574277 74.5162688 19.8759508 84.5793848 19.8759508C86.2030383 19.8759508 87.5231777 20.7353354 87.5231777 22.6651815L87.5231777 32.4651815ZM64.055343 35.2574277 53.9892802 35.2574277C52.3656267 35.2574277 51.048434 34.3950277 51.048434 32.4651815L51.048434 22.6651815C51.048434 20.7353354 52.3656267 19.8759508 53.9892802 19.8759508L64.055343 19.8759508 64.055343 35.2574277ZM91.2066023 14.61712 74.525109 14.61712 74.525109.281981538 64.0465027.281981538 64.0465027 14.61712 47.3650095 14.61712C43.9703654 14.61712 40.9440637 16.1971815 40.9440637 19.9302277L40.9440637 35.19712C40.9440637 38.9331815 43.9703654 40.8841354 47.3650095 40.8841354L64.0465027 40.8841354 64.0465027 55.2192738 74.525109 55.2192738 74.525109 40.8841354 91.2066023 40.8841354C94.5982997 40.8841354 97.627548 38.9331815 97.627548 35.19712L97.627548 19.9302277C97.627548 16.1971815 94.5982997 14.61712 91.2066023 14.61712L91.2066023 14.61712Z" id="Fill-9"/></symbol><symbol id="menu-events" x="0px" y="0px" viewBox="0 0 58 58"><path d="M46 34c-6.617 0-12 5.383-12 12s5.383 12 12 12 12-5.383 12-12S52.617 34 46 34zM46 56c-5.514 0-10-4.486-10-10s4.486-10 10-10 10 4.486 10 10S51.514 56 46 56z"/><path d="M52 45h-5v-5c0-.553-.447-1-1-1s-1 .447-1 1v6c0 .553.447 1 1 1h6c.553 0 1-.447 1-1S52.553 45 52 45z"/><path d="M27 21h-2-7-2H7v9 2 7 2 9h9 2 9v-9-2-7h7 2 9V21h-9-2H27zM36 23h7v7h-7V23zM18 23h7v7h-7V23zM9 23h7v7H9V23zM9 32h7v7H9V32zM16 48H9v-7h7V48zM25 48h-7v-7h7V48zM25 39h-7v-7h7V39zM34 30h-7v-7h7V30z"/><path d="M33 55H2V16h48v13c0 .553.447 1 1 1s1-.447 1-1V15 5c0-.553-.447-1-1-1h-5V1c0-.553-.447-1-1-1h-7c-.553 0-1 .447-1 1v3H15V1c0-.553-.447-1-1-1H7C6.447 0 6 .447 6 1v3H1C.447 4 0 4.447 0 5v10 41c0 .553.447 1 1 1h32c.553 0 1-.447 1-1S33.553 55 33 55zM39 2h5v3 3h-5V5 2zM8 2h5v3 3H8V5 2zM2 6h4v3c0 .553.447 1 1 1h7c.553 0 1-.447 1-1V6h22v3c0 .553.447 1 1 1h7c.553 0 1-.447 1-1V6h4v8H2V6z"/></symbol><symbol id="menu-events-fav"><path d="M58.963 44.119c-.116-.367-.434-.634-.814-.688l-7.777-1.089-3.472-6.78c-.342-.668-1.438-.668-1.779 0l-3.472 6.78-7.777 1.089c-.381.054-.698.32-.814.688s-.012.768.269 1.031l5.605 5.267-1.321 7.427c-.066.373.084.752.388.978.305.227.711.262 1.049.089l6.964-3.528 6.964 3.528c.143.073.298.108.452.108.211 0 .421-.066.597-.197.304-.226.454-.604.388-.978l-1.321-7.427 5.605-5.267C58.974 44.887 59.079 44.486 58.963 44.119zM51.325 49.33c-.246.231-.359.571-.3.903l1.064 5.987-5.628-2.852c-.143-.072-.297-.108-.452-.108s-.31.036-.452.108l-5.628 2.852 1.064-5.987c.06-.332-.054-.672-.3-.903l-4.479-4.207 6.225-.872c.322-.045.603-.244.751-.534l2.818-5.504 2.818 5.504c.148.29.429.489.751.534l6.225.872L51.325 49.33z"/><path d="M36.01 32h9V21h-9-2-7-2-7-2-9v9 2 7 2 9h9 2 9v-9h9V32zM36.01 23h7v7h-7V23zM27.01 23h7v7h-7V23zM18.01 23h7v7h-7V23zM25.01 39h-7v-7h7V39zM9.01 23h7v7h-7V23zM9.01 32h7v7h-7V32zM16.01 48h-7v-7h7V48zM25.01 48h-7v-7h7V48zM34.01 39h-7v-7h7V39z"/><path d="M26.01 55h-24V16h48v17c0 .553.447 1 1 1s1-.447 1-1V15 5c0-.553-.447-1-1-1h-5V1c0-.553-.447-1-1-1h-7c-.553 0-1 .447-1 1v3h-22V1c0-.553-.447-1-1-1h-7c-.553 0-1 .447-1 1v3h-5c-.553 0-1 .447-1 1v10 41c0 .553.447 1 1 1h25c.553 0 1-.447 1-1S26.562 55 26.01 55zM39.01 2h5v3 3h-5V5 2zM8.01 2h5v3 3h-5V5 2zM2.01 6h4v3c0 .553.447 1 1 1h7c.553 0 1-.447 1-1V6h22v3c0 .553.447 1 1 1h7c.553 0 1-.447 1-1V6h4v8h-48V6z"/></symbol><symbol id="menu-events-like"><path d="M55.955 41.109c-.399-4.089-3.452-7.052-7.271-7.052-2.396 0-4.407 1.449-5.684 3.213-1.276-1.764-3.288-3.213-5.684-3.213-3.819 0-6.871 2.963-7.271 7.052-.042.267-.145 1.22.226 2.709.546 2.197 1.801 4.192 3.631 5.77l8.329 7.127c.223.191.496.287.769.287.273 0 .546-.096.769-.286l8.331-7.129c1.828-1.575 3.083-3.57 3.629-5.768C56.099 42.329 55.997 41.377 55.955 41.109zM53.788 43.337c-.445 1.794-1.479 3.432-2.99 4.732l-7.797 6.672-7.795-6.671c-1.513-1.303-2.547-2.94-2.992-4.734-.302-1.213-.194-1.897-.194-1.897l.016-.105c.245-2.621 2.138-5.275 5.282-5.275 2.189 0 3.974 1.811 4.77 3.605l.914 2.061.914-2.061c.796-1.795 2.58-3.605 4.77-3.605 3.145 0 5.037 2.654 5.295 5.366C53.982 41.431 54.092 42.115 53.788 43.337z"/><path d="M37.001 32h9V21h-9-2-7-2-7-2-9v9 2 7 2 9h9 2 9v-9-2-7h7H37.001zM37.001 23h7v7h-7V23zM19.001 23h7v7h-7V23zM10.001 23h7v7h-7V23zM10.001 32h7v7h-7V32zM17.001 48h-7v-7h7V48zM26.001 48h-7v-7h7V48zM26.001 39h-7v-7h7V39zM28.001 30v-7h7v7H28.001z"/><path d="M27.001 55h-24V16h48v13c0 .553.447 1 1 1s1-.447 1-1V15 5c0-.553-.447-1-1-1h-5V1c0-.553-.447-1-1-1h-7c-.553 0-1 .447-1 1v3h-22V1c0-.553-.447-1-1-1h-7c-.553 0-1 .447-1 1v3h-5c-.553 0-1 .447-1 1v10 41c0 .553.447 1 1 1h25c.553 0 1-.447 1-1S27.554 55 27.001 55zM40.001 2h5v3 3h-5V5 2zM9.001 2h5v3 3h-5V5 2zM3.001 6h4v3c0 .553.447 1 1 1h7c.553 0 1-.447 1-1V6h22v3c0 .553.447 1 1 1h7c.553 0 1-.447 1-1V6h4v8h-48V6z"/></symbol><symbol id="menu-movies" x="0px" y="0px" viewBox="0 0 59 59"><path d="M58 57c-4.411 0-8-3.589-8-8 0-.009-.005-.017-.005-.026C54.949 43.769 58 36.736 58 29 58 13.01 44.99 0 29 0S0 13.01 0 29s13.01 29 29 29c7.34 0 14.048-2.747 19.162-7.26C48.989 55.426 53.081 59 58 59c.553 0 1-.447 1-1S58.553 57 58 57zM2 29C2 14.112 14.112 2 29 2s27 12.112 27 27S43.888 56 29 56 2 43.888 2 29z"/><path d="M29 4C15.215 4 4 15.215 4 29s11.215 25 25 25 25-11.215 25-25S42.785 4 29 4zM29 52C16.317 52 6 41.683 6 29S16.317 6 29 6s23 10.317 23 23S41.683 52 29 52z"/><path d="M41 22c-.332 0-.656.031-.976.076l-.023-.041-.75.192c-.01.003-.019.007-.029.01-.369.097-.727.22-1.07.374-.015.007-.029.015-.044.021-.336.153-.659.328-.964.531-.008.005-.017.01-.024.015-.282.189-.546.402-.797.629-.051.046-.102.091-.152.138-.232.222-.45.459-.65.711-.043.054-.082.11-.124.165-.199.266-.385.541-.545.834-.003.006-.007.012-.01.019-.161.297-.294.611-.412.932-.021.057-.043.114-.063.172-.106.315-.189.64-.25.973-.011.062-.019.125-.029.188C34.036 28.286 34 28.638 34 29s.036.714.089 1.062c.01.063.017.125.029.188.06.333.144.658.25.973.019.058.042.114.063.171.117.321.251.635.412.932.003.006.007.012.01.019.16.293.346.568.544.833.041.055.081.111.124.166.2.252.417.489.65.711.05.047.101.092.152.138.252.227.515.44.798.629.008.005.016.01.024.015.305.202.628.377.964.531.015.007.029.015.044.021.343.154.7.277 1.069.374.01.003.019.007.029.01l.75.192.023-.041C40.344 35.969 40.668 36 41 36c3.859 0 7-3.141 7-7S44.859 22 41 22zM40 29c0 1.579-.344 3.146-.999 4.577-.25-.11-.488-.241-.714-.388-.081-.052-.154-.112-.232-.169-.163-.12-.32-.248-.468-.386-.068-.063-.135-.127-.198-.193-.168-.177-.324-.365-.466-.564-.025-.036-.055-.067-.08-.104-.159-.237-.293-.491-.41-.754-.033-.075-.059-.154-.089-.231-.078-.203-.144-.412-.195-.627-.021-.086-.043-.172-.059-.26C36.037 29.608 36 29.308 36 29s.037-.608.091-.901c.016-.088.038-.174.059-.26.051-.215.117-.424.195-.627.03-.077.056-.156.089-.231.117-.263.251-.517.41-.754.024-.036.055-.068.08-.104.141-.2.297-.388.466-.564.064-.067.131-.13.198-.193.147-.139.304-.266.468-.386.077-.056.151-.116.232-.169.227-.147.464-.278.714-.388C39.656 25.854 40 27.421 40 29zM41 34c-.005 0-.009-.001-.014-.001C41.645 32.419 42 30.718 42 29s-.355-3.419-1.014-4.999C40.991 24.001 40.995 24 41 24c2.757 0 5 2.243 5 5S43.757 34 41 34z"/><path d="M22.479 33.344c.043-.054.082-.11.124-.165.198-.265.384-.54.544-.832.004-.007.008-.014.012-.022.161-.297.294-.61.411-.931.021-.057.043-.113.063-.171.106-.315.19-.64.25-.974.011-.062.019-.125.029-.187C23.964 29.715 24 29.362 24 29s-.036-.715-.089-1.062c-.01-.063-.017-.125-.029-.187-.06-.333-.144-.658-.25-.974-.019-.058-.042-.114-.063-.172-.117-.321-.25-.634-.411-.93-.004-.007-.008-.014-.012-.022-.16-.292-.346-.568-.544-.833-.041-.055-.081-.111-.123-.165-.2-.252-.417-.489-.65-.711-.05-.047-.101-.092-.152-.138-.252-.227-.515-.44-.798-.629-.008-.005-.016-.009-.024-.014-.305-.202-.628-.377-.964-.531-.015-.007-.03-.015-.045-.022-.343-.153-.701-.277-1.07-.374-.01-.003-.019-.007-.028-.01l-.75-.192-.023.041C17.656 22.031 17.332 22 17 22c-3.859 0-7 3.141-7 7s3.141 7 7 7c.332 0 .656-.031.976-.076l.023.041.75-.192c.01-.003.019-.007.029-.01.369-.097.727-.22 1.069-.374.015-.007.03-.015.045-.022.336-.153.659-.329.964-.531.008-.005.016-.009.023-.014.283-.189.546-.402.798-.629.051-.046.102-.091.152-.138C22.061 33.833 22.279 33.596 22.479 33.344zM21.909 29.901c-.016.088-.038.174-.059.26-.051.215-.117.424-.195.627-.03.077-.056.156-.089.231-.117.263-.251.517-.41.754-.024.036-.055.068-.08.104-.141.2-.297.388-.466.564-.064.067-.131.13-.198.193-.147.139-.304.266-.468.386-.077.056-.151.116-.232.169-.227.147-.464.278-.714.388C18.344 32.146 18 30.579 18 29s.344-3.146.999-4.577c.25.11.488.241.714.388.081.052.154.112.232.169.163.12.32.248.468.386.068.063.135.127.198.193.168.177.324.365.466.564.025.036.055.067.08.104.159.237.293.491.41.754.033.075.059.154.089.231.078.203.144.412.195.627.021.086.043.172.059.26C21.963 28.392 22 28.692 22 29S21.963 29.608 21.909 29.901zM12 29c0-2.757 2.243-5 5-5 .005 0 .009.001.014.001C16.355 25.581 16 27.282 16 29s.355 3.419 1.014 4.999C17.009 33.999 17.005 34 17 34 14.243 34 12 31.757 12 29z"/><path d="M22.035 17.999l.192.75c.003.01.007.019.01.029.097.369.22.727.374 1.069.007.015.015.029.021.044.153.336.329.659.531.964.005.008.01.016.015.024.189.282.402.546.629.798.046.051.091.102.138.152.222.232.459.45.711.65.054.043.11.083.165.124.266.199.541.385.834.545.006.004.012.007.019.01.297.161.611.294.932.412.057.021.113.043.171.063.315.106.64.189.973.25.062.011.125.019.188.029C28.286 23.964 28.638 24 29 24s.714-.036 1.062-.089c.063-.01.125-.017.188-.029.333-.06.658-.144.973-.25.058-.019.114-.042.172-.063.321-.117.635-.251.932-.412.006-.003.012-.007.019-.01.293-.16.568-.346.834-.545.055-.041.111-.081.165-.124.252-.2.489-.417.711-.65.047-.05.092-.101.138-.152.227-.251.44-.515.629-.797.005-.008.01-.016.015-.024.202-.305.377-.628.531-.964.007-.015.015-.029.021-.044.153-.343.277-.701.374-1.07.003-.01.007-.019.01-.029l.192-.75-.041-.023C35.969 17.656 36 17.332 36 17c0-3.859-3.141-7-7-7s-7 3.141-7 7c0 .332.031.656.076.976L22.035 17.999zM33.189 19.713c-.052.081-.112.154-.169.231-.12.163-.248.32-.386.468-.063.067-.127.135-.193.198-.177.168-.365.324-.564.466-.036.025-.067.055-.104.08-.237.159-.491.293-.754.41-.075.033-.154.059-.231.089-.203.078-.412.144-.627.195-.086.021-.172.043-.26.059C29.608 21.963 29.308 22 29 22s-.608-.037-.901-.091c-.088-.016-.174-.038-.26-.059-.215-.051-.424-.117-.627-.195-.077-.03-.155-.056-.231-.089-.263-.117-.517-.251-.754-.41-.036-.024-.068-.055-.104-.08-.2-.141-.388-.298-.564-.466-.067-.064-.13-.131-.193-.198-.138-.147-.266-.304-.386-.468-.056-.077-.116-.151-.169-.231-.147-.227-.279-.464-.388-.714 2.861-1.31 6.292-1.31 9.154 0C33.467 19.249 33.336 19.487 33.189 19.713zM29 12c2.757 0 5 2.243 5 5 0 .006-.002.012-.002.018-3.165-1.302-6.832-1.302-9.996 0C24.002 17.012 24 17.006 24 17 24 14.243 26.243 12 29 12z"/><path d="M35.965 40.001l-.192-.75c-.003-.01-.007-.019-.01-.028-.097-.369-.221-.727-.374-1.07-.007-.015-.015-.03-.022-.045-.153-.336-.329-.659-.531-.964-.005-.008-.009-.016-.014-.024-.189-.283-.402-.546-.629-.798-.046-.051-.091-.102-.138-.152-.222-.233-.459-.45-.711-.65-.054-.043-.11-.082-.165-.123-.265-.198-.54-.384-.833-.544-.007-.004-.014-.008-.022-.012-.297-.161-.61-.294-.93-.411-.057-.021-.114-.043-.172-.063-.315-.106-.64-.189-.974-.25-.062-.011-.124-.019-.187-.029C29.715 34.036 29.362 34 29 34s-.715.036-1.062.089c-.063.01-.125.017-.187.029-.333.061-.658.144-.974.25-.058.019-.114.042-.171.063-.321.117-.634.25-.931.411-.007.004-.014.008-.022.012-.292.16-.567.345-.832.544-.055.041-.111.081-.165.124-.252.2-.489.417-.711.65-.047.05-.092.101-.138.152-.227.251-.44.515-.629.798-.005.008-.009.016-.014.024-.202.305-.378.628-.531.964-.007.015-.015.03-.022.045-.153.343-.277.7-.374 1.069-.003.01-.008.019-.01.029l-.192.75.041.023C22.031 40.344 22 40.668 22 41c0 3.859 3.141 7 7 7s7-3.141 7-7c0-.332-.031-.656-.076-.976L35.965 40.001zM24.811 38.287c.052-.081.112-.154.169-.231.12-.163.248-.32.386-.468.063-.067.127-.135.193-.198.177-.168.365-.324.564-.466.036-.025.067-.055.104-.08.237-.159.491-.293.754-.41.075-.033.154-.059.231-.089.203-.078.412-.144.627-.195.086-.021.172-.043.26-.059C28.392 36.037 28.692 36 29 36s.608.037.901.091c.088.016.174.038.26.059.215.051.424.117.627.195.077.03.155.056.231.089.263.117.517.251.754.41.036.024.068.055.104.08.2.141.388.298.564.466.067.064.13.131.193.198.138.147.266.304.386.468.056.077.116.151.169.231.147.227.279.464.388.714-2.861 1.31-6.292 1.31-9.154 0C24.533 38.751 24.664 38.513 24.811 38.287zM29 46c-2.757 0-5-2.243-5-5 0-.005.001-.009.001-.014C25.581 41.645 27.282 42 29 42s3.419-.355 4.999-1.014C33.999 40.991 34 40.995 34 41 34 43.757 31.757 46 29 46z"/></symbol><symbol id="menu-theaters" x="0px" y="0px" viewBox="0 0 512 512"><path d="M504.396 25.347H139.409c-4.199 0-7.604 3.405-7.604 7.604 0 4.199 3.405 7.604 7.604 7.604h357.383v23.823h-31.427H46.635 15.208V40.555h39.037c4.199 0 7.604-3.405 7.604-7.604 0-4.199-3.405-7.604-7.604-7.604H7.604C3.405 25.347 0 28.751 0 32.951v39.031 377.159 29.909c0 4.199 3.405 7.604 7.604 7.604h496.792c4.2 0 7.604-3.405 7.604-7.604v-29.909V71.982 32.951C512 28.751 508.596 25.347 504.396 25.347zM472.969 295.034V267.66v-.016c0-.016 0-.033 0-.05V79.586h23.823v361.952h-23.823V295.034zM433.414 79.586h24.348v121.492C432.278 154.061 432.462 98.582 433.414 79.586zM396.798 79.584h21.361v.001c-.475 9.591-.703 26.572 1.696 47.018 3.339 28.463 12.647 69.09 37.907 102.559v2.034c-29.456-19.046-48.624-49.788-57.032-91.592C395.531 113.753 396.084 90.532 396.798 79.584zM381.539 79.584 381.539 79.584c-.754 12.136-1.138 35.791 4.192 62.572 9.812 49.311 34.677 86.109 72.031 106.75v1.121c-10.323-4.056-27.793-12.642-45.082-29.042-34.592-32.814-52.796-80.364-54.183-141.401H381.539zM427.006 302.638h15.948l-46.977 138.899h-15.948L427.006 302.638zM363.974 441.537h-16.773l46.977-138.899h16.773L363.974 441.537zM457.761 306.323v135.214h-45.73L457.761 306.323zM453.553 287.43h-31.815c-.003 0-.007 0-.01 0h-25.402v-12.166h61.435v12.166H453.553zM343.282 79.586c.779 34.956 6.962 66.304 18.417 93.268 9.919 23.348 23.773 43.465 41.179 59.793 10.429 9.782 20.844 17.001 30.039 22.276-45.69-12-112.869-50.868-115.497-175.337H343.282zM302.215 79.584c.846 40.811 8.535 76.155 22.899 105.144 12.529 25.286 30.148 45.869 52.365 61.175 8.366 5.764 16.812 10.409 25.055 14.153h-12.547c-5.474-1.948-32.363-12.364-58.863-37.51-37.809-35.878-57.729-83.95-59.297-142.962H302.215zM240.179 79.586c-.983 36.16-9.018 68.606-23.929 96.536-1.978 3.705-.578 8.312 3.127 10.289 1.141.609 2.366.897 3.575.897 2.717 0 5.345-1.46 6.715-4.024 16.09-30.14 24.731-64.995 25.728-103.698h1.219c.874 33.848 7.602 64.834 20.047 92.201 10.748 23.63 25.734 44.594 44.545 62.31 24.747 23.307 49.356 34.698 59.915 38.878v20.81l-49.972 147.753H180.854l-49.972-147.753v-20.81c10.559-4.18 35.169-15.571 59.915-38.878 3.057-2.879 3.202-7.691.322-10.749-2.879-3.057-7.691-3.201-10.749-.322-26.333 24.8-52.919 35.097-58.357 37.031h-12.547c8.243-3.744 16.689-8.389 25.055-14.153 22.218-15.307 39.836-35.89 52.366-61.175 14.364-28.988 22.054-64.333 22.898-105.143H240.179zM69.046 302.638h15.948l46.977 138.899h-15.948L69.046 302.638zM99.97 441.537H54.239V306.324L99.97 441.537zM101.049 302.638h16.774L164.8 441.537h-16.772L101.049 302.638zM194.58 79.584v.001c-2.628 124.468-69.807 163.337-115.497 175.337 9.195-5.274 19.61-12.493 30.039-22.276 17.406-16.327 31.26-36.445 41.179-59.794 11.456-26.964 17.638-58.311 18.418-93.268H194.58zM54.239 79.586h24.348c.952 18.997 1.136 74.476-24.348 121.492V79.586zM54.239 229.164c25.259-33.47 34.569-74.097 37.907-102.559 2.399-20.446 2.172-37.427 1.696-47.018h21.368v-.001c.715 10.862 1.27 33.837-3.856 59.603-8.36 42.016-27.557 72.897-57.115 92.009V229.164zM54.239 248.907c37.353-20.641 62.219-57.439 72.031-106.75 5.329-26.782 4.946-50.437 4.192-62.57h23.042c-1.387 61.035-19.591 108.587-54.183 141.4-17.288 16.399-34.759 24.987-45.082 29.043V248.907zM54.238 275.263h.001 61.435v12.166H90.266c-.001 0-.002 0-.003 0H58.447h-4.209V275.263zM15.208 79.586h23.823v188.008c0 .016 0 .033 0 .05v.016 27.374 146.503H15.208V79.586zM496.794 471.446h-.002H15.208v-14.701h31.427 63.934 32.003 32.827 161.204 32.828 32.002 63.934 31.427V471.446z"/></symbol><symbol id="menu-galleries" x="0px" y="0px" viewBox="0 0 512.002 512.002"><path d="M107.666 236.357h296.671c4.872 0 8.821-3.95 8.821-8.821V8.821c0-4.872-3.95-8.821-8.821-8.821H107.666c-4.872 0-8.821 3.95-8.821 8.821v218.715C98.844 232.408 102.794 236.357 107.666 236.357zM128.961 218.715l15.564-15.564h222.951l15.564 15.564H128.961zM149.693 185.509V50.849h212.616v134.66H149.693zM395.514 206.239l-15.563-15.564V45.681l15.563-15.563V206.239zM383.04 17.642l-15.563 15.564H144.526l-15.565-15.564H383.04zM116.487 30.117l15.564 15.564v144.995l-15.564 15.564V30.117z"/><path d="M497.507 494.358h-13.884V314.417c0-.034-.005-.067-.005-.101 6.303-5.955 10.249-14.38 10.249-23.715 0-17.996-14.641-32.637-32.637-32.637-17.996 0-32.637 14.641-32.637 32.637 0 9.335 3.945 17.76 10.249 23.715 0 .034-.005.067-.005.101v26.47c-21.829 20.745-50.306 32.134-80.535 32.134-30.165 0-58.585-11.343-80.397-32.004v-26.6c0-.034-.005-.067-.005-.101 6.303-5.955 10.249-14.38 10.249-23.715 0-17.996-14.641-32.637-32.637-32.637-17.996 0-32.637 14.641-32.637 32.637 0 9.335 3.945 17.76 10.249 23.715 0 .034-.005.067-.005.101v26.928c-21.765 20.452-50.041 31.677-80.044 31.677-29.94 0-58.16-11.178-79.907-31.549v-27.055c0-.034-.005-.067-.005-.101 6.303-5.955 10.249-14.38 10.249-23.715 0-17.996-14.641-32.637-32.637-32.637-17.996 0-32.637 14.641-32.637 32.637 0 9.335 3.945 17.76 10.249 23.715 0 .034-.005.067-.005.101V494.36H14.494c-4.872 0-8.821 3.95-8.821 8.821 0 4.872 3.949 8.821 8.821 8.821h22.707 27.144 177.593 27.144 178.574 27.144 22.707c4.872 0 8.821-3.95 8.821-8.821C506.329 498.31 502.379 494.358 497.507 494.358zM55.524 494.359h-9.502v-.001V323.238h9.502V494.359zM50.773 305.596c-8.268 0-14.995-6.726-14.995-14.995 0-8.268 6.726-14.995 14.995-14.995 8.268 0 14.995 6.726 14.995 14.995C65.767 298.87 59.041 305.596 50.773 305.596zM233.117 494.359H73.167V364.418c23.008 17.038 50.749 26.246 79.907 26.246 29.214 0 57.009-9.242 80.044-26.345V494.359zM260.261 494.359h-9.502v-.001V323.238h9.502V494.359zM255.51 305.596c-8.268 0-14.995-6.726-14.995-14.995 0-8.268 6.726-14.995 14.995-14.995 8.268 0 14.995 6.726 14.995 14.995C270.505 298.87 263.778 305.596 255.51 305.596zM438.835 494.358H277.903V364.05c23.104 17.272 51.032 26.614 80.397 26.614 29.424 0 57.404-9.381 80.535-26.719V494.358zM465.98 494.359h-9.502v-.001V323.238h9.502V494.359zM461.228 305.596c-8.268 0-14.995-6.726-14.995-14.995 0-8.268 6.726-14.995 14.995-14.995s14.995 6.726 14.995 14.995C476.223 298.87 469.497 305.596 461.228 305.596z"/></symbol><symbol id="menu-museums" viewBox="0 0 512 512"><g><g><path d="M252.079 253.522c-4.688-2.921-10.855-1.488-13.774 3.201l-3.352 5.38c-3.994 6.413-10.889 10.241-18.443 10.241h-11.716c-5.523 0-10 4.477-10 10s4.477 10 10 10h11.716c14.507 0 27.748-7.352 35.419-19.666l3.352-5.38C258.199 262.608 256.766 256.442 252.079 253.522z"/></g></g><g><g><path d="M248.162 395.46c-2.773-4.775-8.893-6.398-13.668-3.626l-.045.026c-4.776 2.773-6.377 8.88-3.604 13.655 1.854 3.192 5.213 4.97 8.663 4.97 1.712 0 3.446-.438 5.029-1.357C249.311 406.355 250.935 400.236 248.162 395.46z"/></g></g><g><g><path d="M377.439 491.999h-.192c-5.523 0-10 4.477-10 10 0 5.523 4.477 10 10 10h.192c5.523 0 10-4.477 10-10C387.438 496.476 382.961 491.999 377.439 491.999z"/></g></g><g><g><path d="M337.659 272.257l8.296-8.958c7.846-8.471 12.167-19.493 12.167-31.039v-22.322c0-15.154-10.217-28.501-24.846-32.457l-41.485-11.218v-14.73c2.583-2.583 5.033-5.445 7.32-8.59 11.055-15.2 17.142-35.244 17.142-56.439 0-28.47-10.637-56.118-27.781-72.278-10.869-11.703-30.293-16.61-52.087-13.129-14.416 2.302-31.58 8.967-40.199 20.969-15.68 2.355-27.654 10.406-33.29 22.579-6.216 13.426-3.763 29.713 6.683 45.079 1.82 28.824 20.766 41.093 34.401 44.666 4.617 8.409 10.335 15.441 16.812 20.87v12.516l-63.713 29.846c-15.54 7.279-25.581 23.07-25.581 40.23v41.507c0 12.489 10.161 22.648 22.648 22.648h15.215l8.912 33.666c-4.945 12.377-22.145 57.21-22.145 81.996 0 20.552 17.264 54.467 28.48 74.33h-50.045c-5.523 0-10 4.477-10 10s4.477 10 10 10h213.557c5.523 0 10-4.477 10-10 0-5.523-4.477-10-10-10h-16.946c8.86-25.413 25.019-80.03 14.528-115.188-5.021-16.827-23.383-42.746-30.223-52.043l3.845-42.017C326.303 281.204 332.738 277.569 337.659 272.257zM295.746 76.757c.334 3.226.507 6.486.507 9.749 0 17.001-4.729 32.868-13.317 44.676-7.89 10.849-18.075 16.823-28.681 16.823-11.645 0-22.788-7.302-30.746-19.853 8.191-7.575 16.432-19.489 15.711-33.542 14.404-3.482 25.159-15.352 30.476-33.863C279.997 64.398 290.228 71.988 295.746 76.757zM218.619 79.747c-2.063 2.914-2.416 6.711-.925 9.956 5.146 11.199-4.253 20.913-9.371 25.132-6.134-1.792-18.496-7.967-18.877-28.67-.038-2.087-.729-4.11-1.975-5.785-7.475-10.046-9.817-20.008-6.426-27.333 3.092-6.68 11.052-10.907 21.838-11.599 3.71-.238 6.983-2.515 8.496-5.911 2.429-5.455 12.882-12.252 28.16-14.692 3.502-.559 6.929-.831 10.203-.831 10.594 0 19.571 2.843 24.205 7.962.191.211.392.415.601.609 5.093 4.74 9.49 11.04 12.967 18.308-7.418-3.965-15.881-7.244-24.47-8.049-5.246-.483-9.968 3.166-10.806 8.364-2.22 13.766-8.28 29.852-24.54 28.36C224.14 75.235 220.682 76.833 218.619 79.747zM316.832 362.724c4.382 7.321 8.124 14.498 9.708 19.806 9.76 32.712-9.642 90.491-16.634 109.471h-82.375c53.261-26.881 74.895-66.134 83.542-96.267C314.484 383.845 316.152 372.597 316.832 362.724zM311.697 263.599h-42.076c-5.523 0-10 4.477-10 10 0 5.523 4.477 10 10 10h29.546l-3.872 42.312c-1.072 3.641-9.13 27.778-39.611 51.68-4.346 3.408-5.107 9.694-1.699 14.039 3.408 4.347 9.695 5.106 14.039 1.699 12.485-9.791 21.752-19.682 28.594-28.65-.719 7.786-2.16 16.451-4.768 25.539-11.99 41.779-42.288 72.506-90.087 91.442-7.602-13.556-16.771-31.494-21.825-46.249 14.045-3.873 27.302-8.467 39.494-13.726 5.071-2.188 7.409-8.072 5.221-13.142-2.188-5.072-8.073-7.408-13.143-5.221-10.905 4.704-22.757 8.85-35.336 12.384.936-20.893 15.956-61.293 21.857-75.535.839-2.024.99-4.27.429-6.388l-18.07-68.265c-1.185-4.478-5.227-7.426-9.65-7.431-.327 0-.655.016-.985.048-.043.004-.087.009-.13.014-.237.026-.474.059-.712.103-4.878.83-9.366 4.846-9.366 9.759v13.999h-5.401c-1.461 0-2.649-1.188-2.649-2.649v-41.507c0-9.436 5.521-18.117 14.065-22.12l66.154-30.989c5.513-2.583 9.076-8.186 9.076-14.273v-4.378c4.363 1.253 8.871 1.91 13.462 1.91 6.044 0 11.927-1.125 17.536-3.259v1.817c0 8.838 5.959 16.623 14.491 18.931l41.772 11.296c5.928 1.603 10.067 7.011 10.067 13.15v22.322c0 6.491-2.429 12.688-6.839 17.449l-8.296 8.957C320.084 261.801 315.969 263.599 311.697 263.599z"/></g></g></symbol><symbol id="menu-concerts" x="0px" y="0px" viewBox="0 0 550.47 550.47"><path d="M265.828 305.801c2.844 3.011 2.709 7.758-.302 10.602-1.449 1.369-3.301 2.048-5.148 2.048-1.992 0-3.979-.788-5.454-2.35l-33.951-35.945c-2.844-3.011-2.709-7.758.302-10.602 3.012-2.844 7.759-2.708 10.602.302L265.828 305.801zM549.556 46.357 527.45 86.93l2.245 1.223c1.747.952 3.043 2.558 3.606 4.466.562 1.908.343 3.961-.608 5.708l-12.797 23.488c-1.361 2.498-3.935 3.913-6.593 3.913-1.212 0-2.442-.294-3.582-.916l-16.563-9.023-58.688 371.69c-.562 14.529-17.276 26.28-49.723 34.933-29.104 7.761-67.671 12.035-108.598 12.035-40.927 0-79.495-4.274-108.599-12.035-32.448-8.653-49.161-20.404-49.723-34.933L58.995 114.872l-18.248 9.942c-1.111.605-2.346.914-3.588.914-.711 0-1.425-.101-2.12-.306-1.908-.563-3.515-1.859-4.466-3.606L17.777 98.327c-1.982-3.637-.64-8.192 2.998-10.174l2.245-1.223L.914 46.357c-.952-1.747-1.17-3.8-.608-5.708.563-1.908 1.859-3.515 3.606-4.466l35.324-19.245c3.639-1.982 8.193-.639 10.174 2.998l22.105 40.574 2.245-1.223c3.638-1.981 8.193-.64 10.174 2.998l12.797 23.488c.952 1.747 1.17 3.8.608 5.708-.563 1.908-1.859 3.515-3.606 4.466l-17.554 9.563 126.605 133.639c2.849 3.007 2.72 7.754-.287 10.603-3.008 2.848-7.755 2.719-10.603-.287L76.14 127.277l52.281 331.115 136.705-346.319H245.98c-4.142 0-7.5-3.358-7.5-7.5V77.825c0-4.142 3.358-7.5 7.5-7.5h2.557V24.12c0-4.142 3.358-7.5 7.5-7.5h40.226c4.142 0 7.5 3.358 7.5 7.5v46.205h2.557c4.142 0 7.5 3.358 7.5 7.5v26.748c0 4.142-3.358 7.5-7.5 7.5h-19.146l136.705 346.319 52.339-331.482L356.973 250.57c-2.875 2.981-7.623 3.068-10.605.193-2.981-2.875-3.068-7.623-.193-10.605l129.246-134.033-18.685-10.18c-1.747-.952-3.043-2.558-3.606-4.466-.562-1.908-.343-3.961.608-5.708l12.797-23.488c1.981-3.637 6.536-4.98 10.174-2.998l2.245 1.223 22.105-40.574c1.981-3.637 6.537-4.98 10.174-2.998l35.324 19.245c1.747.952 3.044 2.558 3.606 4.466C550.726 42.556 550.507 44.609 549.556 46.357zM532.795 45.766l-22.152-12.069-18.517 33.988 6.722 3.662c3.637 1.981 4.979 6.537 2.998 10.174-1.981 3.637-6.536 4.979-10.174 2.998l-15.553-8.473-5.62 10.316 39.814 21.691 5.62-10.316-8.518-4.641c-3.637-1.981-4.979-6.537-2.998-10.174 1.924-3.531 6.272-4.89 9.852-3.152L532.795 45.766zM298.819 97.073V85.325h-9.08c-4.142 0-7.5-3.358-7.5-7.5 0-3.81 2.844-6.95 6.523-7.429V31.62h-25.226v38.705h8.801c4.142 0 7.5 3.358 7.5 7.5s-3.358 7.5-7.5 7.5H253.48v11.748H298.819zM132.801 486.722c0 3.77 8.071 13.053 38.615 21.198 27.879 7.435 65.074 11.529 104.734 11.529 39.659 0 76.854-4.094 104.733-11.529 30.544-8.145 38.615-17.428 38.615-21.198 0-2.413-3.152-6.856-12.74-11.807-.119-.059-.239-.119-.355-.185-6.712-3.418-16.494-7.068-30.43-10.456-4.025-.979-6.495-5.034-5.516-9.059.978-4.024 5.031-6.498 9.059-5.516 1.147.279 2.276.561 3.387.847L282.555 345.258c-2.858-2.999-2.744-7.746.255-10.604 2.999-2.857 7.745-2.744 10.604.255l111.971 117.484L276.15 125 146.736 452.846l169.193-180.761c2.831-3.024 7.577-3.18 10.601-.351 3.024 2.831 3.181 7.577.351 10.601L169.427 450.554c28.878-7.453 66.658-11.559 106.723-11.559 21.264 0 41.857 1.143 61.207 3.397 4.114.479 7.061 4.203 6.582 8.318-.48 4.114-4.205 7.059-8.318 6.582-18.775-2.188-38.785-3.297-59.471-3.297-39.66 0-76.855 4.094-104.734 11.529C140.872 473.67 132.801 482.952 132.801 486.722zM79.971 86.362l-5.62-10.316-5.801 3.16c-3.639 1.981-8.193.639-10.174-2.998-1.386-2.544-1.142-5.534.372-7.781l-18.922-34.73L17.674 45.766l18.517 33.988 8.917-4.858c3.638-1.983 8.193-.639 10.174 2.998 1.982 3.638.64 8.192-2.998 10.174l-15.502 8.446 0 0 0 0-2.245 1.223 5.62 10.316L79.971 86.362z"/></symbol><symbol id="menu-fitness" viewBox="0 0 64 64"><path d="M63.022 26.237c-.665-.798-1.601-1.255-2.568-1.255H59v-1.174c0-2.109-1.832-3.826-4.083-3.826H53v-2.167c0-1.02-.435-2.015-1.192-2.731-1.506-1.423-4.109-1.423-5.615 0C45.435 15.801 45 16.796 45 17.816v10.167H19V17.816c0-1.02-.434-2.015-1.192-2.731-1.506-1.423-4.109-1.423-5.615 0C11.435 15.801 11 16.796 11 17.816v2.167H8.85c-1.011 0-1.967.365-2.693 1.028C5.422 21.686 5 22.628 5 23.594v1.388H3.56c-.972 0-1.912.459-2.579 1.26C.349 27.002 0 28.001 0 29.054v5.856c0 1.053.349 2.052.982 2.812.667.801 1.607 1.26 2.578 1.26H5v1.388c0 .966.422 1.908 1.159 2.585.724.662 1.68 1.027 2.691 1.027H11v2.167c0 1.02.435 2.015 1.192 2.73.753.711 1.75 1.103 2.808 1.103s2.055-.392 2.808-1.103C18.566 48.163 19 47.168 19 46.149V35.982h26v10.167c0 1.02.435 2.015 1.192 2.73.753.711 1.75 1.103 2.808 1.103 1.058 0 2.055-.392 2.808-1.103C52.565 48.163 53 47.168 53 46.149v-2.167h1.917c2.251 0 4.083-1.716 4.083-3.826v-1.174h1.454c.967 0 1.903-.458 2.569-1.255.63-.757.978-1.751.978-2.8v-5.889C64 27.989 63.653 26.994 63.022 26.237zM3.56 36.982c-.381 0-.751-.192-1.041-.54C2.189 36.047 2 35.488 2 34.91v-5.856c0-.578.189-1.136.519-1.532.29-.348.66-.54 1.041-.54H5v10H3.56zM8.85 41.982c-.503 0-.992-.183-1.339-.501C7.181 41.178 7 40.784 7 40.37v-2.388-12-2.388c0-.414.181-.809.509-1.11.35-.319.838-.502 1.341-.502H11v20H8.85zM17 46.149c0 .479-.201.932-.565 1.276-.75.708-2.119.708-2.869 0C13.201 47.081 13 46.627 13 46.149v-3.167-22-3.167c0-.479.201-.932.565-1.276.375-.354.898-.557 1.435-.557.537 0 1.06.203 1.435.557C16.799 16.883 17 17.337 17 17.816v11.167 6V46.149zM19 33.982v-4h26v4H19zM51 46.149c0 .479-.201.932-.565 1.276-.75.708-2.119.708-2.869 0C47.201 47.081 47 46.627 47 46.149V34.982v-6V17.816c0-.479.201-.932.565-1.276.375-.354.898-.557 1.435-.557.537 0 1.06.203 1.435.557C50.799 16.883 51 17.337 51 17.816v3.167 22V46.149zM57 40.156c0 1.007-.934 1.826-2.083 1.826H53v-20h1.917c1.148 0 2.083.819 2.083 1.826v2.174 12V40.156zM62 34.926c0 .574-.188 1.127-.514 1.52-.288.346-.655.536-1.032.536H59v-10h1.454c.377 0 .744.19 1.032.536C61.813 27.91 62 28.464 62 29.038V34.926z"/></symbol><symbol id="menu-stadiums" viewBox="0 0 415.506 415.506"><path d="M383.272 110.52l.002-.646-3.484-.011-.086 27.448c-8.281-6.856-17.703-12.51-26.766-17.017-23.309-11.592-48.772-18.684-74.508-23.022l.041-13.047c12.619-10.885 23.938 5.021 32.303-10.692-19.652.258-15.338-11.771-32.234-10.734l.002-.646-3.484-.011-.109 34.548c-6.285-.999-12.58-1.838-18.861-2.541-35.063-3.924-70.861-3.619-105.82 1.212-3.229.446-6.465.94-9.705 1.463l-.109-34.682-3.484.011.002.646c-16.897-1.037-12.582 10.993-32.234 10.734 8.363 15.713 19.684-.193 32.301 10.692l.043 13.168c-29.039 4.941-58.164 13.233-83.584 28.047-5.867 3.419-11.984 7.537-17.688 12.285l-.088-27.863-3.484.011.002.646C15.338 109.481 19.654 121.512 0 121.254c8.367 15.712 19.685-.192 32.303 10.693l.029 8.801c-12.324 11.22-21.863 25.568-21.074 42.402.912 19.49 12.287 34.646 26.885 46.248v27.828c-5.445-4.65-9.631-9.446-12.393-13.967-1.525-2.488-2.686-4.849-3.545-6.978-.828-2.137-1.412-4.026-1.752-5.592-.346-1.563-.578-2.787-.672-3.617-.111-.833-.168-1.263-.168-1.263s-.033.433-.096 1.271c-.072.841-.129 2.098-.059 3.742.156 3.262.719 8.221 3.197 14.016 1.211 2.896 2.832 6.002 4.924 9.176 2.078 3.184 4.682 6.381 7.674 9.584.918.976 1.891 1.945 2.889 2.91v25.319c-5.445-4.65-9.631-9.445-12.393-13.966-1.525-2.488-2.686-4.849-3.545-6.978-.828-2.136-1.412-4.026-1.752-5.592-.346-1.563-.578-2.788-.672-3.617-.111-.833-.168-1.263-.168-1.263s-.033.433-.096 1.271c-.072.841-.129 2.098-.059 3.742.156 3.262.719 8.22 3.199 14.016 1.211 2.895 2.832 6.001 4.924 9.176 2.078 3.184 4.682 6.38 7.674 9.583.918.975 1.889 1.943 2.887 2.908l.74.701c5.4 5.107 11.889 10.04 19.26 14.613 4.549 2.825 9.438 5.5 14.594 8.053 5.16 2.543 10.615 4.894 16.285 7.137 11.363 4.416 23.65 8.211 36.555 11.218 6.445 1.538 13.053 2.835 19.764 3.979.332.057.666.107.998.163l1.918 6.39 4.053-1.216 4.051-1.216-14.377-47.884c44.209-11.229 87.334-11.229 131.541 0l-14.377 47.883 4.053 1.217 4.051 1.217 1.918-6.389c.332-.056.668-.107.998-.164 6.713-1.144 13.32-2.442 19.766-3.979 12.902-3.007 25.191-6.802 36.555-11.218 5.668-2.243 11.125-4.594 16.285-7.137 5.154-2.553 10.045-5.228 14.592-8.053 7.371-4.573 13.859-9.506 19.262-14.613l.74-.701c.998-.964 1.969-1.933 2.885-2.908 6.031-6.369 10.244-12.928 12.615-18.751 2.439-5.813 3.068-10.751 3.188-14.023.063-1.648.012-2.912-.063-3.743-.063-.838-.096-1.271-.096-1.271s-.059.43-.17 1.263c-.096.84-.322 2.057-.676 3.616-.348 1.564-.939 3.451-1.758 5.59-.846 2.132-2.012 4.492-3.551 6.972-1.555 2.471-3.467 5.074-5.824 7.667-1.926 2.099-4.109 4.223-6.551 6.309v-25.321c.998-.965 1.971-1.934 2.887-2.91 6.029-6.369 10.244-12.929 12.613-18.752 2.439-5.813 3.068-10.751 3.188-14.023.063-1.648.012-2.913-.063-3.743-.063-.838-.096-1.271-.096-1.271s-.059.43-.17 1.263c-.096.84-.322 2.057-.676 3.616-.348 1.565-.939 3.451-1.756 5.59-.846 2.132-2.012 4.492-3.551 6.972-1.557 2.471-3.467 5.074-5.824 7.667-1.926 2.1-4.111 4.224-6.553 6.31V229.77c14.756-11.677 26.125-26.96 27.268-46.711-.061-17.35-9.113-31.51-21.455-42.729l.025-8.384c12.619-10.885 23.938 5.019 32.303-10.693C395.852 121.512 400.168 109.481 383.272 110.52zM280.027 114.548c16.605 3.143 32.943 7.585 48.641 13.701 14 5.455 31.211 13.355 43.342 24.885l-66.66 41.398c-13.203-10.172-34.381-18.08-59.785-22.076L280.027 114.548zM229.93 108.653c13.213.727 26.494 2.042 39.658 4.104l-34.686 58.282c-8.693-.95-17.787-1.458-27.148-1.458-9.363 0-18.455.507-27.15 1.458l-34.693-58.297C173.648 108.351 201.9 107.111 229.93 108.653zM55.637 143.732c23.703-15.661 52.072-24.007 79.842-29.186l34.463 57.909c-25.404 3.997-46.582 11.904-59.785 22.076l-66.695-41.421C47.25 149.625 51.412 146.522 55.637 143.732zM85.145 316.543c-7.936-2.711-15.35-5.71-22.109-8.982-4.535-2.154-8.732-4.49-12.617-6.872-.814-.498-1.605-1.004-2.389-1.513v-24.268c3.15 2.375 6.525 4.688 10.111 6.914 4.549 2.825 9.439 5.5 14.594 8.053 3.973 1.958 8.123 3.801 12.41 5.569V316.543zM85.145 281.943c-7.936-2.711-15.352-5.711-22.111-8.983-4.535-2.154-8.73-4.49-12.615-6.872-.816-.497-1.605-1.004-2.389-1.513v-28.113c3.461 2.231 7 4.297 10.545 6.205 8.537 4.595 17.439 8.505 26.57 11.873V281.943zM76.422 232.545c-13.803-6.317-27.742-14.164-37.881-25.706-4.895-5.57-11.996-16.036-10.539-24.222.709-3.98 1.832-10.702 4.355-15.745 1.236-2.247 2.668-4.369 4.242-6.385l66.076 41.036c-4.676 5.438-7.244 11.331-7.244 17.49 0 9.679 6.328 18.706 17.252 26.33C100.236 242.043 88.055 237.868 76.422 232.545zM128.746 327.655c-11.809-2.156-23.133-4.828-33.715-7.97v-20.436c9.649 3.467 19.881 6.496 30.543 8.981 3.219.768 6.479 1.476 9.771 2.135l5.803 19.328C136.967 329.063 132.828 328.379 128.746 327.655zM320.477 319.685c-10.582 3.143-21.906 5.814-33.717 7.97-4.08.724-8.221 1.408-12.402 2.039l5.803-19.328c3.293-.659 6.553-1.367 9.772-2.135 10.664-2.485 20.896-5.515 30.545-8.981V319.685zM320.477 285.085c-10.582 3.142-21.906 5.814-33.715 7.97-3.631.644-7.309 1.256-11.021 1.828-45.701-11.633-90.273-11.633-135.975 0-3.711-.572-7.389-1.184-11.02-1.828-11.811-2.155-23.133-4.828-33.715-7.97v-27.131c20.076 6.438 41.053 10.423 61.723 12.957 34.283 4.202 69.221 4.148 103.496-.104 20.242-2.512 40.645-6.456 60.227-12.713V285.085zM367.478 299.177c-.783.509-1.574 1.015-2.391 1.513-3.885 2.382-8.08 4.717-12.615 6.872-6.76 3.271-14.176 6.27-22.109 8.982v-21.099c4.285-1.769 8.438-3.611 12.41-5.569 5.154-2.552 10.045-5.228 14.592-8.053 3.588-2.226 6.963-4.54 10.113-6.914V299.177zM367.478 264.575c-.783.509-1.574 1.016-2.389 1.513-3.885 2.382-8.08 4.717-12.615 6.872-6.76 3.272-14.176 6.272-22.111 8.983V254.69c8.365-3.068 16.555-6.584 24.469-10.653 4.268-2.193 8.52-4.607 12.646-7.247V264.575zM387.141 182.557c-.145 15.047-13.639 29.256-26.842 38.099-17.16 11.493-36.879 19.13-57.113 24.43 10.701-7.569 16.889-16.503 16.889-26.074 0-6.158-2.566-12.052-7.242-17.49l65.863-40.903C383.428 166.971 386.568 174.235 387.141 182.557z"/></symbol><symbol id="menu-restaurants" x="0px" y="0px" viewBox="0 0 463.001 463.001"><path d="M382.382 0h-.032c-12.173 0-22.651 9.087-24.373 21.138l-35.859 251.016c-1.709 11.961 5.842 23.191 17.564 26.122l12.021 3.005-6.464 129.275c-.427 8.536 2.582 16.647 8.473 22.84S367.554 463 376.101 463c17.039 0 30.9-13.862 30.9-30.9V24.62C407.001 11.044 395.957 0 382.382 0zM392.001 432.099 392.001 432.099c0 8.768-7.133 15.9-15.9 15.9-4.398 0-8.489-1.755-11.521-4.941-3.032-3.186-4.58-7.36-4.36-11.753l6.771-135.431c.179-3.577-2.197-6.782-5.672-7.65l-18-4.5c-4.24-1.06-6.971-5.122-6.353-9.449l35.86-251.016c.672-4.708 4.767-8.259 9.523-8.259h.032c5.304 0 9.62 4.315 9.62 9.62V432.099z"/><path d="M286.992 7.125c-.207-4.137-3.735-7.315-7.865-7.116-4.137.207-7.323 3.728-7.116 7.865l6.406 128.125h-23.416V7.5c0-4.142-3.358-7.5-7.5-7.5-4.142 0-7.5 3.358-7.5 7.5V136h-23.416L222.99 7.875c.207-4.137-2.979-7.658-7.116-7.865-4.136-.21-7.658 2.979-7.865 7.116l-7.546 150.927c-.411 8.22 3.588 16.162 10.436 20.727l9.062 6.041c2.455 1.637 3.868 4.375 3.781 7.324l-7.072 239.157c-.233 8.397 2.864 16.338 8.72 22.36 5.857 6.022 13.709 9.339 22.11 9.339s16.253-3.316 22.11-9.339c5.856-6.022 8.954-13.963 8.72-22.373l-7.071-239.144c-.087-2.949 1.327-5.687 3.781-7.324l9.062-6.041c6.847-4.565 10.846-12.507 10.435-20.727L286.992 7.125zM275.783 166.298l-9.062 6.041c-6.787 4.524-10.695 12.094-10.454 20.248l7.071 239.131c.12 4.313-1.471 8.392-4.479 11.485-3.009 3.093-7.042 4.797-11.357 4.797s-8.349-1.704-11.357-4.797c-3.008-3.093-4.599-7.172-4.479-11.472l7.071-239.144c.241-8.154-3.667-15.723-10.454-20.248l-9.062-6.041c-2.477-1.651-3.923-4.524-3.774-7.497l.39-7.802h63.331l.39 7.802C279.706 161.774 278.26 164.647 275.783 166.298z"/><path d="M119.501 0c-15.626 0-37.258 7.845-51.572 45.22-8.804 22.986-11.928 50.071-11.928 66.28 0 22.316 11.389 42.587 30.465 54.226 5.306 3.238 8.388 8.709 8.244 14.635l-6.121 250.963c-.205 8.4 2.914 16.337 8.783 22.351 5.868 6.013 13.727 9.325 22.129 9.325s16.262-3.312 22.13-9.325c5.869-6.013 8.988-13.951 8.783-22.351l-6.122-250.962c-.144-5.927 2.938-11.398 8.244-14.636 19.077-11.639 30.465-31.911 30.465-54.226 0-16.209-3.124-43.293-11.928-66.28C156.76 7.845 135.128 0 119.501 0zM144.722 152.921c-9.787 5.972-15.698 16.626-15.426 27.806l6.121 250.962c.106 4.325-1.5 8.412-4.522 11.508-3.022 3.097-7.069 4.802-11.395 4.802s-8.373-1.705-11.395-4.801c-3.022-3.096-4.628-7.184-4.522-11.509l6.121-250.962c.273-11.179-5.638-21.834-15.426-27.806-14.576-8.893-23.278-24.378-23.278-41.421 0-31.485 11.855-96.5 48.5-96.5s48.5 65.015 48.5 96.5C168.001 128.543 159.3 144.028 144.722 152.921z"/></symbol><symbol id="menu-hotels" viewBox="0 0 512 512"><g><g><path d="M145.046 230.404H85.321c-4.712 0-8.532 3.82-8.532 8.532v85.321c0 4.712 3.82 8.532 8.532 8.532h59.725c4.712 0 8.532-3.82 8.532-8.532v-85.321C153.578 234.224 149.758 230.404 145.046 230.404zM136.514 315.725H93.853v-68.257h42.661V315.725z"/></g></g><g><g><path d="M290.091 230.404h-59.725c-4.712 0-8.532 3.82-8.532 8.532v85.321c0 4.712 3.82 8.532 8.532 8.532h59.725c4.712 0 8.532-3.82 8.532-8.532v-85.321C298.623 234.224 294.803 230.404 290.091 230.404zM281.559 315.725h-42.66v-68.257h42.66V315.725z"/></g></g><g><g><path d="M290.091 366.917h-59.725c-4.712 0-8.532 3.82-8.532 8.532v85.321c0 4.712 3.82 8.532 8.532 8.532h59.725c4.712 0 8.532-3.82 8.532-8.532v-85.321C298.623 370.738 294.803 366.917 290.091 366.917zM281.559 452.238h-42.66v-68.257h42.66V452.238z"/></g></g><g><g><path d="M426.605 230.404H366.88c-4.712 0-8.532 3.82-8.532 8.532v85.321c0 4.712 3.82 8.532 8.532 8.532h59.725c4.712 0 8.532-3.82 8.532-8.532v-85.321C435.137 234.224 431.317 230.404 426.605 230.404zM418.073 315.725h-42.66v-68.257h42.66V315.725z"/></g></g><g><g><path d="M145.046 366.917H85.321c-4.712 0-8.532 3.82-8.532 8.532v85.321c0 4.712 3.82 8.532 8.532 8.532h59.725c4.712 0 8.532-3.82 8.532-8.532v-85.321C153.578 370.738 149.758 366.917 145.046 366.917zM136.514 452.238H93.853v-68.257h42.661V452.238z"/></g></g><g><g><path d="M426.605 366.917H366.88c-4.712 0-8.532 3.82-8.532 8.532v85.321c0 4.712 3.82 8.532 8.532 8.532h59.725c4.712 0 8.532-3.82 8.532-8.532v-85.321C435.137 370.738 431.317 366.917 426.605 366.917zM418.073 452.238h-42.66v-68.257h42.66V452.238z"/></g></g><g><g><path d="M477.798 494.899V204.807h8.532c4.712 0 8.532-3.82 8.532-8.532v-42.66c0-4.712-3.82-8.532-8.532-8.532h-8.532v-34.128c0-4.712-3.82-8.532-8.532-8.532h-17.064V8.569c0-4.712-3.82-8.532-8.532-8.532H68.257c-4.712 0-8.532 3.82-8.532 8.532v93.853H42.661c-4.712 0-8.532 3.82-8.532 8.532v34.128h-8.532c-4.712 0-8.532 3.82-8.532 8.532v42.66c0 4.712 3.82 8.532 8.532 8.532h8.532v290.091H0v17.064h42.661 426.605H512v-17.064H477.798zM76.789 17.101h358.348v85.321H76.789V17.101zM51.193 119.486h17.064 375.412 17.064v25.596H51.193V119.486zM460.733 494.899H51.193V204.807h409.541V494.899zM42.661 187.743h-8.532v-25.596h8.532 426.605 8.532v25.596h-8.532H42.661z"/></g></g><g><g><path d="M242.858 46.292c-1.357-3.468-3.263-6.463-5.721-8.984-2.457-2.521-5.414-4.499-8.869-5.932-3.456-1.433-7.282-2.15-11.48-2.15-4.198 0-8.031.71-11.499 2.131-3.468 1.421-6.437 3.398-8.907 5.932-2.47 2.534-4.383 5.535-5.74 9.004-1.357 3.468-2.035 7.237-2.035 11.307 0 4.07.678 7.839 2.035 11.307 1.357 3.468 3.27 6.469 5.74 9.004 2.47 2.534 5.439 4.511 8.907 5.932 3.468 1.421 7.301 2.131 11.499 2.131 4.198 0 8.024-.71 11.48-2.131 3.456-1.42 6.412-3.398 8.869-5.932 2.457-2.534 4.364-5.535 5.721-9.004 1.357-3.468 2.035-7.237 2.035-11.307C244.893 53.529 244.214 49.76 242.858 46.292zM233.086 65.796c-.806 2.419-1.965 4.467-3.475 6.143-1.51 1.677-3.347 2.963-5.51 3.859-2.163.896-4.601 1.344-7.314 1.344-2.713 0-5.158-.448-7.333-1.344-2.176-.896-4.025-2.182-5.548-3.859-1.523-1.677-2.694-3.724-3.513-6.143-.819-2.419-1.229-5.151-1.229-8.197s.41-5.778 1.229-8.197c.819-2.419 1.99-4.473 3.513-6.162 1.523-1.689 3.372-2.982 5.548-3.878 2.176-.896 4.62-1.344 7.333-1.344 2.713 0 5.151.448 7.314 1.344 2.163.896 3.999 2.189 5.51 3.878 1.51 1.689 2.668 3.743 3.475 6.162.806 2.419 1.209 5.151 1.209 8.197S233.893 63.377 233.086 65.796z"/></g></g><g><g><polygon points="170.023,29.84 170.023,53.721 143.992,53.721 143.992,29.84 133.587,29.84 133.587,85.358 143.992,85.358
            143.992,61.093 170.023,61.093 170.023,85.358 180.428,85.358 180.428,29.84       "/></g></g><g><g><polygon points="350.017,76.834 350.017,29.84 339.688,29.84 339.688,85.358 372.247,85.358 372.247,76.834        "/></g></g><g><g><polygon points="245.353,29.84 245.353,38.325 262.132,38.325 262.132,85.358 272.46,85.358 272.46,38.325 289.161,38.325
            289.161,29.84       "/></g></g><g><g><polygon points="330.743,38.056 330.743,29.84 295.727,29.84 295.727,85.358 330.743,85.358 330.743,77.103 306.132,77.103
            306.132,61.4 325.521,61.4 325.521,53.452 306.132,53.452 306.132,38.056      "/></g></g></symbol><symbol id="arrow-down" viewBox="0 0 129 129"><path d="m121.3 34.6c-1.6-1.6-4.2-1.6-5.8 0l-51 51.1-51.1-51.1c-1.6-1.6-4.2-1.6-5.8 0-1.6 1.6-1.6 4.2 0 5.8l53.9 53.9c.8.8 1.8 1.2 2.9 1.2 1 0 2.1-.4 2.9-1.2l53.9-53.9c1.7-1.6 1.7-4.2.1-5.8z"/></symbol><symbol id="search" viewBox="0 0 52.966 52.966"><path d="M51.704 51.273 36.845 35.82c3.79-3.801 6.138-9.041 6.138-14.82 0-11.58-9.42-21-21-21s-21 9.42-21 21 9.42 21 21 21c5.083 0 9.748-1.817 13.384-4.832l14.895 15.491c.196.205.458.307.721.307.25 0 .499-.093.693-.279C52.074 52.304 52.086 51.671 51.704 51.273zM21.983 40c-10.477 0-19-8.523-19-19s8.523-19 19-19 19 8.523 19 19S32.459 40 21.983 40z"/></symbol><symbol id="notification" viewBox="0 0 64 64"><path d="M46.6674995 8.6586504c-.5527992 0-1 .4473-1 1 0 .5527992.4472008 1 1 1 3.5185013 0 6.3808022 2.8622999 6.3808022 6.3809004 0 .5527.4473 1 1 1 .5527992 0 1-.4473 1-1C55.0483017 12.4184504 51.2886009 8.6586504 46.6674995 8.6586504z"/><path d="M8.9517002 17.0395508c0 .5527.4471998 1 1 1 .5527 0 1-.4473 1-1 0-3.5186005 2.8622999-6.3809004 6.3808002-6.3809004.5527992 0 1-.4472008 1-1 0-.5527-.4472008-1-1-1C12.7114 8.6586504 8.9517002 12.4184504 8.9517002 17.0395508z"/><path d="M48.1431007 1.27785c-.5527992 0-1 .4473-1 .9999999s.4472008 1 1 1c6.7743988 0 12.2860985 5.5107002 12.2860985 12.2851 0 .5527992.4473 1 1 1s1-.4472008 1-1C62.4291992 7.6860499 56.0200005 1.27785 48.1431007 1.27785z"/><path d="M16.8560009 2.2778499c0-.5526999-.4473-.9999999-1.000001-.9999999-7.8769999 0-14.2852001 6.4081998-14.2852001 14.2851 0 .5527992.4473001 1 1.0000001 1s1-.4472008 1-1c0-6.7743998 5.5107002-12.2851 12.2852001-12.2851C16.4087009 3.2778499 16.8560009 2.83055 16.8560009 2.2778499z"/><path d="M51.7932014 46.2020493c-.1280022-.3828011-.3692017-.6965981-.6621017-.9463997.0236015-.6092987.0386009-1.2222977.0386009-1.8409996 0-13.6198997-5.641201-25.1546001-13.4345016-29.1104012.1161003-.4706001.1844025-.9601002.1844025-1.4666996 0-3.3774004-2.7380028-6.1154003-6.1154022-6.1154003s-6.1153984 2.7379999-6.1153984 6.1154003c0 .5065994.0682983.9960995.1843987 1.4666996C18.0799007 18.2600498 12.4386997 29.7947502 12.4386997 43.41465c0 .6187019.0150003 1.2317009.0386 1.8409996-.2929001.2498016-.5340996.5635986-.6620998.9463997l-2.8975 8.6665993c-.4692001 1.4033012.5754004 2.8535004 2.0555 2.8535004h14.1247005c.8610001 2.8908005 3.535799 5 6.7062988 5s5.8453026-2.1091995 6.7063026-5h14.1246986c1.4800987 0 2.5247002-1.4501991 2.0555-2.8535004L51.7932014 46.2020493zM26.7959003 16.1219501l1.4443989-.7332001-.3878994-1.5727005c-.0841999-.3413-.1252003-.6613998-.1252003-.9784994 0-2.2480001 1.8290005-4.0769005 4.0769997-4.0769005s4.0769997 1.8289003 4.0769997 4.0769005c0 .3170996-.0410004.6371994-.1251984.9784994l-.3879013 1.5727005L36.8125 16.1219501c7.2531013 3.6816006 12.3186989 14.9046993 12.3186989 27.2926998 0 .4183006-.0060997.8419991-.0181007 1.2691002H14.4953003c-.0120001-.4271011-.0181007-.8507996-.0181007-1.2691002C14.4771996 31.0266495 19.5428009 19.8035507 26.7959003 16.1219501zM31.8041992 60.7221489c-2.0464001 0-3.8094997-1.2355003-4.5824986-3h9.164999C35.6137009 59.4866486 33.8506012 60.7221489 31.8041992 60.7221489zM52.7711983 55.6526489c-.0500984.0695-.1102982.0695-.1359978.0695H38.8041992h-14H10.9731998c-.0256996 0-.0859003 0-.1359997-.0695-.0496998-.0690994-.0307999-.1256981-.0227003-.1497993l2.8975-8.6665993c.0229006-.0681992.0866003-.1141014.1588001-.1141014h35.8667984c.0722008 0 .1359024.0459023.158802.1140022l2.8974991 8.6666985C52.8019981 55.5269508 52.8209 55.5835495 52.7711983 55.6526489z"/></symbol><symbol id="users" viewBox="0 0 512 512"><g><g><path d="M158.014 8.882c-23.171 0-44.411 9.112-59.807 25.656-16.028 17.221-24.498 40.729-24.498 67.984 0 28.607 9.416 57.55 25.831 79.404 7.405 9.86 6.871 23.561-1.271 32.579-9.202 10.194-21.221 16.927-34.754 19.473C26.713 240.896 0 273.003 0 310.32v52.906h95.926v-15.673H15.673V310.32c0-29.783 21.339-55.411 50.738-60.938 16.933-3.184 31.973-11.612 43.493-24.373 13.155-14.574 14.068-36.651 2.168-52.496-14.208-18.915-22.69-45.079-22.69-69.991 0-23.222 7.019-43.037 20.297-57.306 12.399-13.322 29.564-20.66 48.427-20.66 25.39 0 46.824 12.913 58.805 35.426l13.837-7.363C216.174 25.231 189.017 8.882 158.014 8.882z"/></g></g><g><g><rect x="218.63" y="411.899" width="102.58" height="15.673"/></g></g><g><g><path d="M370.445 298.326c-13.538-2.55-25.555-9.283-34.753-19.474-8.147-9.024-8.684-22.727-1.278-32.582 16.419-21.845 25.835-50.787 25.835-79.405 0-27.254-8.471-50.762-24.498-67.984-15.398-16.546-36.636-25.659-59.898-25.659-23.172 0-44.412 9.112-59.808 25.657-16.023 17.221-24.493 40.729-24.493 67.984 0 28.612 9.412 57.553 25.824 79.405 7.41 9.86 6.878 23.563-1.266 32.583-9.094 10.075-20.946 16.772-34.302 19.386l-.458.086c-36.803 6.913-63.515 39.021-63.515 76.344v52.905h48.035v-15.673h-32.362v-37.232c0-29.615 21.086-55.116 50.218-60.84l.533-.1c16.937-3.192 31.975-11.62 43.486-24.373 13.161-14.576 14.071-36.657 2.164-52.501-14.203-18.91-22.682-45.074-22.682-69.99 0-23.222 7.019-43.038 20.295-57.306 12.398-13.323 29.563-20.661 48.428-20.661 18.767 0 35.931 7.337 48.33 20.662 13.28 14.27 20.299 34.086 20.299 57.306 0 24.921-8.482 51.084-22.691 69.988-11.905 15.841-10.99 37.921 2.172 52.501 11.515 12.756 26.552 21.184 43.491 24.374 8.198 1.541 15.858 4.629 22.765 9.179l8.622-13.088C390.285 304.12 380.697 300.252 370.445 298.326z"/></g></g><g><g><path d="M423.059 325.378c-49.043 0-88.942 39.867-88.942 88.871 0 49.003 39.899 88.87 88.942 88.87S512 463.25 512 414.248C512 365.245 472.101 325.378 423.059 325.378zM423.059 487.445c-40.4 0-73.268-32.836-73.268-73.196s32.868-73.197 73.268-73.197c40.4 0 73.267 32.836 73.267 73.197C496.327 454.609 463.459 487.445 423.059 487.445z"/></g></g><g><g><polygon points="430.896,406.411 430.896,375.883 415.223,375.883 415.223,406.411 384.66,406.411 384.66,422.086 
			415.223,422.086 415.223,452.612 430.896,452.612 430.896,422.086 461.457,422.086 461.457,406.411 		"/></g></g><g><g><rect x="184.15" y="411.899" width="15.673" height="15.673"/></g></g></symbol><symbol id="favorite" viewBox="0 0 49.94 49.94"><path d="M48.856 22.731c.983-.958 1.33-2.364.906-3.671-.425-1.307-1.532-2.24-2.892-2.438l-12.092-1.757c-.515-.075-.96-.398-1.19-.865L28.182 3.043c-.607-1.231-1.839-1.996-3.212-1.996-1.372 0-2.604.765-3.211 1.996L16.352 14c-.23.467-.676.79-1.191.865L3.069 16.623C1.71 16.82.603 17.753.178 19.06c-.424 1.307-.077 2.713.906 3.671l8.749 8.528c.373.364.544.888.456 1.4L8.224 44.702c-.232 1.353.313 2.694 1.424 3.502 1.11.809 2.555.914 3.772.273l10.814-5.686c.461-.242 1.011-.242 1.472 0l10.815 5.686c.528.278 1.1.415 1.669.415.739 0 1.475-.231 2.103-.688 1.111-.808 1.656-2.149 1.424-3.502L39.651 32.66c-.088-.513.083-1.036.456-1.4L48.856 22.731zM37.681 32.998l2.065 12.042c.104.606-.131 1.185-.629 1.547-.499.361-1.12.405-1.665.121l-10.815-5.687c-.521-.273-1.095-.411-1.667-.411s-1.145.138-1.667.412l-10.813 5.686c-.547.284-1.168.24-1.666-.121-.498-.362-.732-.94-.629-1.547l2.065-12.042c.199-1.162-.186-2.348-1.03-3.17L2.48 21.299c-.441-.43-.591-1.036-.4-1.621.19-.586.667-.988 1.276-1.077l12.091-1.757c1.167-.169 2.176-.901 2.697-1.959l5.407-10.957c.272-.552.803-.881 1.418-.881.616 0 1.146.329 1.419.881l5.407 10.957c.521 1.058 1.529 1.79 2.696 1.959l12.092 1.757c.609.089 1.086.491 1.276 1.077.19.585.041 1.191-.4 1.621l-8.749 8.528C37.866 30.65 37.481 31.835 37.681 32.998z"/></symbol><symbol id="rating" viewBox="0 0 471.701 471.701"><path d="M433.601 67.001c-24.7-24.7-57.4-38.2-92.3-38.2s-67.7 13.6-92.4 38.3l-12.9 12.9-13.1-13.1c-24.7-24.7-57.6-38.4-92.5-38.4-34.8 0-67.6 13.6-92.2 38.2-24.7 24.7-38.3 57.5-38.2 92.4 0 34.9 13.7 67.6 38.4 92.3l187.8 187.8c2.6 2.6 6.1 4 9.5 4 3.4 0 6.9-1.3 9.5-3.9l188.2-187.5c24.7-24.7 38.3-57.5 38.3-92.4C471.801 124.501 458.301 91.701 433.601 67.001zM414.401 232.701l-178.7 178-178.3-178.3c-19.6-19.6-30.4-45.6-30.4-73.3s10.7-53.7 30.3-73.2c19.5-19.5 45.5-30.3 73.1-30.3 27.7 0 53.8 10.8 73.4 30.4l22.6 22.6c5.3 5.3 13.8 5.3 19.1 0l22.4-22.4c19.6-19.6 45.7-30.4 73.3-30.4 27.6 0 53.6 10.8 73.2 30.3 19.6 19.6 30.3 45.6 30.3 73.3C444.801 187.101 434.001 213.101 414.401 232.701z"/></symbol><symbol id="comments" viewBox="0 0 60 60"><path d="M10 25.465h13c.553 0 1-.448 1-1s-.447-1-1-1H10c-.553 0-1 .448-1 1S9.447 25.465 10 25.465z"/><path d="M36 29.465H10c-.553 0-1 .448-1 1s.447 1 1 1h26c.553 0 1-.448 1-1S36.553 29.465 36 29.465z"/><path d="M36 35.465H10c-.553 0-1 .448-1 1s.447 1 1 1h26c.553 0 1-.448 1-1S36.553 35.465 36 35.465z"/><path d="M54.072 2.535 19.93 2.465c-3.27 0-5.93 2.66-5.93 5.93v5.124l-8.07.017c-3.27 0-5.93 2.66-5.93 5.93v21.141c0 3.27 2.66 5.929 5.93 5.929H12v10c0 .413.254.784.64.933.117.045.239.067.36.067.276 0 .547-.115.74-.327l9.704-10.675 16.626-.068c3.27 0 5.93-2.66 5.93-5.929v-.113l5.26 5.786c.193.212.464.327.74.327.121 0 .243-.022.36-.067.386-.149.64-.52.64-.933v-10h1.07c3.27 0 5.93-2.66 5.93-5.929V8.465C60 5.196 57.341 2.536 54.072 2.535zM44 40.536c0 2.167-1.763 3.929-3.934 3.929l-17.07.07c-.28.001-.548.12-.736.327L14 53.949v-8.414c0-.552-.447-1-1-1H5.93c-2.167 0-3.93-1.763-3.93-3.929V19.465c0-2.167 1.763-3.93 3.932-3.93l9.068-.019c0 0 0 0 0 0 .001 0 .001 0 .002 0l25.068-.052c2.167 0 3.93 1.763 3.93 3.93v18.441V40.536zM58 29.606c0 2.167-1.763 3.929-3.93 3.929H52c-.553 0-1 .448-1 1v8.414l-5-5.5V19.395c0-3.27-2.66-5.93-5.932-5.93L16 13.514v-5.12c0-2.167 1.763-3.93 3.928-3.93l34.141.07c.001 0 .001 0 .002 0 2.167 0 3.93 1.763 3.93 3.93V29.606z"/></symbol><symbol id="going" viewBox="0 0 92.9 92.9"><path d="M72.932 46.973 61.629 40.45c-.725-.418-1.601-1.531-1.837-2.334l-3.501-11.912c-.087-.298-.219-.564-.381-.798-.509-.936-1.49-1.572-2.627-1.572l-14.945.645c-.655.028-1.264.276-1.763.687-.1.061-.204.12-.294.189l-10.155 7.832c-1.173.905-1.83 2.745-1.494 4.188l4.021 17.3c.335 1.444 1.717 2.534 3.212 2.534.101 0 .203-.005.304-.015l1.501-.15c.804-.081 1.53-.489 1.99-1.121.461-.632.628-1.448.459-2.238L33.26 40.33c-.15-.701.23-1.738.798-2.175l1.809-1.393.93 21.444c.001.023.008.044.01.067l-4.128 9.156c-.52 1.153-1.826 2.75-2.852 3.489l-9.678 6.968c-1.559 1.122-2.148 3.366-1.342 5.11l1.324 2.861c.528 1.141 1.587 1.85 2.765 1.85.674 0 1.337-.229 1.917-.66l12.778-9.515c1.273-.948 2.843-2.793 3.574-4.202l6.379-12.286c.051-.099.083-.205.125-.308l.445-.019 10.441 28.786c.737 2.032 2.703 3.398 4.892 3.398.52 0 1.034-.079 1.528-.236l.644-.205c1.276-.405 2.301-1.282 2.887-2.47.585-1.188.656-2.536.2-3.794L57.711 55.885c-.051-.14-.121-.268-.182-.401l-.353-8.134 12.122 6.297c.426.222.906.339 1.389.339 1.122 0 2.149-.607 2.68-1.584l.721-1.328C74.872 49.633 74.353 47.793 72.932 46.973z"/><path d="M44.162 21.673c.157 0 .316-.003.475-.01 2.891-.125 5.561-1.37 7.517-3.503s2.964-4.901 2.839-7.792C54.735 4.397 49.745-.249 43.698.01c-2.891.125-5.561 1.37-7.517 3.503-1.956 2.134-2.964 4.901-2.839 7.792C33.594 17.119 38.347 21.673 44.162 21.673z"/></symbol><symbol id="share" viewBox="0 0 58.995 58.995"><path d="M39.927 41.929c-.524.524-.975 1.1-1.365 1.709l-17.28-10.489c.457-1.144.716-2.388.716-3.693 0-1.305-.259-2.549-.715-3.693l17.284-10.409C40.342 18.142 43.454 20 46.998 20c5.514 0 10-4.486 10-10s-4.486-10-10-10-10 4.486-10 10c0 1.256.243 2.454.667 3.562L20.358 23.985c-1.788-2.724-4.866-4.529-8.361-4.529-5.514 0-10 4.486-10 10s4.486 10 10 10c3.495 0 6.572-1.805 8.36-4.529L37.661 45.43c-.43 1.126-.664 2.329-.664 3.57 0 2.671 1.04 5.183 2.929 7.071 1.949 1.949 4.51 2.924 7.071 2.924s5.122-.975 7.071-2.924c1.889-1.889 2.929-4.4 2.929-7.071s-1.04-5.183-2.929-7.071C50.169 38.029 43.826 38.029 39.927 41.929zM46.998 2c4.411 0 8 3.589 8 8s-3.589 8-8 8-8-3.589-8-8S42.586 2 46.998 2zM11.998 37.456c-4.411 0-8-3.589-8-8s3.589-8 8-8 8 3.589 8 8S16.409 37.456 11.998 37.456zM52.654 54.657c-3.119 3.119-8.194 3.119-11.313 0-1.511-1.511-2.343-3.521-2.343-5.657s.832-4.146 2.343-5.657c1.56-1.56 3.608-2.339 5.657-2.339s4.097.779 5.657 2.339c1.511 1.511 2.343 3.521 2.343 5.657S54.166 53.146 52.654 54.657z"/></symbol><symbol id="list_view" viewBox="0 0 344.339 344.339"><g><g><rect y="46.06" width="344.339" height="29.52"/></g><g><rect y="156.506" width="344.339" height="29.52"/></g><g><rect y="268.748" width="344.339" height="29.531"/></g></g></symbol><symbol id="card_view" viewBox="0 0 341.333 341.333"><rect x="128" y="128" width="85.333" height="85.333"/><rect x="0" y="0" width="85.333" height="85.333"/><rect x="128" y="256" width="85.333" height="85.333"/><rect x="0" y="128" width="85.333" height="85.333"/><rect x="0" y="256" width="85.333" height="85.333"/><rect x="256" y="0" width="85.333" height="85.333"/><rect x="128" y="0" width="85.333" height="85.333"/><rect x="256" y="128" width="85.333" height="85.333"/><rect x="256" y="256" width="85.333" height="85.333"/></symbol><symbol id="user" viewBox="0 0 55 55"><path d="M55 27.5C55 12.337 42.663 0 27.5 0S0 12.337 0 27.5c0 8.009 3.444 15.228 8.926 20.258l-.026.023.892.752c.058.049.121.089.179.137.474.393.965.766 1.465 1.127.162.117.324.234.489.348.534.368 1.082.717 1.642 1.048.122.072.245.142.368.212.613.349 1.239.678 1.88.98.047.022.095.042.142.064 2.089.971 4.319 1.684 6.651 2.105.061.011.122.022.184.033.724.125 1.456.225 2.197.292.09.008.18.013.271.021C25.998 54.961 26.744 55 27.5 55c.749 0 1.488-.039 2.222-.098.093-.008.186-.013.279-.021.735-.067 1.461-.164 2.178-.287.062-.011.125-.022.187-.034 2.297-.412 4.495-1.109 6.557-2.055.076-.035.153-.068.229-.104.617-.29 1.22-.603 1.811-.936.147-.083.293-.167.439-.253.538-.317 1.067-.648 1.581-1 .185-.126.366-.259.549-.391.439-.316.87-.642 1.289-.983.093-.075.193-.14.284-.217l.915-.764-.027-.023C51.523 42.802 55 35.55 55 27.5zM2 27.5C2 13.439 13.439 2 27.5 2S53 13.439 53 27.5c0 7.577-3.325 14.389-8.589 19.063-.294-.203-.59-.385-.893-.537l-8.467-4.233c-.76-.38-1.232-1.144-1.232-1.993v-2.957c.196-.242.403-.516.617-.817 1.096-1.548 1.975-3.27 2.616-5.123 1.267-.602 2.085-1.864 2.085-3.289v-3.545c0-.867-.318-1.708-.887-2.369v-4.667c.052-.519.236-3.448-1.883-5.864C34.524 9.065 31.541 8 27.5 8s-7.024 1.065-8.867 3.168c-2.119 2.416-1.935 5.345-1.883 5.864v4.667c-.568.661-.887 1.502-.887 2.369v3.545c0 1.101.494 2.128 1.34 2.821.81 3.173 2.477 5.575 3.093 6.389v2.894c0 .816-.445 1.566-1.162 1.958l-7.907 4.313c-.252.137-.502.297-.752.476C5.276 41.792 2 35.022 2 27.5zM42.459 48.132c-.35.254-.706.5-1.067.735-.166.108-.331.216-.5.321-.472.292-.952.57-1.442.83-.108.057-.217.111-.326.167-1.126.577-2.291 1.073-3.488 1.476-.042.014-.084.029-.127.043-.627.208-1.262.393-1.904.552-.002 0-.004.001-.006.001-.648.16-1.304.293-1.964.402-.018.003-.036.007-.054.01-.621.101-1.247.174-1.875.229-.111.01-.222.017-.334.025C28.751 52.97 28.127 53 27.5 53c-.634 0-1.266-.031-1.895-.078-.109-.008-.218-.015-.326-.025-.634-.056-1.265-.131-1.89-.233-.028-.005-.056-.01-.084-.015-1.322-.221-2.623-.546-3.89-.971-.039-.013-.079-.027-.118-.04-.629-.214-1.251-.451-1.862-.713-.004-.002-.009-.004-.013-.006-.578-.249-1.145-.525-1.705-.816-.073-.038-.147-.074-.219-.113-.511-.273-1.011-.568-1.504-.876-.146-.092-.291-.185-.435-.279-.454-.297-.902-.606-1.338-.933-.045-.034-.088-.07-.133-.104.032-.018.064-.036.096-.054l7.907-4.313c1.36-.742 2.205-2.165 2.205-3.714l-.001-3.602-.23-.278c-.022-.025-2.184-2.655-3.001-6.216l-.091-.396-.341-.221c-.481-.311-.769-.831-.769-1.392v-3.545c0-.465.197-.898.557-1.223l.33-.298v-5.57l-.009-.131c-.003-.024-.298-2.429 1.396-4.36C21.583 10.837 24.061 10 27.5 10c3.426 0 5.896.83 7.346 2.466 1.692 1.911 1.415 4.361 1.413 4.381l-.009 5.701.33.298c.359.324.557.758.557 1.223v3.545c0 .713-.485 1.36-1.181 1.575l-.497.153-.16.495c-.59 1.833-1.43 3.526-2.496 5.032-.262.37-.517.698-.736.949l-.248.283V39.8c0 1.612.896 3.062 2.338 3.782l8.467 4.233c.054.027.107.055.16.083C42.677 47.979 42.567 48.054 42.459 48.132z"/></symbol><symbol id="remove" viewBox="0 0 212.982 212.982"><path style="fill-rule:evenodd;clip-rule:evenodd;" d="M131.804 106.491l75.936-75.936c6.99-6.99 6.99-18.323 0-25.312-6.99-6.99-18.322-6.99-25.312 0l-75.937 75.937L30.554 5.242c-6.99-6.99-18.322-6.99-25.312 0-6.989 6.99-6.989 18.323 0 25.312l75.937 75.936L5.242 182.427c-6.989 6.99-6.989 18.323 0 25.312 6.99 6.99 18.322 6.99 25.312 0l75.937-75.937 75.937 75.937c6.989 6.99 18.322 6.99 25.312 0 6.99-6.99 6.99-18.322 0-25.312L131.804 106.491z"/></symbol><symbol id="bot" viewBox="0 0 463 463"><g xmlns="http://www.w3.org/2000/svg"><path d="M439.5 88c-10.336 0-19.128 6.71-22.266 16h-10.526C404.776 78.555 393.08 56.141 375 43.449V39.5C375 17.72 357.28 0 335.5 0h-208C105.72 0 88 17.72 88 39.5v3.949C69.92 56.141 58.224 78.555 56.292 104H45.766c-3.138-9.29-11.93-16-22.266-16C10.542 88 0 98.542 0 111.5S10.542 135 23.5 135c10.336 0 19.128-6.71 22.266-16h10.526C58.224 144.445 69.92 166.859 88 179.551v3.949c0 21.78 17.72 39.5 39.5 39.5H208v17h-40.5c-11.38 0-20.895 8.132-23.043 18.89-20.806 12.364-35.728 31.894-43.259 56.747-4.026 13.287-4.992 24.909-5.186 31.222l-11.865 5.932C81.605 354.062 80 356.659 80 359.5v24c0 2.841 1.605 5.438 4.146 6.708l16 8c1.077.539 2.221.793 3.348.793 2.751 0 5.4-1.52 6.714-4.147 1.853-3.705.351-8.21-3.354-10.062L95 378.865v-14.729l8.5-4.25 8.5 4.25V375.5c0 4.142 3.358 7.5 7.5 7.5s7.5-3.358 7.5-7.5v-16c0-2.841-1.605-5.438-4.146-6.708l-11.831-5.915c.466-12.524 4.575-49.786 36.021-71.831 4.04 7.13 11.693 11.955 20.456 11.955H184v40.5c0 16.981 8.963 31.9 22.4 40.3-4.566 7.789-12.675 24.675-14.156 48.2H175.5c-17.369 0-31.5 14.131-31.5 31.5v8c0 4.142 3.358 7.5 7.5 7.5h56c4.142 0 7.5-3.358 7.5-7.5v-32c0-4.142-3.358-7.5-7.5-7.5h-.218c1.629-22.226 10.054-37.465 13.108-42.325 3.566.858 7.283 1.325 11.109 1.325 3.825 0 7.542-.467 11.108-1.325 3.069 4.885 11.482 20.118 13.11 42.325H255.5c-4.142 0-7.5 3.358-7.5 7.5v32c0 4.142 3.358 7.5 7.5 7.5h56c4.142 0 7.5-3.358 7.5-7.5v-8c0-17.369-14.131-31.5-31.5-31.5h-16.743c-1.482-23.525-9.591-40.411-14.156-48.2 13.437-8.4 22.4-23.319 22.4-40.3V287h16.5c8.761 0 16.412-4.822 20.452-11.948 14.907 10.398 25.444 25.304 31.35 44.462 3.571 11.584 4.468 21.858 4.672 27.364l-11.829 5.914c-2.541 1.27-4.146 3.867-4.146 6.708v16c0 4.142 3.358 7.5 7.5 7.5s7.5-3.358 7.5-7.5v-11.365l8.5-4.25 8.5 4.25v14.729l-11.854 5.927c-3.705 1.852-5.207 6.357-3.354 10.062 1.314 2.628 3.962 4.148 6.714 4.147 1.127 0 2.271-.255 3.348-.793l16-8c2.541-1.27 4.146-3.867 4.146-6.708v-24c0-2.841-1.605-5.438-4.146-6.708l-11.865-5.932c-.195-6.313-1.16-17.935-5.186-31.222-7.531-24.853-22.454-44.383-43.259-56.747C316.395 248.132 306.88 240 295.5 240H255v-17h80.5c21.78 0 39.5-17.72 39.5-39.5v-3.949c18.08-12.692 29.776-35.106 31.708-60.551h10.526c3.138 9.29 11.93 16 22.266 16 12.958 0 23.5-10.542 23.5-23.5S452.458 88 439.5 88zM200 448h-41v-.5c0-9.098 7.402-16.5 16.5-16.5H200V448zM304 447.5v.5h-41v-17h24.5C296.598 431 304 438.402 304 447.5zM23.5 120c-4.687 0-8.5-3.813-8.5-8.5s3.813-8.5 8.5-8.5 8.5 3.813 8.5 8.5S28.187 120 23.5 120zM71 111.5c0-18.637 6.4-36.124 17-48.024v96.047C77.4 147.624 71 130.137 71 111.5zM159.001 263.523c0-.01-.001-.02-.001-.03.004-4.684 3.815-8.493 8.5-8.493H224v17h-56.5C162.821 272 159.014 268.199 159.001 263.523zM264 327.5c0 17.92-14.58 32.5-32.5 32.5S199 345.42 199 327.5V287h65V327.5zM304 263.493c0 .01-.001.02-.001.03-.013 4.676-3.82 8.477-8.499 8.477H239v-17h56.5C300.185 255 303.996 258.809 304 263.493zM240 240h-17v-17h17V240zM360 183.5c0 13.509-10.991 24.5-24.5 24.5h-208c-13.509 0-24.5-10.991-24.5-24.5v-144c0-13.509 10.991-24.5 24.5-24.5h208c13.509 0 24.5 10.991 24.5 24.5V183.5zM375 159.524V63.476c10.6 11.899 17 29.387 17 48.024S385.6 147.624 375 159.524zM439.5 120c-4.687 0-8.5-3.813-8.5-8.5s3.813-8.5 8.5-8.5 8.5 3.813 8.5 8.5S444.187 120 439.5 120z"/><path d="M335.5 32h-208c-4.142 0-7.5 3.358-7.5 7.5v144c0 4.142 3.358 7.5 7.5 7.5h208c4.142 0 7.5-3.358 7.5-7.5v-144C343 35.358 339.642 32 335.5 32zM328 176H135V47h193V176z"/><path d="M191.5 159c12.958 0 23.5-10.542 23.5-23.5v-48c0-12.958-10.542-23.5-23.5-23.5S168 74.542 168 87.5v48C168 148.458 178.542 159 191.5 159zM183 87.5c0-4.687 3.813-8.5 8.5-8.5s8.5 3.813 8.5 8.5v48c0 4.687-3.813 8.5-8.5 8.5s-8.5-3.813-8.5-8.5V87.5z"/><path d="M271.5 159c12.958 0 23.5-10.542 23.5-23.5v-48c0-12.958-10.542-23.5-23.5-23.5S248 74.542 248 87.5v48C248 148.458 258.542 159 271.5 159zM263 87.5c0-4.687 3.813-8.5 8.5-8.5s8.5 3.813 8.5 8.5v48c0 4.687-3.813 8.5-8.5 8.5s-8.5-3.813-8.5-8.5V87.5z"/></g></symbol><symbol id="location" viewBox="0 0 54.757 54.757"><path d="M27.557 12c-3.859 0-7 3.141-7 7s3.141 7 7 7 7-3.141 7-7S31.416 12 27.557 12zM27.557 24c-2.757 0-5-2.243-5-5s2.243-5 5-5 5 2.243 5 5S30.314 24 27.557 24z"/><path d="M40.94 5.617C37.318 1.995 32.502 0 27.38 0c-5.123 0-9.938 1.995-13.56 5.617-6.703 6.702-7.536 19.312-1.804 26.952L27.38 54.757 42.721 32.6C48.476 24.929 47.643 12.319 40.94 5.617zM41.099 31.431 27.38 51.243 13.639 31.4C8.44 24.468 9.185 13.08 15.235 7.031 18.479 3.787 22.792 2 27.38 2s8.901 1.787 12.146 5.031C45.576 13.08 46.321 24.468 41.099 31.431z"/></symbol><symbol id="time" viewBox="0 0 60 60"><path d="M30 0C13.458 0 0 13.458 0 30s13.458 30 30 30 30-13.458 30-30S46.542 0 30 0zM30 58C14.561 58 2 45.439 2 30S14.561 2 30 2s28 12.561 28 28S45.439 58 30 58z"/><path d="M30 6c-.552 0-1 .447-1 1v23H14c-.552 0-1 .447-1 1s.448 1 1 1h16c.552 0 1-.447 1-1V7C31 6.447 30.552 6 30 6z"/></symbol><symbol id="check" viewBox="0 0 329.954 329.954"><path xmlns="http://www.w3.org/2000/svg" id="XMLID_89_" d="M99.85 299.045c2.813 2.813 6.629 4.393 10.607 4.393 3.979 0 7.794-1.581 10.606-4.393L325.56 94.548c2.814-2.813 4.394-6.628 4.394-10.606 0-3.979-1.58-7.794-4.394-10.607l-42.427-42.426c-5.857-5.857-15.355-5.858-21.213 0L110.461 182.37l-42.428-42.428c-2.813-2.813-6.629-4.394-10.607-4.394s-7.793 1.581-10.606 4.394L4.393 182.369c-5.857 5.858-5.857 15.355 0 21.213L99.85 299.045Z"/></symbol><symbol id="remove" viewBox="0 0 284.559 284.559"><path id="XMLID_90_" d="M4.394 237.739l42.427 42.427c2.812 2.813 6.629 4.394 10.606 4.394 3.978 0 7.794-1.581 10.606-4.394l74.246-74.246 74.246 74.246c2.813 2.813 6.629 4.394 10.606 4.394 3.978 0 7.794-1.581 10.607-4.394l42.427-42.427c5.858-5.858 5.858-15.355 0-21.213L205.92 142.28l74.245-74.247c2.814-2.813 4.394-6.628 4.394-10.606 0-3.979-1.58-7.794-4.394-10.607L237.739 4.393c-5.857-5.858-15.356-5.858-21.213.001L142.28 78.639 68.033 4.394c-5.857-5.858-15.356-5.858-21.213 0L4.394 46.82C1.58 49.633 0 53.448 0 57.426c0 3.978 1.58 7.793 4.394 10.606l74.245 74.247L4.394 216.526C-1.465 222.384-1.465 231.881 4.394 237.739z"/></symbol><symbol id="phone" viewBox="0 0 35 35"><path xmlns="http://www.w3.org/2000/svg" d="M25.302 0H9.698c-1.3 0-2.364 1.063-2.364 2.364v30.271C7.334 33.936 8.398 35 9.698 35h15.604c1.3 0 2.364-1.062 2.364-2.364V2.364C27.666 1.063 26.602 0 25.302 0zM15.004 1.704h4.992c.158 0 .286.128.286.287 0 .158-.128.286-.286.286h-4.992c-.158 0-.286-.128-.286-.286C14.718 1.832 14.846 1.704 15.004 1.704zM17.5 33.818c-.653 0-1.182-.529-1.182-1.183s.529-1.182 1.182-1.182 1.182.528 1.182 1.182S18.153 33.818 17.5 33.818zM26.021 30.625H8.979V3.749h17.042V30.625z"/></symbol><symbol id="url" viewBox="0 0 470 470"><path d="m432.5 227.5h-77.031c-.611-37.438-5.782-73.616-14.771-105.694h50.518c4.143 0 7.5-3.357 7.5-7.5s-3.357-7.5-7.5-7.5h-55.112c-8.018-24.165-18.316-45.521-30.553-62.656-2.408-3.371-7.093-4.153-10.462-1.745-3.371 2.407-4.152 7.092-1.745 10.462 10.618 14.868 19.688 33.199 26.965 53.939h-77.809v-69.306c0-4.143-3.357-7.5-7.5-7.5s-7.5 3.357-7.5 7.5v69.306h-77.81c7.277-20.74 16.347-39.071 26.965-53.939 2.407-3.37 1.626-8.055-1.745-10.462-3.372-2.407-8.055-1.625-10.462 1.745-12.237 17.135-22.535 38.492-30.553 62.656h-55.112c-4.143 0-7.5 3.357-7.5 7.5s3.357 7.5 7.5 7.5h50.518c-8.988 32.078-14.159 68.256-14.771 105.694h-77.03c-4.143 0-7.5 3.357-7.5 7.5s3.357 7.5 7.5 7.5h77.031c.611 37.438 5.782 73.616 14.771 105.694h-50.519c-4.143 0-7.5 3.357-7.5 7.5s3.357 7.5 7.5 7.5h55.112c8.019 24.169 18.32 45.529 30.56 62.666 1.464 2.049 3.77 3.142 6.11 3.142 1.508 0 3.031-.454 4.353-1.397 3.37-2.408 4.151-7.092 1.744-10.463-10.621-14.869-19.693-33.204-26.972-53.947h77.81v69.305c0 4.143 3.357 7.5 7.5 7.5s7.5-3.357 7.5-7.5v-69.306h77.81c-7.278 20.744-16.351 39.078-26.972 53.947-2.407 3.371-1.626 8.055 1.744 10.463 1.321.943 2.844 1.397 4.353 1.397 2.341 0 4.646-1.093 6.11-3.142 12.24-17.137 22.54-38.497 30.56-62.666h55.112c4.143 0 7.5-3.357 7.5-7.5s-3.357-7.5-7.5-7.5h-50.519c8.989-32.078 14.16-68.256 14.771-105.694h77.031c4.143 0 7.5-3.357 7.5-7.5s-3.357-7.499-7.5-7.499zm-107.36-105.694c9.313 31.683 14.695 67.958 15.326 105.694h-97.966v-105.694h82.64zm-180.28 0h82.64v105.694h-97.966c.632-37.737 6.013-74.011 15.326-105.694zm0 226.388c-9.313-31.683-14.695-67.958-15.326-105.694h97.966v105.694h-82.64zm180.28 0h-82.64v-105.694h97.966c-.632 37.737-6.013 74.012-15.326 105.694z"/><path d="M401.17 68.83C356.784 24.444 297.771 0 235 0S113.216 24.444 68.83 68.83 0 172.229 0 235.001c0 46.271 13.391 90.899 38.764 129.316l-28.718 86.148c-.898 2.695-.197 5.667 1.812 7.676 2.009 2.008 4.979 2.708 7.676 1.812l86.15-28.716C144.102 456.609 188.729 470 235 470c62.771 0 121.784-24.444 166.17-68.83S470 297.771 470 235.001C470 172.229 445.556 113.216 401.17 68.83zM235 455c-44.491 0-87.355-13.222-123.961-38.235-1.262-.862-2.739-1.308-4.231-1.308-.797 0-1.598.127-2.372.385L29.02 440.979l25.14-75.414c.741-2.225.399-4.668-.923-6.604C28.222 322.357 15 279.492 15 235.001 15 113.692 113.691 15 235 15s220 98.692 220 220.001C455 356.309 356.309 455 235 455z"/></symbol><symbol id="clock" viewBox="0 0 60 60"><path d="M30 0C13.458 0 0 13.458 0 30s13.458 30 30 30 30-13.458 30-30S46.542 0 30 0zM30 58C14.561 58 2 45.439 2 30S14.561 2 30 2s28 12.561 28 28S45.439 58 30 58z"/><path d="M31 26.021V15.879c0-.553-.448-1-1-1s-1 .447-1 1v10.142c-1.399.364-2.494 1.459-2.858 2.858H19c-.552 0-1 .447-1 1s.448 1 1 1h7.142c.447 1.72 2 3 3.858 3 2.206 0 4-1.794 4-4C34 28.02 32.72 26.468 31 26.021zM30 31.879c-1.103 0-2-.897-2-2s.897-2 2-2 2 .897 2 2S31.103 31.879 30 31.879z"/><path d="M30 9.879c.552 0 1-.447 1-1v-1c0-.553-.448-1-1-1s-1 .447-1 1v1C29 9.432 29.448 9.879 30 9.879z"/><path d="M30 49.879c-.552 0-1 .447-1 1v1c0 .553.448 1 1 1s1-.447 1-1v-1C31 50.326 30.552 49.879 30 49.879z"/><path d="M52 28.879h-1c-.552 0-1 .447-1 1s.448 1 1 1h1c.552 0 1-.447 1-1S52.552 28.879 52 28.879z"/><path d="M9 28.879H8c-.552 0-1 .447-1 1s.448 1 1 1h1c.552 0 1-.447 1-1S9.552 28.879 9 28.879z"/><path d="M44.849 13.615l-.707.707c-.391.391-.391 1.023 0 1.414.195.195.451.293.707.293s.512-.098.707-.293l.707-.707c.391-.391.391-1.023 0-1.414S45.24 13.225 44.849 13.615z"/><path d="M14.444 44.021l-.707.707c-.391.391-.391 1.023 0 1.414.195.195.451.293.707.293s.512-.098.707-.293l.707-.707c.391-.391.391-1.023 0-1.414S14.834 43.631 14.444 44.021z"/><path d="M45.556 44.021c-.391-.391-1.023-.391-1.414 0s-.391 1.023 0 1.414l.707.707c.195.195.451.293.707.293s.512-.098.707-.293c.391-.391.391-1.023 0-1.414L45.556 44.021z"/><path d="M15.151 13.615c-.391-.391-1.023-.391-1.414 0s-.391 1.023 0 1.414l.707.707c.195.195.451.293.707.293s.512-.098.707-.293c.391-.391.391-1.023 0-1.414L15.151 13.615z"/></symbol><symbol id="location" viewBox="0 0 60 60"><path d="M30 26c3.86 0 7-3.141 7-7s-3.14-7-7-7-7 3.141-7 7S26.14 26 30 26zM30 14c2.757 0 5 2.243 5 5s-2.243 5-5 5-5-2.243-5-5S27.243 14 30 14z"/><path d="M29.823 54.757 45.164 32.6c5.754-7.671 4.922-20.28-1.781-26.982C39.761 1.995 34.945 0 29.823 0s-9.938 1.995-13.56 5.617c-6.703 6.702-7.535 19.311-1.804 26.952L29.823 54.757zM17.677 7.031C20.922 3.787 25.235 2 29.823 2s8.901 1.787 12.146 5.031c6.05 6.049 6.795 17.437 1.573 24.399L29.823 51.243 16.082 31.4C10.882 24.468 11.628 13.08 17.677 7.031z"/><path d="M42.117 43.007c-.55-.067-1.046.327-1.11.876s.328 1.046.876 1.11C52.399 46.231 58 49.567 58 51.5c0 2.714-10.652 6.5-28 6.5S2 54.214 2 51.5c0-1.933 5.601-5.269 16.117-6.507.548-.064.94-.562.876-1.11-.065-.549-.561-.945-1.11-.876C7.354 44.247 0 47.739 0 51.5 0 55.724 10.305 60 30 60s30-4.276 30-8.5C60 47.739 52.646 44.247 42.117 43.007z"/></symbol><sybol id="to-phone" viewBox="0 0 29.999 29.999"><path xmlns="http://www.w3.org/2000/svg" d="M12.998 6.235l2.961 2.962 7.639-7.636c.48-.48 1.266-.48 1.748.001l2.768 2.77c.48.479.48 1.267 0 1.748l-7.635 7.634 3.023 3.026c.479.479.319.93-.355.995l-11.155 1.116c-.675.066-1.173-.43-1.104-1.105l1.116-11.154C12.067 5.915 12.518 5.755 12.998 6.235zM25.045 13.439l4.397 4.398c.742.74.742 1.955 0 2.697l-8.907 8.907c-.74.742-1.957.742-2.697.001L.557 12.161c-.742-.741-.742-1.956 0-2.697l8.906-8.907c.742-.742 1.957-.742 2.699-.001l4.221 4.222-.938.939-3.432-3.431-9.729 9.729 15.342 15.342 9.729-9.728-3.25-3.251L25.045 13.439zM4.559 7.734c.09.091.236.091.326-.001l2.85-2.848c.091-.092.091-.237 0-.327-.09-.091-.235-.091-.325 0L4.559 7.408C4.469 7.499 4.466 7.646 4.559 7.734zM24.313 22.967c-.373-.373-.978-.373-1.351 0s-.373.977 0 1.35c.373.372.978.372 1.351 0C24.688 23.943 24.688 23.338 24.313 22.967z"/></sybol><symbol id="share" viewBox="0 0 59 59"><path xmlns="http://www.w3.org/2000/svg" d="M47 39c-2.671 0-5.182 1.04-7.071 2.929-.524.524-.975 1.1-1.365 1.709l-17.28-10.489C21.741 32.005 22 30.761 22 29.456c0-1.305-.259-2.549-.715-3.693l17.284-10.409C40.345 18.142 43.456 20 47 20c5.514 0 10-4.486 10-10S52.514 0 47 0 37 4.486 37 10c0 1.256.243 2.454.667 3.562L20.361 23.985c-1.788-2.724-4.866-4.529-8.361-4.529-5.514 0-10 4.486-10 10s4.486 10 10 10c3.495 0 6.572-1.805 8.36-4.529L37.664 45.43C37.234 46.556 37 47.759 37 49c0 2.671 1.04 5.183 2.929 7.071C41.818 57.96 44.329 59 47 59s5.182-1.04 7.071-2.929C55.96 54.183 57 51.671 57 49s-1.04-5.183-2.929-7.071C52.182 40.04 49.671 39 47 39z"/></symbol></svg>