<!DOCTYPE svg PUBLIC "-//W3C//DTD SVG 1.1//EN" "http://www.w3.org/Graphics/SVG/1.1/DTD/svg11.dtd"><svg xmlns="http://www.w3.org/2000/svg"><symbol id="afisha-logo"><path d="M36.0126949 19.9854092C36.0126949 16.2553785 32.98934 14.6753169 29.5946959 14.6753169L2.00731906 14.6753169 2.00437232 19.9281169 22.9704251 19.9281169C24.5881852 19.9281169 25.9083245 20.5492862 25.9083245 22.4731015L25.9171648 23.4500862 5.94121653 23.4500862C2.45522349 23.4500862.424919861 26.0342708.424919861 28.8777785L.424919861 35.1708862C.424919861 37.7158708 2.32556695 40.76744 5.94121653 40.76744L35.9950144 40.76744 36.0126949 19.9854092ZM10.4968761 31.4046708C10.4968761 30.0115631 11.2482947 28.8174708 13.4170951 28.8174708L25.9171648 28.8174708 25.9171648 35.1105785 13.4760299 35.1105785C11.0272892 35.1105785 10.4968761 33.5817785 10.4968761 32.7796862L10.4968761 31.4046708Z"/></symbol><symbol id="menu-events" x="0px" y="0px" viewBox="0 0 58 58"><path d="M46 34c-6.617 0-12 5.383-12 12s5.383 12 12 12 12-5.383 12-12S52.617 34 46 34zM46 56c-5.514 0-10-4.486-10-10s4.486-10 10-10 10 4.486 10 10S51.514 56 46 56z"/><path d="M52 45h-5v-5c0-.553-.447-1-1-1s-1 .447-1 1v6c0 .553.447 1 1 1h6c.553 0 1-.447 1-1S52.553 45 52 45z"/><path d="M27 21h-2-7-2H7v9 2 7 2 9h9 2 9v-9-2-7h7 2 9V21h-9-2H27zM36 23h7v7h-7V23zM18 23h7v7h-7V23zM9 23h7v7H9V23zM9 32h7v7H9V32zM16 48H9v-7h7V48zM25 48h-7v-7h7V48zM25 39h-7v-7h7V39zM34 30h-7v-7h7V30z"/><path d="M33 55H2V16h48v13c0 .553.447 1 1 1s1-.447 1-1V15 5c0-.553-.447-1-1-1h-5V1c0-.553-.447-1-1-1h-7c-.553 0-1 .447-1 1v3H15V1c0-.553-.447-1-1-1H7C6.447 0 6 .447 6 1v3H1C.447 4 0 4.447 0 5v10 41c0 .553.447 1 1 1h32c.553 0 1-.447 1-1S33.553 55 33 55zM39 2h5v3 3h-5V5 2zM8 2h5v3 3H8V5 2zM2 6h4v3c0 .553.447 1 1 1h7c.553 0 1-.447 1-1V6h22v3c0 .553.447 1 1 1h7c.553 0 1-.447 1-1V6h4v8H2V6z"/></symbol><symbol id="menu-events-fav"><path d="M58.963 44.119c-.116-.367-.434-.634-.814-.688l-7.777-1.089-3.472-6.78c-.342-.668-1.438-.668-1.779 0l-3.472 6.78-7.777 1.089c-.381.054-.698.32-.814.688s-.012.768.269 1.031l5.605 5.267-1.321 7.427c-.066.373.084.752.388.978.305.227.711.262 1.049.089l6.964-3.528 6.964 3.528c.143.073.298.108.452.108.211 0 .421-.066.597-.197.304-.226.454-.604.388-.978l-1.321-7.427 5.605-5.267C58.974 44.887 59.079 44.486 58.963 44.119zM51.325 49.33c-.246.231-.359.571-.3.903l1.064 5.987-5.628-2.852c-.143-.072-.297-.108-.452-.108s-.31.036-.452.108l-5.628 2.852 1.064-5.987c.06-.332-.054-.672-.3-.903l-4.479-4.207 6.225-.872c.322-.045.603-.244.751-.534l2.818-5.504 2.818 5.504c.148.29.429.489.751.534l6.225.872L51.325 49.33z"/><path d="M36.01 32h9V21h-9-2-7-2-7-2-9v9 2 7 2 9h9 2 9v-9h9V32zM36.01 23h7v7h-7V23zM27.01 23h7v7h-7V23zM18.01 23h7v7h-7V23zM25.01 39h-7v-7h7V39zM9.01 23h7v7h-7V23zM9.01 32h7v7h-7V32zM16.01 48h-7v-7h7V48zM25.01 48h-7v-7h7V48zM34.01 39h-7v-7h7V39z"/><path d="M26.01 55h-24V16h48v17c0 .553.447 1 1 1s1-.447 1-1V15 5c0-.553-.447-1-1-1h-5V1c0-.553-.447-1-1-1h-7c-.553 0-1 .447-1 1v3h-22V1c0-.553-.447-1-1-1h-7c-.553 0-1 .447-1 1v3h-5c-.553 0-1 .447-1 1v10 41c0 .553.447 1 1 1h25c.553 0 1-.447 1-1S26.562 55 26.01 55zM39.01 2h5v3 3h-5V5 2zM8.01 2h5v3 3h-5V5 2zM2.01 6h4v3c0 .553.447 1 1 1h7c.553 0 1-.447 1-1V6h22v3c0 .553.447 1 1 1h7c.553 0 1-.447 1-1V6h4v8h-48V6z"/></symbol><symbol id="menu-events-like"><path d="M55.955 41.109c-.399-4.089-3.452-7.052-7.271-7.052-2.396 0-4.407 1.449-5.684 3.213-1.276-1.764-3.288-3.213-5.684-3.213-3.819 0-6.871 2.963-7.271 7.052-.042.267-.145 1.22.226 2.709.546 2.197 1.801 4.192 3.631 5.77l8.329 7.127c.223.191.496.287.769.287.273 0 .546-.096.769-.286l8.331-7.129c1.828-1.575 3.083-3.57 3.629-5.768C56.099 42.329 55.997 41.377 55.955 41.109zM53.788 43.337c-.445 1.794-1.479 3.432-2.99 4.732l-7.797 6.672-7.795-6.671c-1.513-1.303-2.547-2.94-2.992-4.734-.302-1.213-.194-1.897-.194-1.897l.016-.105c.245-2.621 2.138-5.275 5.282-5.275 2.189 0 3.974 1.811 4.77 3.605l.914 2.061.914-2.061c.796-1.795 2.58-3.605 4.77-3.605 3.145 0 5.037 2.654 5.295 5.366C53.982 41.431 54.092 42.115 53.788 43.337z"/><path d="M37.001 32h9V21h-9-2-7-2-7-2-9v9 2 7 2 9h9 2 9v-9-2-7h7H37.001zM37.001 23h7v7h-7V23zM19.001 23h7v7h-7V23zM10.001 23h7v7h-7V23zM10.001 32h7v7h-7V32zM17.001 48h-7v-7h7V48zM26.001 48h-7v-7h7V48zM26.001 39h-7v-7h7V39zM28.001 30v-7h7v7H28.001z"/><path d="M27.001 55h-24V16h48v13c0 .553.447 1 1 1s1-.447 1-1V15 5c0-.553-.447-1-1-1h-5V1c0-.553-.447-1-1-1h-7c-.553 0-1 .447-1 1v3h-22V1c0-.553-.447-1-1-1h-7c-.553 0-1 .447-1 1v3h-5c-.553 0-1 .447-1 1v10 41c0 .553.447 1 1 1h25c.553 0 1-.447 1-1S27.554 55 27.001 55zM40.001 2h5v3 3h-5V5 2zM9.001 2h5v3 3h-5V5 2zM3.001 6h4v3c0 .553.447 1 1 1h7c.553 0 1-.447 1-1V6h22v3c0 .553.447 1 1 1h7c.553 0 1-.447 1-1V6h4v8h-48V6z"/></symbol><symbol id="menu-movies" x="0px" y="0px" viewBox="0 0 59 59"><path d="M58 57c-4.411 0-8-3.589-8-8 0-.009-.005-.017-.005-.026C54.949 43.769 58 36.736 58 29 58 13.01 44.99 0 29 0S0 13.01 0 29s13.01 29 29 29c7.34 0 14.048-2.747 19.162-7.26C48.989 55.426 53.081 59 58 59c.553 0 1-.447 1-1S58.553 57 58 57zM2 29C2 14.112 14.112 2 29 2s27 12.112 27 27S43.888 56 29 56 2 43.888 2 29z"/><path d="M29 4C15.215 4 4 15.215 4 29s11.215 25 25 25 25-11.215 25-25S42.785 4 29 4zM29 52C16.317 52 6 41.683 6 29S16.317 6 29 6s23 10.317 23 23S41.683 52 29 52z"/><path d="M41 22c-.332 0-.656.031-.976.076l-.023-.041-.75.192c-.01.003-.019.007-.029.01-.369.097-.727.22-1.07.374-.015.007-.029.015-.044.021-.336.153-.659.328-.964.531-.008.005-.017.01-.024.015-.282.189-.546.402-.797.629-.051.046-.102.091-.152.138-.232.222-.45.459-.65.711-.043.054-.082.11-.124.165-.199.266-.385.541-.545.834-.003.006-.007.012-.01.019-.161.297-.294.611-.412.932-.021.057-.043.114-.063.172-.106.315-.189.64-.25.973-.011.062-.019.125-.029.188C34.036 28.286 34 28.638 34 29s.036.714.089 1.062c.01.063.017.125.029.188.06.333.144.658.25.973.019.058.042.114.063.171.117.321.251.635.412.932.003.006.007.012.01.019.16.293.346.568.544.833.041.055.081.111.124.166.2.252.417.489.65.711.05.047.101.092.152.138.252.227.515.44.798.629.008.005.016.01.024.015.305.202.628.377.964.531.015.007.029.015.044.021.343.154.7.277 1.069.374.01.003.019.007.029.01l.75.192.023-.041C40.344 35.969 40.668 36 41 36c3.859 0 7-3.141 7-7S44.859 22 41 22zM40 29c0 1.579-.344 3.146-.999 4.577-.25-.11-.488-.241-.714-.388-.081-.052-.154-.112-.232-.169-.163-.12-.32-.248-.468-.386-.068-.063-.135-.127-.198-.193-.168-.177-.324-.365-.466-.564-.025-.036-.055-.067-.08-.104-.159-.237-.293-.491-.41-.754-.033-.075-.059-.154-.089-.231-.078-.203-.144-.412-.195-.627-.021-.086-.043-.172-.059-.26C36.037 29.608 36 29.308 36 29s.037-.608.091-.901c.016-.088.038-.174.059-.26.051-.215.117-.424.195-.627.03-.077.056-.156.089-.231.117-.263.251-.517.41-.754.024-.036.055-.068.08-.104.141-.2.297-.388.466-.564.064-.067.131-.13.198-.193.147-.139.304-.266.468-.386.077-.056.151-.116.232-.169.227-.147.464-.278.714-.388C39.656 25.854 40 27.421 40 29zM41 34c-.005 0-.009-.001-.014-.001C41.645 32.419 42 30.718 42 29s-.355-3.419-1.014-4.999C40.991 24.001 40.995 24 41 24c2.757 0 5 2.243 5 5S43.757 34 41 34z"/><path d="M22.479 33.344c.043-.054.082-.11.124-.165.198-.265.384-.54.544-.832.004-.007.008-.014.012-.022.161-.297.294-.61.411-.931.021-.057.043-.113.063-.171.106-.315.19-.64.25-.974.011-.062.019-.125.029-.187C23.964 29.715 24 29.362 24 29s-.036-.715-.089-1.062c-.01-.063-.017-.125-.029-.187-.06-.333-.144-.658-.25-.974-.019-.058-.042-.114-.063-.172-.117-.321-.25-.634-.411-.93-.004-.007-.008-.014-.012-.022-.16-.292-.346-.568-.544-.833-.041-.055-.081-.111-.123-.165-.2-.252-.417-.489-.65-.711-.05-.047-.101-.092-.152-.138-.252-.227-.515-.44-.798-.629-.008-.005-.016-.009-.024-.014-.305-.202-.628-.377-.964-.531-.015-.007-.03-.015-.045-.022-.343-.153-.701-.277-1.07-.374-.01-.003-.019-.007-.028-.01l-.75-.192-.023.041C17.656 22.031 17.332 22 17 22c-3.859 0-7 3.141-7 7s3.141 7 7 7c.332 0 .656-.031.976-.076l.023.041.75-.192c.01-.003.019-.007.029-.01.369-.097.727-.22 1.069-.374.015-.007.03-.015.045-.022.336-.153.659-.329.964-.531.008-.005.016-.009.023-.014.283-.189.546-.402.798-.629.051-.046.102-.091.152-.138C22.061 33.833 22.279 33.596 22.479 33.344zM21.909 29.901c-.016.088-.038.174-.059.26-.051.215-.117.424-.195.627-.03.077-.056.156-.089.231-.117.263-.251.517-.41.754-.024.036-.055.068-.08.104-.141.2-.297.388-.466.564-.064.067-.131.13-.198.193-.147.139-.304.266-.468.386-.077.056-.151.116-.232.169-.227.147-.464.278-.714.388C18.344 32.146 18 30.579 18 29s.344-3.146.999-4.577c.25.11.488.241.714.388.081.052.154.112.232.169.163.12.32.248.468.386.068.063.135.127.198.193.168.177.324.365.466.564.025.036.055.067.08.104.159.237.293.491.41.754.033.075.059.154.089.231.078.203.144.412.195.627.021.086.043.172.059.26C21.963 28.392 22 28.692 22 29S21.963 29.608 21.909 29.901zM12 29c0-2.757 2.243-5 5-5 .005 0 .009.001.014.001C16.355 25.581 16 27.282 16 29s.355 3.419 1.014 4.999C17.009 33.999 17.005 34 17 34 14.243 34 12 31.757 12 29z"/><path d="M22.035 17.999l.192.75c.003.01.007.019.01.029.097.369.22.727.374 1.069.007.015.015.029.021.044.153.336.329.659.531.964.005.008.01.016.015.024.189.282.402.546.629.798.046.051.091.102.138.152.222.232.459.45.711.65.054.043.11.083.165.124.266.199.541.385.834.545.006.004.012.007.019.01.297.161.611.294.932.412.057.021.113.043.171.063.315.106.64.189.973.25.062.011.125.019.188.029C28.286 23.964 28.638 24 29 24s.714-.036 1.062-.089c.063-.01.125-.017.188-.029.333-.06.658-.144.973-.25.058-.019.114-.042.172-.063.321-.117.635-.251.932-.412.006-.003.012-.007.019-.01.293-.16.568-.346.834-.545.055-.041.111-.081.165-.124.252-.2.489-.417.711-.65.047-.05.092-.101.138-.152.227-.251.44-.515.629-.797.005-.008.01-.016.015-.024.202-.305.377-.628.531-.964.007-.015.015-.029.021-.044.153-.343.277-.701.374-1.07.003-.01.007-.019.01-.029l.192-.75-.041-.023C35.969 17.656 36 17.332 36 17c0-3.859-3.141-7-7-7s-7 3.141-7 7c0 .332.031.656.076.976L22.035 17.999zM33.189 19.713c-.052.081-.112.154-.169.231-.12.163-.248.32-.386.468-.063.067-.127.135-.193.198-.177.168-.365.324-.564.466-.036.025-.067.055-.104.08-.237.159-.491.293-.754.41-.075.033-.154.059-.231.089-.203.078-.412.144-.627.195-.086.021-.172.043-.26.059C29.608 21.963 29.308 22 29 22s-.608-.037-.901-.091c-.088-.016-.174-.038-.26-.059-.215-.051-.424-.117-.627-.195-.077-.03-.155-.056-.231-.089-.263-.117-.517-.251-.754-.41-.036-.024-.068-.055-.104-.08-.2-.141-.388-.298-.564-.466-.067-.064-.13-.131-.193-.198-.138-.147-.266-.304-.386-.468-.056-.077-.116-.151-.169-.231-.147-.227-.279-.464-.388-.714 2.861-1.31 6.292-1.31 9.154 0C33.467 19.249 33.336 19.487 33.189 19.713zM29 12c2.757 0 5 2.243 5 5 0 .006-.002.012-.002.018-3.165-1.302-6.832-1.302-9.996 0C24.002 17.012 24 17.006 24 17 24 14.243 26.243 12 29 12z"/><path d="M35.965 40.001l-.192-.75c-.003-.01-.007-.019-.01-.028-.097-.369-.221-.727-.374-1.07-.007-.015-.015-.03-.022-.045-.153-.336-.329-.659-.531-.964-.005-.008-.009-.016-.014-.024-.189-.283-.402-.546-.629-.798-.046-.051-.091-.102-.138-.152-.222-.233-.459-.45-.711-.65-.054-.043-.11-.082-.165-.123-.265-.198-.54-.384-.833-.544-.007-.004-.014-.008-.022-.012-.297-.161-.61-.294-.93-.411-.057-.021-.114-.043-.172-.063-.315-.106-.64-.189-.974-.25-.062-.011-.124-.019-.187-.029C29.715 34.036 29.362 34 29 34s-.715.036-1.062.089c-.063.01-.125.017-.187.029-.333.061-.658.144-.974.25-.058.019-.114.042-.171.063-.321.117-.634.25-.931.411-.007.004-.014.008-.022.012-.292.16-.567.345-.832.544-.055.041-.111.081-.165.124-.252.2-.489.417-.711.65-.047.05-.092.101-.138.152-.227.251-.44.515-.629.798-.005.008-.009.016-.014.024-.202.305-.378.628-.531.964-.007.015-.015.03-.022.045-.153.343-.277.7-.374 1.069-.003.01-.008.019-.01.029l-.192.75.041.023C22.031 40.344 22 40.668 22 41c0 3.859 3.141 7 7 7s7-3.141 7-7c0-.332-.031-.656-.076-.976L35.965 40.001zM24.811 38.287c.052-.081.112-.154.169-.231.12-.163.248-.32.386-.468.063-.067.127-.135.193-.198.177-.168.365-.324.564-.466.036-.025.067-.055.104-.08.237-.159.491-.293.754-.41.075-.033.154-.059.231-.089.203-.078.412-.144.627-.195.086-.021.172-.043.26-.059C28.392 36.037 28.692 36 29 36s.608.037.901.091c.088.016.174.038.26.059.215.051.424.117.627.195.077.03.155.056.231.089.263.117.517.251.754.41.036.024.068.055.104.08.2.141.388.298.564.466.067.064.13.131.193.198.138.147.266.304.386.468.056.077.116.151.169.231.147.227.279.464.388.714-2.861 1.31-6.292 1.31-9.154 0C24.533 38.751 24.664 38.513 24.811 38.287zM29 46c-2.757 0-5-2.243-5-5 0-.005.001-.009.001-.014C25.581 41.645 27.282 42 29 42s3.419-.355 4.999-1.014C33.999 40.991 34 40.995 34 41 34 43.757 31.757 46 29 46z"/></symbol><symbol id="menu-theaters" x="0px" y="0px" viewBox="0 0 512 512"><path d="M504.396 25.347H139.409c-4.199 0-7.604 3.405-7.604 7.604 0 4.199 3.405 7.604 7.604 7.604h357.383v23.823h-31.427H46.635 15.208V40.555h39.037c4.199 0 7.604-3.405 7.604-7.604 0-4.199-3.405-7.604-7.604-7.604H7.604C3.405 25.347 0 28.751 0 32.951v39.031 377.159 29.909c0 4.199 3.405 7.604 7.604 7.604h496.792c4.2 0 7.604-3.405 7.604-7.604v-29.909V71.982 32.951C512 28.751 508.596 25.347 504.396 25.347zM472.969 295.034V267.66v-.016c0-.016 0-.033 0-.05V79.586h23.823v361.952h-23.823V295.034zM433.414 79.586h24.348v121.492C432.278 154.061 432.462 98.582 433.414 79.586zM396.798 79.584h21.361v.001c-.475 9.591-.703 26.572 1.696 47.018 3.339 28.463 12.647 69.09 37.907 102.559v2.034c-29.456-19.046-48.624-49.788-57.032-91.592C395.531 113.753 396.084 90.532 396.798 79.584zM381.539 79.584 381.539 79.584c-.754 12.136-1.138 35.791 4.192 62.572 9.812 49.311 34.677 86.109 72.031 106.75v1.121c-10.323-4.056-27.793-12.642-45.082-29.042-34.592-32.814-52.796-80.364-54.183-141.401H381.539zM427.006 302.638h15.948l-46.977 138.899h-15.948L427.006 302.638zM363.974 441.537h-16.773l46.977-138.899h16.773L363.974 441.537zM457.761 306.323v135.214h-45.73L457.761 306.323zM453.553 287.43h-31.815c-.003 0-.007 0-.01 0h-25.402v-12.166h61.435v12.166H453.553zM343.282 79.586c.779 34.956 6.962 66.304 18.417 93.268 9.919 23.348 23.773 43.465 41.179 59.793 10.429 9.782 20.844 17.001 30.039 22.276-45.69-12-112.869-50.868-115.497-175.337H343.282zM302.215 79.584c.846 40.811 8.535 76.155 22.899 105.144 12.529 25.286 30.148 45.869 52.365 61.175 8.366 5.764 16.812 10.409 25.055 14.153h-12.547c-5.474-1.948-32.363-12.364-58.863-37.51-37.809-35.878-57.729-83.95-59.297-142.962H302.215zM240.179 79.586c-.983 36.16-9.018 68.606-23.929 96.536-1.978 3.705-.578 8.312 3.127 10.289 1.141.609 2.366.897 3.575.897 2.717 0 5.345-1.46 6.715-4.024 16.09-30.14 24.731-64.995 25.728-103.698h1.219c.874 33.848 7.602 64.834 20.047 92.201 10.748 23.63 25.734 44.594 44.545 62.31 24.747 23.307 49.356 34.698 59.915 38.878v20.81l-49.972 147.753H180.854l-49.972-147.753v-20.81c10.559-4.18 35.169-15.571 59.915-38.878 3.057-2.879 3.202-7.691.322-10.749-2.879-3.057-7.691-3.201-10.749-.322-26.333 24.8-52.919 35.097-58.357 37.031h-12.547c8.243-3.744 16.689-8.389 25.055-14.153 22.218-15.307 39.836-35.89 52.366-61.175 14.364-28.988 22.054-64.333 22.898-105.143H240.179zM69.046 302.638h15.948l46.977 138.899h-15.948L69.046 302.638zM99.97 441.537H54.239V306.324L99.97 441.537zM101.049 302.638h16.774L164.8 441.537h-16.772L101.049 302.638zM194.58 79.584v.001c-2.628 124.468-69.807 163.337-115.497 175.337 9.195-5.274 19.61-12.493 30.039-22.276 17.406-16.327 31.26-36.445 41.179-59.794 11.456-26.964 17.638-58.311 18.418-93.268H194.58zM54.239 79.586h24.348c.952 18.997 1.136 74.476-24.348 121.492V79.586zM54.239 229.164c25.259-33.47 34.569-74.097 37.907-102.559 2.399-20.446 2.172-37.427 1.696-47.018h21.368v-.001c.715 10.862 1.27 33.837-3.856 59.603-8.36 42.016-27.557 72.897-57.115 92.009V229.164zM54.239 248.907c37.353-20.641 62.219-57.439 72.031-106.75 5.329-26.782 4.946-50.437 4.192-62.57h23.042c-1.387 61.035-19.591 108.587-54.183 141.4-17.288 16.399-34.759 24.987-45.082 29.043V248.907zM54.238 275.263h.001 61.435v12.166H90.266c-.001 0-.002 0-.003 0H58.447h-4.209V275.263zM15.208 79.586h23.823v188.008c0 .016 0 .033 0 .05v.016 27.374 146.503H15.208V79.586zM496.794 471.446h-.002H15.208v-14.701h31.427 63.934 32.003 32.827 161.204 32.828 32.002 63.934 31.427V471.446z"/></symbol><symbol id="menu-exhibitions" x="0px" y="0px" viewBox="0 0 512.002 512.002"><path d="M107.666 236.357h296.671c4.872 0 8.821-3.95 8.821-8.821V8.821c0-4.872-3.95-8.821-8.821-8.821H107.666c-4.872 0-8.821 3.95-8.821 8.821v218.715C98.844 232.408 102.794 236.357 107.666 236.357zM128.961 218.715l15.564-15.564h222.951l15.564 15.564H128.961zM149.693 185.509V50.849h212.616v134.66H149.693zM395.514 206.239l-15.563-15.564V45.681l15.563-15.563V206.239zM383.04 17.642l-15.563 15.564H144.526l-15.565-15.564H383.04zM116.487 30.117l15.564 15.564v144.995l-15.564 15.564V30.117z"/><path d="M497.507 494.358h-13.884V314.417c0-.034-.005-.067-.005-.101 6.303-5.955 10.249-14.38 10.249-23.715 0-17.996-14.641-32.637-32.637-32.637-17.996 0-32.637 14.641-32.637 32.637 0 9.335 3.945 17.76 10.249 23.715 0 .034-.005.067-.005.101v26.47c-21.829 20.745-50.306 32.134-80.535 32.134-30.165 0-58.585-11.343-80.397-32.004v-26.6c0-.034-.005-.067-.005-.101 6.303-5.955 10.249-14.38 10.249-23.715 0-17.996-14.641-32.637-32.637-32.637-17.996 0-32.637 14.641-32.637 32.637 0 9.335 3.945 17.76 10.249 23.715 0 .034-.005.067-.005.101v26.928c-21.765 20.452-50.041 31.677-80.044 31.677-29.94 0-58.16-11.178-79.907-31.549v-27.055c0-.034-.005-.067-.005-.101 6.303-5.955 10.249-14.38 10.249-23.715 0-17.996-14.641-32.637-32.637-32.637-17.996 0-32.637 14.641-32.637 32.637 0 9.335 3.945 17.76 10.249 23.715 0 .034-.005.067-.005.101V494.36H14.494c-4.872 0-8.821 3.95-8.821 8.821 0 4.872 3.949 8.821 8.821 8.821h22.707 27.144 177.593 27.144 178.574 27.144 22.707c4.872 0 8.821-3.95 8.821-8.821C506.329 498.31 502.379 494.358 497.507 494.358zM55.524 494.359h-9.502v-.001V323.238h9.502V494.359zM50.773 305.596c-8.268 0-14.995-6.726-14.995-14.995 0-8.268 6.726-14.995 14.995-14.995 8.268 0 14.995 6.726 14.995 14.995C65.767 298.87 59.041 305.596 50.773 305.596zM233.117 494.359H73.167V364.418c23.008 17.038 50.749 26.246 79.907 26.246 29.214 0 57.009-9.242 80.044-26.345V494.359zM260.261 494.359h-9.502v-.001V323.238h9.502V494.359zM255.51 305.596c-8.268 0-14.995-6.726-14.995-14.995 0-8.268 6.726-14.995 14.995-14.995 8.268 0 14.995 6.726 14.995 14.995C270.505 298.87 263.778 305.596 255.51 305.596zM438.835 494.358H277.903V364.05c23.104 17.272 51.032 26.614 80.397 26.614 29.424 0 57.404-9.381 80.535-26.719V494.358zM465.98 494.359h-9.502v-.001V323.238h9.502V494.359zM461.228 305.596c-8.268 0-14.995-6.726-14.995-14.995 0-8.268 6.726-14.995 14.995-14.995s14.995 6.726 14.995 14.995C476.223 298.87 469.497 305.596 461.228 305.596z"/></symbol><symbol id="menu-concerts" x="0px" y="0px" viewBox="0 0 550.47 550.47"><path d="M265.828 305.801c2.844 3.011 2.709 7.758-.302 10.602-1.449 1.369-3.301 2.048-5.148 2.048-1.992 0-3.979-.788-5.454-2.35l-33.951-35.945c-2.844-3.011-2.709-7.758.302-10.602 3.012-2.844 7.759-2.708 10.602.302L265.828 305.801zM549.556 46.357 527.45 86.93l2.245 1.223c1.747.952 3.043 2.558 3.606 4.466.562 1.908.343 3.961-.608 5.708l-12.797 23.488c-1.361 2.498-3.935 3.913-6.593 3.913-1.212 0-2.442-.294-3.582-.916l-16.563-9.023-58.688 371.69c-.562 14.529-17.276 26.28-49.723 34.933-29.104 7.761-67.671 12.035-108.598 12.035-40.927 0-79.495-4.274-108.599-12.035-32.448-8.653-49.161-20.404-49.723-34.933L58.995 114.872l-18.248 9.942c-1.111.605-2.346.914-3.588.914-.711 0-1.425-.101-2.12-.306-1.908-.563-3.515-1.859-4.466-3.606L17.777 98.327c-1.982-3.637-.64-8.192 2.998-10.174l2.245-1.223L.914 46.357c-.952-1.747-1.17-3.8-.608-5.708.563-1.908 1.859-3.515 3.606-4.466l35.324-19.245c3.639-1.982 8.193-.639 10.174 2.998l22.105 40.574 2.245-1.223c3.638-1.981 8.193-.64 10.174 2.998l12.797 23.488c.952 1.747 1.17 3.8.608 5.708-.563 1.908-1.859 3.515-3.606 4.466l-17.554 9.563 126.605 133.639c2.849 3.007 2.72 7.754-.287 10.603-3.008 2.848-7.755 2.719-10.603-.287L76.14 127.277l52.281 331.115 136.705-346.319H245.98c-4.142 0-7.5-3.358-7.5-7.5V77.825c0-4.142 3.358-7.5 7.5-7.5h2.557V24.12c0-4.142 3.358-7.5 7.5-7.5h40.226c4.142 0 7.5 3.358 7.5 7.5v46.205h2.557c4.142 0 7.5 3.358 7.5 7.5v26.748c0 4.142-3.358 7.5-7.5 7.5h-19.146l136.705 346.319 52.339-331.482L356.973 250.57c-2.875 2.981-7.623 3.068-10.605.193-2.981-2.875-3.068-7.623-.193-10.605l129.246-134.033-18.685-10.18c-1.747-.952-3.043-2.558-3.606-4.466-.562-1.908-.343-3.961.608-5.708l12.797-23.488c1.981-3.637 6.536-4.98 10.174-2.998l2.245 1.223 22.105-40.574c1.981-3.637 6.537-4.98 10.174-2.998l35.324 19.245c1.747.952 3.044 2.558 3.606 4.466C550.726 42.556 550.507 44.609 549.556 46.357zM532.795 45.766l-22.152-12.069-18.517 33.988 6.722 3.662c3.637 1.981 4.979 6.537 2.998 10.174-1.981 3.637-6.536 4.979-10.174 2.998l-15.553-8.473-5.62 10.316 39.814 21.691 5.62-10.316-8.518-4.641c-3.637-1.981-4.979-6.537-2.998-10.174 1.924-3.531 6.272-4.89 9.852-3.152L532.795 45.766zM298.819 97.073V85.325h-9.08c-4.142 0-7.5-3.358-7.5-7.5 0-3.81 2.844-6.95 6.523-7.429V31.62h-25.226v38.705h8.801c4.142 0 7.5 3.358 7.5 7.5s-3.358 7.5-7.5 7.5H253.48v11.748H298.819zM132.801 486.722c0 3.77 8.071 13.053 38.615 21.198 27.879 7.435 65.074 11.529 104.734 11.529 39.659 0 76.854-4.094 104.733-11.529 30.544-8.145 38.615-17.428 38.615-21.198 0-2.413-3.152-6.856-12.74-11.807-.119-.059-.239-.119-.355-.185-6.712-3.418-16.494-7.068-30.43-10.456-4.025-.979-6.495-5.034-5.516-9.059.978-4.024 5.031-6.498 9.059-5.516 1.147.279 2.276.561 3.387.847L282.555 345.258c-2.858-2.999-2.744-7.746.255-10.604 2.999-2.857 7.745-2.744 10.604.255l111.971 117.484L276.15 125 146.736 452.846l169.193-180.761c2.831-3.024 7.577-3.18 10.601-.351 3.024 2.831 3.181 7.577.351 10.601L169.427 450.554c28.878-7.453 66.658-11.559 106.723-11.559 21.264 0 41.857 1.143 61.207 3.397 4.114.479 7.061 4.203 6.582 8.318-.48 4.114-4.205 7.059-8.318 6.582-18.775-2.188-38.785-3.297-59.471-3.297-39.66 0-76.855 4.094-104.734 11.529C140.872 473.67 132.801 482.952 132.801 486.722zM79.971 86.362l-5.62-10.316-5.801 3.16c-3.639 1.981-8.193.639-10.174-2.998-1.386-2.544-1.142-5.534.372-7.781l-18.922-34.73L17.674 45.766l18.517 33.988 8.917-4.858c3.638-1.983 8.193-.639 10.174 2.998 1.982 3.638.64 8.192-2.998 10.174l-15.502 8.446 0 0 0 0-2.245 1.223 5.62 10.316L79.971 86.362z"/></symbol><symbol id="menu-restaurants" x="0px" y="0px" viewBox="0 0 463.001 463.001"><path d="M382.382 0h-.032c-12.173 0-22.651 9.087-24.373 21.138l-35.859 251.016c-1.709 11.961 5.842 23.191 17.564 26.122l12.021 3.005-6.464 129.275c-.427 8.536 2.582 16.647 8.473 22.84S367.554 463 376.101 463c17.039 0 30.9-13.862 30.9-30.9V24.62C407.001 11.044 395.957 0 382.382 0zM392.001 432.099 392.001 432.099c0 8.768-7.133 15.9-15.9 15.9-4.398 0-8.489-1.755-11.521-4.941-3.032-3.186-4.58-7.36-4.36-11.753l6.771-135.431c.179-3.577-2.197-6.782-5.672-7.65l-18-4.5c-4.24-1.06-6.971-5.122-6.353-9.449l35.86-251.016c.672-4.708 4.767-8.259 9.523-8.259h.032c5.304 0 9.62 4.315 9.62 9.62V432.099z"/><path d="M286.992 7.125c-.207-4.137-3.735-7.315-7.865-7.116-4.137.207-7.323 3.728-7.116 7.865l6.406 128.125h-23.416V7.5c0-4.142-3.358-7.5-7.5-7.5-4.142 0-7.5 3.358-7.5 7.5V136h-23.416L222.99 7.875c.207-4.137-2.979-7.658-7.116-7.865-4.136-.21-7.658 2.979-7.865 7.116l-7.546 150.927c-.411 8.22 3.588 16.162 10.436 20.727l9.062 6.041c2.455 1.637 3.868 4.375 3.781 7.324l-7.072 239.157c-.233 8.397 2.864 16.338 8.72 22.36 5.857 6.022 13.709 9.339 22.11 9.339s16.253-3.316 22.11-9.339c5.856-6.022 8.954-13.963 8.72-22.373l-7.071-239.144c-.087-2.949 1.327-5.687 3.781-7.324l9.062-6.041c6.847-4.565 10.846-12.507 10.435-20.727L286.992 7.125zM275.783 166.298l-9.062 6.041c-6.787 4.524-10.695 12.094-10.454 20.248l7.071 239.131c.12 4.313-1.471 8.392-4.479 11.485-3.009 3.093-7.042 4.797-11.357 4.797s-8.349-1.704-11.357-4.797c-3.008-3.093-4.599-7.172-4.479-11.472l7.071-239.144c.241-8.154-3.667-15.723-10.454-20.248l-9.062-6.041c-2.477-1.651-3.923-4.524-3.774-7.497l.39-7.802h63.331l.39 7.802C279.706 161.774 278.26 164.647 275.783 166.298z"/><path d="M119.501 0c-15.626 0-37.258 7.845-51.572 45.22-8.804 22.986-11.928 50.071-11.928 66.28 0 22.316 11.389 42.587 30.465 54.226 5.306 3.238 8.388 8.709 8.244 14.635l-6.121 250.963c-.205 8.4 2.914 16.337 8.783 22.351 5.868 6.013 13.727 9.325 22.129 9.325s16.262-3.312 22.13-9.325c5.869-6.013 8.988-13.951 8.783-22.351l-6.122-250.962c-.144-5.927 2.938-11.398 8.244-14.636 19.077-11.639 30.465-31.911 30.465-54.226 0-16.209-3.124-43.293-11.928-66.28C156.76 7.845 135.128 0 119.501 0zM144.722 152.921c-9.787 5.972-15.698 16.626-15.426 27.806l6.121 250.962c.106 4.325-1.5 8.412-4.522 11.508-3.022 3.097-7.069 4.802-11.395 4.802s-8.373-1.705-11.395-4.801c-3.022-3.096-4.628-7.184-4.522-11.509l6.121-250.962c.273-11.179-5.638-21.834-15.426-27.806-14.576-8.893-23.278-24.378-23.278-41.421 0-31.485 11.855-96.5 48.5-96.5s48.5 65.015 48.5 96.5C168.001 128.543 159.3 144.028 144.722 152.921z"/></symbol><symbol id="menu-quests" x="0px" y="0px" viewBox="0 0 512 512"><g><g><path d="M453.708 186.943H288.512c.569-3.022.869-6.105.869-9.245V76.216c0-27.432-22.317-49.748-49.748-49.748H49.737C22.311 26.468 0 48.784 0 76.216v101.482c0 27.425 22.311 49.736 49.737 49.736h29.221l-1.577 36.738c-.142 3.315 1.577 6.432 4.457 8.079 1.367.782 2.886 1.171 4.405 1.171 1.679 0 3.356-.477 4.819-1.424l68.856-44.565h8.724c-1.802 5.611-2.786 11.585-2.786 17.786v122.676c0 32.134 26.143 58.278 58.278 58.278h25.178l55.514 56.695c1.697 1.734 3.993 2.664 6.337 2.664.985 0 1.978-.164 2.94-.503 3.25-1.142 5.544-4.063 5.884-7.491l5.097-51.365h128.625c32.143 0 58.292-26.144 58.292-58.278V245.22C512 213.085 485.85 186.943 453.708 186.943zM177.98 209.696h-20.683c-1.71 0-3.383.494-4.819 1.424l-56.639 36.658 1.238-28.832c.104-2.416-.784-4.769-2.456-6.516-1.673-1.747-3.986-2.734-6.404-2.734H49.738c-17.645 0-32.001-14.354-32.001-31.998V76.216c0-17.651 14.356-32.01 32-32.01h189.898c17.651 0 32.01 14.36 32.01 32.01v101.482c0 3.177-.459 6.27-1.36 9.245h-46.152C205.362 186.943 188.647 195.872 177.98 209.696zM494.264 367.895c0 22.354-18.193 40.541-40.555 40.541H317.05c-4.559 0-8.376 3.456-8.826 7.994l-4.013 40.459-44.834-45.788c-1.667-1.704-3.952-2.664-6.336-2.664h-28.906c-22.354 0-40.541-18.187-40.541-40.541V245.22c0-22.354 18.187-40.54 40.541-40.54h229.575v-.001c22.362 0 40.555 18.186 40.555 40.54V367.895z"/></g></g><g><g><path d="M183.31 93.756c-1.206-19.413-16.755-34.962-36.168-36.167-10.807-.668-21.086 3.028-28.949 10.418-7.754 7.287-12.199 17.566-12.199 28.201-.001 4.9 3.968 8.87 8.868 8.87s8.869-3.971 8.869-8.869c0-5.846 2.347-11.27 6.609-15.277 4.258-4.002 9.836-6.005 15.702-5.641 10.329.641 18.922 9.234 19.564 19.562.484 7.802-3.346 15.177-9.997 19.249-12.391 7.585-19.789 20.693-19.789 35.065 0 4.898 3.97 8.869 8.869 8.869s8.869-3.971 8.869-8.869c0-8.149 4.229-15.601 11.312-19.937C177.135 121.723 184.202 108.129 183.31 93.756z"/></g></g><g><g><path d="M338.925 240.4c-4.899 0-8.869 3.971-8.869 8.869v75.063c0 4.898 3.971 8.869 8.869 8.869 4.899 0 8.869-3.971 8.869-8.869v-75.063C347.793 244.371 343.824 240.4 338.925 240.4z"/></g></g><g><g><circle cx="338.916" cy="364.068" r="8.869"/></g></g><g><g><circle cx="144.679" cy="182.046" r="8.869"/></g></g></symbol><symbol id="menu-children" x="0px" y="0px" viewBox="0 0 512 512"><g><path d="M474.053 312.071l-88.504-84.058c-6.224-5.912-13.671-10.007-21.742-12.072 4.305-6.138 8.1-12.654 11.324-19.494 1.766-3.747.159-8.217-3.588-9.982-3.748-1.767-8.216-.16-9.982 3.587-22.028 46.745-73.455 74.586-126.33 65.122-83.772-15.12-125.32-114.145-72.556-184.64 21.294-28.371 55.202-46.758 93.325-46.758 75.449 0 131.566 71.133 113.17 144.927-1.002 4.02 1.444 8.091 5.463 9.093 4.02.997 8.09-1.445 9.092-5.463 3.709-14.88 4.921-30.966 2.986-47.41 28.734-6.19 49.819-31.66 49.819-61.737C436.531 28.344 408.187 0 373.348 0c-20.596 0-39.664 9.987-51.439 26.499-40.377-23.455-91.401-24.069-133.04.723C177.151 10.258 157.903 0 136.93 0c-34.84 0-63.184 28.345-63.184 63.185 0 30.733 22.049 56.579 51.501 62.082-3.71 32.263 4.478 64.302 23.011 90.66-8.094 2.06-15.567 6.159-21.807 12.086l-55.804 53.002c-3.003 2.853-3.125 7.601-.273 10.605 2.852 3.003 7.599 3.125 10.604.273l55.805-53.003c6.115-5.81 13.93-9.112 22.266-9.466.235.256.472.512.709.766-6.904 7.424-11.259 17.609-11.259 28.595v59.908c-30.343 3.523-51.883 30.586-60.771 60.178-13.454 6.818-30.17 4.063-40.711-7.034-13.131-13.826-12.566-35.758 1.26-48.888l15.232-14.468c3.003-2.853 3.125-7.602.273-10.605-2.853-3.004-7.601-3.125-10.604-.273l-15.232 14.468c-19.869 18.87-20.679 50.224-1.807 70.096 12.368 13.021 30.766 18.109 47.759 13.994-4.34 29.485 1.417 62.262 19.081 86.548 30.907 42.498 83.178 38.2 109.952-9.318h89.235c12.467 22.128 32.796 38.57 57.95 38.57 45.953 0 79.603-55.549 71.182-115.089 16.457 2.938 33.084-2.62 44.56-14.706C494.732 362.298 493.924 330.944 474.053 312.071zM373.134 80.321c-4.329-8.425-9.566-16.367-15.624-23.697 7.925-14.593 30.219-8.94 30.219 7.672C387.729 72.665 381.309 79.563 373.134 80.321zM373.348 15.001c26.568 0 48.183 21.615 48.183 48.184 0 22.527-15.971 42.002-37.407 46.951-1.24-5.247-2.861-10.579-4.785-15.71 13.431-3.436 23.392-15.64 23.392-30.129 0-29.545-37.605-42.423-55.705-18.933-3.948-3.791-8.139-7.352-12.56-10.643C343.473 22.418 357.847 15.001 373.348 15.001zM127.793 110.496c-22.347-4.279-39.046-23.951-39.046-47.312 0-26.568 21.615-48.184 48.183-48.184 15.91 0 30.524 7.741 39.476 20.563-4.007 3.051-7.821 6.328-11.433 9.799-18.107-23.496-55.706-10.602-55.706 18.933 0 14.49 9.963 26.695 23.397 30.13C130.719 99.624 129.036 105.17 127.793 110.496zM124.268 64.296c0-16.643 22.298-22.243 30.216-7.68-6.05 7.326-11.284 15.269-15.617 23.705C130.691 79.564 124.268 72.666 124.268 64.296zM170.601 240.566c48.843 41.707 120.753 41.907 169.81.823 4.162 4.914 6.353 11.055 6.353 17.394v61.143c-10.676 2.613-20.051 8.205-27.905 15.424-31.856-54.08-92.869-54.83-125.78-2.725-8.936-7.377-18.981-12.032-29.579-13.659C163.5 257.005 161.402 250.575 170.601 240.566zM154.982 496.961c-16.056 0-29.621-19.94-29.621-43.541 0-23.604 13.565-43.543 29.621-43.543s29.621 19.939 29.621 43.543C184.603 477.021 171.038 496.961 154.982 496.961zM197.929 469.417c7.887-36.937-12.741-74.543-42.947-74.543-30.252 0-50.823 37.664-42.947 74.544-34.381-55.091-3.99-137.502 43.788-136.073v-.001C205.023 334.782 230.239 417.641 197.929 469.417zM295.225 458.39h-75.355v0c13.871-37.252 8.753-84.512-15.928-114.766 27.434-47.258 78.489-45.716 104.354 3.569C286.324 377.117 281.77 422.255 295.225 458.39zM360.116 496.961c-16.056 0-29.621-19.94-29.621-43.541 0-23.604 13.565-43.543 29.621-43.543 16.056 0 29.621 19.939 29.621 43.543C389.737 477.021 376.172 496.961 360.116 496.961zM403.063 469.419c12.876-60.297-44.091-99.368-75.263-56.504-11.332 15.58-14.74 37.259-10.632 56.504-31.957-51.209-7.783-130.16 38.012-135.784.001 0 .002 0 .003 0C406.437 327.387 437.615 414.054 403.063 469.419zM427.808 380.427c-9.186-32.187-32.92-61.032-66.042-62.092 0-63.628.199-61.773-.569-66.458-1.272-7.773-4.704-14.96-9.823-20.764.531-.558 1.055-1.123 1.576-1.69 8.337.354 16.152 3.655 22.268 9.467l88.505 84.059c6.697 6.359 10.516 14.948 10.754 24.183C475.103 371.414 450.919 389.11 427.808 380.427z"/></g><g><g><path d="M298 199.034c-4.142 0-7.501 3.357-7.501 7.501 0 7.684-6.25 13.934-13.934 13.934-7.683 0-13.933-6.25-13.933-13.934v-1.819c22.582-2.044 39.44-14.405 39.44-29.819 0-16.891-20.237-30.121-46.072-30.121-25.835 0-46.072 13.23-46.072 30.121 0 15.017 16.001 27.132 37.705 29.638v2.001c0 7.684-6.25 13.934-13.934 13.934s-13.935-6.25-13.935-13.934c0-4.143-3.358-7.501-7.501-7.501-4.142 0-7.501 3.357-7.501 7.501.001 26.413 32.663 38.946 50.371 19.415 17.698 19.52 50.368 7.008 50.368-19.416C305.5 202.391 302.142 199.034 298 199.034zM255.999 190.017c-17.783 0-31.071-7.983-31.071-15.121 0-7.138 13.288-15.12 31.071-15.12s31.071 7.983 31.071 15.12C287.071 182.034 273.783 190.017 255.999 190.017z"/></g></g><g><g><path d="M307.163 100.688c-13.091 0-23.742 10.65-23.742 23.742 0 13.091 10.651 23.741 23.742 23.741 13.091 0 23.741-10.65 23.741-23.741C330.904 111.337 320.254 100.688 307.163 100.688zM307.163 133.169c-4.819 0-8.741-3.921-8.741-8.74 0-4.819 3.921-8.741 8.741-8.741 4.819 0 8.74 3.921 8.74 8.741C315.903 129.248 311.983 133.169 307.163 133.169z"/></g></g><g><g><path d="M203.509 100.688c-13.091 0-23.742 10.65-23.742 23.742 0 13.091 10.651 23.741 23.742 23.741 13.09 0 23.741-10.65 23.741-23.741C227.249 111.337 216.599 100.688 203.509 100.688zM203.508 133.169c-4.819 0-8.741-3.921-8.741-8.74 0-4.819 3.921-8.741 8.741-8.741 4.819 0 8.74 3.921 8.74 8.741C212.248 129.248 208.327 133.169 203.508 133.169z"/></g></g></symbol><symbol id="arrow-down" viewBox="0 0 129 129"><path d="m121.3 34.6c-1.6-1.6-4.2-1.6-5.8 0l-51 51.1-51.1-51.1c-1.6-1.6-4.2-1.6-5.8 0-1.6 1.6-1.6 4.2 0 5.8l53.9 53.9c.8.8 1.8 1.2 2.9 1.2 1 0 2.1-.4 2.9-1.2l53.9-53.9c1.7-1.6 1.7-4.2.1-5.8z"/></symbol><symbol id="search" viewBox="0 0 52.966 52.966"><path d="M51.704 51.273 36.845 35.82c3.79-3.801 6.138-9.041 6.138-14.82 0-11.58-9.42-21-21-21s-21 9.42-21 21 9.42 21 21 21c5.083 0 9.748-1.817 13.384-4.832l14.895 15.491c.196.205.458.307.721.307.25 0 .499-.093.693-.279C52.074 52.304 52.086 51.671 51.704 51.273zM21.983 40c-10.477 0-19-8.523-19-19s8.523-19 19-19 19 8.523 19 19S32.459 40 21.983 40z"/></symbol><symbol id="notification" viewBox="0 0 64 64"><path d="M46.6674995 8.6586504c-.5527992 0-1 .4473-1 1 0 .5527992.4472008 1 1 1 3.5185013 0 6.3808022 2.8622999 6.3808022 6.3809004 0 .5527.4473 1 1 1 .5527992 0 1-.4473 1-1C55.0483017 12.4184504 51.2886009 8.6586504 46.6674995 8.6586504z"/><path d="M8.9517002 17.0395508c0 .5527.4471998 1 1 1 .5527 0 1-.4473 1-1 0-3.5186005 2.8622999-6.3809004 6.3808002-6.3809004.5527992 0 1-.4472008 1-1 0-.5527-.4472008-1-1-1C12.7114 8.6586504 8.9517002 12.4184504 8.9517002 17.0395508z"/><path d="M48.1431007 1.27785c-.5527992 0-1 .4473-1 .9999999s.4472008 1 1 1c6.7743988 0 12.2860985 5.5107002 12.2860985 12.2851 0 .5527992.4473 1 1 1s1-.4472008 1-1C62.4291992 7.6860499 56.0200005 1.27785 48.1431007 1.27785z"/><path d="M16.8560009 2.2778499c0-.5526999-.4473-.9999999-1.000001-.9999999-7.8769999 0-14.2852001 6.4081998-14.2852001 14.2851 0 .5527992.4473001 1 1.0000001 1s1-.4472008 1-1c0-6.7743998 5.5107002-12.2851 12.2852001-12.2851C16.4087009 3.2778499 16.8560009 2.83055 16.8560009 2.2778499z"/><path d="M51.7932014 46.2020493c-.1280022-.3828011-.3692017-.6965981-.6621017-.9463997.0236015-.6092987.0386009-1.2222977.0386009-1.8409996 0-13.6198997-5.641201-25.1546001-13.4345016-29.1104012.1161003-.4706001.1844025-.9601002.1844025-1.4666996 0-3.3774004-2.7380028-6.1154003-6.1154022-6.1154003s-6.1153984 2.7379999-6.1153984 6.1154003c0 .5065994.0682983.9960995.1843987 1.4666996C18.0799007 18.2600498 12.4386997 29.7947502 12.4386997 43.41465c0 .6187019.0150003 1.2317009.0386 1.8409996-.2929001.2498016-.5340996.5635986-.6620998.9463997l-2.8975 8.6665993c-.4692001 1.4033012.5754004 2.8535004 2.0555 2.8535004h14.1247005c.8610001 2.8908005 3.535799 5 6.7062988 5s5.8453026-2.1091995 6.7063026-5h14.1246986c1.4800987 0 2.5247002-1.4501991 2.0555-2.8535004L51.7932014 46.2020493zM26.7959003 16.1219501l1.4443989-.7332001-.3878994-1.5727005c-.0841999-.3413-.1252003-.6613998-.1252003-.9784994 0-2.2480001 1.8290005-4.0769005 4.0769997-4.0769005s4.0769997 1.8289003 4.0769997 4.0769005c0 .3170996-.0410004.6371994-.1251984.9784994l-.3879013 1.5727005L36.8125 16.1219501c7.2531013 3.6816006 12.3186989 14.9046993 12.3186989 27.2926998 0 .4183006-.0060997.8419991-.0181007 1.2691002H14.4953003c-.0120001-.4271011-.0181007-.8507996-.0181007-1.2691002C14.4771996 31.0266495 19.5428009 19.8035507 26.7959003 16.1219501zM31.8041992 60.7221489c-2.0464001 0-3.8094997-1.2355003-4.5824986-3h9.164999C35.6137009 59.4866486 33.8506012 60.7221489 31.8041992 60.7221489zM52.7711983 55.6526489c-.0500984.0695-.1102982.0695-.1359978.0695H38.8041992h-14H10.9731998c-.0256996 0-.0859003 0-.1359997-.0695-.0496998-.0690994-.0307999-.1256981-.0227003-.1497993l2.8975-8.6665993c.0229006-.0681992.0866003-.1141014.1588001-.1141014h35.8667984c.0722008 0 .1359024.0459023.158802.1140022l2.8974991 8.6666985C52.8019981 55.5269508 52.8209 55.5835495 52.7711983 55.6526489z"/></symbol><symbol id="users" viewBox="0 0 512 512"><g><g><path d="M158.014 8.882c-23.171 0-44.411 9.112-59.807 25.656-16.028 17.221-24.498 40.729-24.498 67.984 0 28.607 9.416 57.55 25.831 79.404 7.405 9.86 6.871 23.561-1.271 32.579-9.202 10.194-21.221 16.927-34.754 19.473C26.713 240.896 0 273.003 0 310.32v52.906h95.926v-15.673H15.673V310.32c0-29.783 21.339-55.411 50.738-60.938 16.933-3.184 31.973-11.612 43.493-24.373 13.155-14.574 14.068-36.651 2.168-52.496-14.208-18.915-22.69-45.079-22.69-69.991 0-23.222 7.019-43.037 20.297-57.306 12.399-13.322 29.564-20.66 48.427-20.66 25.39 0 46.824 12.913 58.805 35.426l13.837-7.363C216.174 25.231 189.017 8.882 158.014 8.882z"/></g></g><g><g><rect x="218.63" y="411.899" width="102.58" height="15.673"/></g></g><g><g><path d="M370.445 298.326c-13.538-2.55-25.555-9.283-34.753-19.474-8.147-9.024-8.684-22.727-1.278-32.582 16.419-21.845 25.835-50.787 25.835-79.405 0-27.254-8.471-50.762-24.498-67.984-15.398-16.546-36.636-25.659-59.898-25.659-23.172 0-44.412 9.112-59.808 25.657-16.023 17.221-24.493 40.729-24.493 67.984 0 28.612 9.412 57.553 25.824 79.405 7.41 9.86 6.878 23.563-1.266 32.583-9.094 10.075-20.946 16.772-34.302 19.386l-.458.086c-36.803 6.913-63.515 39.021-63.515 76.344v52.905h48.035v-15.673h-32.362v-37.232c0-29.615 21.086-55.116 50.218-60.84l.533-.1c16.937-3.192 31.975-11.62 43.486-24.373 13.161-14.576 14.071-36.657 2.164-52.501-14.203-18.91-22.682-45.074-22.682-69.99 0-23.222 7.019-43.038 20.295-57.306 12.398-13.323 29.563-20.661 48.428-20.661 18.767 0 35.931 7.337 48.33 20.662 13.28 14.27 20.299 34.086 20.299 57.306 0 24.921-8.482 51.084-22.691 69.988-11.905 15.841-10.99 37.921 2.172 52.501 11.515 12.756 26.552 21.184 43.491 24.374 8.198 1.541 15.858 4.629 22.765 9.179l8.622-13.088C390.285 304.12 380.697 300.252 370.445 298.326z"/></g></g><g><g><path d="M423.059 325.378c-49.043 0-88.942 39.867-88.942 88.871 0 49.003 39.899 88.87 88.942 88.87S512 463.25 512 414.248C512 365.245 472.101 325.378 423.059 325.378zM423.059 487.445c-40.4 0-73.268-32.836-73.268-73.196s32.868-73.197 73.268-73.197c40.4 0 73.267 32.836 73.267 73.197C496.327 454.609 463.459 487.445 423.059 487.445z"/></g></g><g><g><polygon points="430.896,406.411 430.896,375.883 415.223,375.883 415.223,406.411 384.66,406.411 384.66,422.086 
			415.223,422.086 415.223,452.612 430.896,452.612 430.896,422.086 461.457,422.086 461.457,406.411 		"/></g></g><g><g><rect x="184.15" y="411.899" width="15.673" height="15.673"/></g></g></symbol><symbol id="favorite" viewBox="0 0 49.94 49.94"><path d="M48.856 22.731c.983-.958 1.33-2.364.906-3.671-.425-1.307-1.532-2.24-2.892-2.438l-12.092-1.757c-.515-.075-.96-.398-1.19-.865L28.182 3.043c-.607-1.231-1.839-1.996-3.212-1.996-1.372 0-2.604.765-3.211 1.996L16.352 14c-.23.467-.676.79-1.191.865L3.069 16.623C1.71 16.82.603 17.753.178 19.06c-.424 1.307-.077 2.713.906 3.671l8.749 8.528c.373.364.544.888.456 1.4L8.224 44.702c-.232 1.353.313 2.694 1.424 3.502 1.11.809 2.555.914 3.772.273l10.814-5.686c.461-.242 1.011-.242 1.472 0l10.815 5.686c.528.278 1.1.415 1.669.415.739 0 1.475-.231 2.103-.688 1.111-.808 1.656-2.149 1.424-3.502L39.651 32.66c-.088-.513.083-1.036.456-1.4L48.856 22.731zM37.681 32.998l2.065 12.042c.104.606-.131 1.185-.629 1.547-.499.361-1.12.405-1.665.121l-10.815-5.687c-.521-.273-1.095-.411-1.667-.411s-1.145.138-1.667.412l-10.813 5.686c-.547.284-1.168.24-1.666-.121-.498-.362-.732-.94-.629-1.547l2.065-12.042c.199-1.162-.186-2.348-1.03-3.17L2.48 21.299c-.441-.43-.591-1.036-.4-1.621.19-.586.667-.988 1.276-1.077l12.091-1.757c1.167-.169 2.176-.901 2.697-1.959l5.407-10.957c.272-.552.803-.881 1.418-.881.616 0 1.146.329 1.419.881l5.407 10.957c.521 1.058 1.529 1.79 2.696 1.959l12.092 1.757c.609.089 1.086.491 1.276 1.077.19.585.041 1.191-.4 1.621l-8.749 8.528C37.866 30.65 37.481 31.835 37.681 32.998z"/></symbol><symbol id="rating" viewBox="0 0 471.701 471.701"><path d="M433.601 67.001c-24.7-24.7-57.4-38.2-92.3-38.2s-67.7 13.6-92.4 38.3l-12.9 12.9-13.1-13.1c-24.7-24.7-57.6-38.4-92.5-38.4-34.8 0-67.6 13.6-92.2 38.2-24.7 24.7-38.3 57.5-38.2 92.4 0 34.9 13.7 67.6 38.4 92.3l187.8 187.8c2.6 2.6 6.1 4 9.5 4 3.4 0 6.9-1.3 9.5-3.9l188.2-187.5c24.7-24.7 38.3-57.5 38.3-92.4C471.801 124.501 458.301 91.701 433.601 67.001zM414.401 232.701l-178.7 178-178.3-178.3c-19.6-19.6-30.4-45.6-30.4-73.3s10.7-53.7 30.3-73.2c19.5-19.5 45.5-30.3 73.1-30.3 27.7 0 53.8 10.8 73.4 30.4l22.6 22.6c5.3 5.3 13.8 5.3 19.1 0l22.4-22.4c19.6-19.6 45.7-30.4 73.3-30.4 27.6 0 53.6 10.8 73.2 30.3 19.6 19.6 30.3 45.6 30.3 73.3C444.801 187.101 434.001 213.101 414.401 232.701z"/></symbol><symbol id="comments" viewBox="0 0 60 60"><path d="M10 25.465h13c.553 0 1-.448 1-1s-.447-1-1-1H10c-.553 0-1 .448-1 1S9.447 25.465 10 25.465z"/><path d="M36 29.465H10c-.553 0-1 .448-1 1s.447 1 1 1h26c.553 0 1-.448 1-1S36.553 29.465 36 29.465z"/><path d="M36 35.465H10c-.553 0-1 .448-1 1s.447 1 1 1h26c.553 0 1-.448 1-1S36.553 35.465 36 35.465z"/><path d="M54.072 2.535 19.93 2.465c-3.27 0-5.93 2.66-5.93 5.93v5.124l-8.07.017c-3.27 0-5.93 2.66-5.93 5.93v21.141c0 3.27 2.66 5.929 5.93 5.929H12v10c0 .413.254.784.64.933.117.045.239.067.36.067.276 0 .547-.115.74-.327l9.704-10.675 16.626-.068c3.27 0 5.93-2.66 5.93-5.929v-.113l5.26 5.786c.193.212.464.327.74.327.121 0 .243-.022.36-.067.386-.149.64-.52.64-.933v-10h1.07c3.27 0 5.93-2.66 5.93-5.929V8.465C60 5.196 57.341 2.536 54.072 2.535zM44 40.536c0 2.167-1.763 3.929-3.934 3.929l-17.07.07c-.28.001-.548.12-.736.327L14 53.949v-8.414c0-.552-.447-1-1-1H5.93c-2.167 0-3.93-1.763-3.93-3.929V19.465c0-2.167 1.763-3.93 3.932-3.93l9.068-.019c0 0 0 0 0 0 .001 0 .001 0 .002 0l25.068-.052c2.167 0 3.93 1.763 3.93 3.93v18.441V40.536zM58 29.606c0 2.167-1.763 3.929-3.93 3.929H52c-.553 0-1 .448-1 1v8.414l-5-5.5V19.395c0-3.27-2.66-5.93-5.932-5.93L16 13.514v-5.12c0-2.167 1.763-3.93 3.928-3.93l34.141.07c.001 0 .001 0 .002 0 2.167 0 3.93 1.763 3.93 3.93V29.606z"/></symbol><symbol id="going" viewBox="0 0 92.9 92.9"><path d="M72.932 46.973 61.629 40.45c-.725-.418-1.601-1.531-1.837-2.334l-3.501-11.912c-.087-.298-.219-.564-.381-.798-.509-.936-1.49-1.572-2.627-1.572l-14.945.645c-.655.028-1.264.276-1.763.687-.1.061-.204.12-.294.189l-10.155 7.832c-1.173.905-1.83 2.745-1.494 4.188l4.021 17.3c.335 1.444 1.717 2.534 3.212 2.534.101 0 .203-.005.304-.015l1.501-.15c.804-.081 1.53-.489 1.99-1.121.461-.632.628-1.448.459-2.238L33.26 40.33c-.15-.701.23-1.738.798-2.175l1.809-1.393.93 21.444c.001.023.008.044.01.067l-4.128 9.156c-.52 1.153-1.826 2.75-2.852 3.489l-9.678 6.968c-1.559 1.122-2.148 3.366-1.342 5.11l1.324 2.861c.528 1.141 1.587 1.85 2.765 1.85.674 0 1.337-.229 1.917-.66l12.778-9.515c1.273-.948 2.843-2.793 3.574-4.202l6.379-12.286c.051-.099.083-.205.125-.308l.445-.019 10.441 28.786c.737 2.032 2.703 3.398 4.892 3.398.52 0 1.034-.079 1.528-.236l.644-.205c1.276-.405 2.301-1.282 2.887-2.47.585-1.188.656-2.536.2-3.794L57.711 55.885c-.051-.14-.121-.268-.182-.401l-.353-8.134 12.122 6.297c.426.222.906.339 1.389.339 1.122 0 2.149-.607 2.68-1.584l.721-1.328C74.872 49.633 74.353 47.793 72.932 46.973z"/><path d="M44.162 21.673c.157 0 .316-.003.475-.01 2.891-.125 5.561-1.37 7.517-3.503s2.964-4.901 2.839-7.792C54.735 4.397 49.745-.249 43.698.01c-2.891.125-5.561 1.37-7.517 3.503-1.956 2.134-2.964 4.901-2.839 7.792C33.594 17.119 38.347 21.673 44.162 21.673z"/></symbol><symbol id="share" viewBox="0 0 58.995 58.995"><path d="M39.927 41.929c-.524.524-.975 1.1-1.365 1.709l-17.28-10.489c.457-1.144.716-2.388.716-3.693 0-1.305-.259-2.549-.715-3.693l17.284-10.409C40.342 18.142 43.454 20 46.998 20c5.514 0 10-4.486 10-10s-4.486-10-10-10-10 4.486-10 10c0 1.256.243 2.454.667 3.562L20.358 23.985c-1.788-2.724-4.866-4.529-8.361-4.529-5.514 0-10 4.486-10 10s4.486 10 10 10c3.495 0 6.572-1.805 8.36-4.529L37.661 45.43c-.43 1.126-.664 2.329-.664 3.57 0 2.671 1.04 5.183 2.929 7.071 1.949 1.949 4.51 2.924 7.071 2.924s5.122-.975 7.071-2.924c1.889-1.889 2.929-4.4 2.929-7.071s-1.04-5.183-2.929-7.071C50.169 38.029 43.826 38.029 39.927 41.929zM46.998 2c4.411 0 8 3.589 8 8s-3.589 8-8 8-8-3.589-8-8S42.586 2 46.998 2zM11.998 37.456c-4.411 0-8-3.589-8-8s3.589-8 8-8 8 3.589 8 8S16.409 37.456 11.998 37.456zM52.654 54.657c-3.119 3.119-8.194 3.119-11.313 0-1.511-1.511-2.343-3.521-2.343-5.657s.832-4.146 2.343-5.657c1.56-1.56 3.608-2.339 5.657-2.339s4.097.779 5.657 2.339c1.511 1.511 2.343 3.521 2.343 5.657S54.166 53.146 52.654 54.657z"/></symbol><symbol id="list_view" viewBox="0 0 344.339 344.339"><g><g><rect y="46.06" width="344.339" height="29.52"/></g><g><rect y="156.506" width="344.339" height="29.52"/></g><g><rect y="268.748" width="344.339" height="29.531"/></g></g></symbol><symbol id="card_view" viewBox="0 0 341.333 341.333"><rect x="128" y="128" width="85.333" height="85.333"/><rect x="0" y="0" width="85.333" height="85.333"/><rect x="128" y="256" width="85.333" height="85.333"/><rect x="0" y="128" width="85.333" height="85.333"/><rect x="0" y="256" width="85.333" height="85.333"/><rect x="256" y="0" width="85.333" height="85.333"/><rect x="128" y="0" width="85.333" height="85.333"/><rect x="256" y="128" width="85.333" height="85.333"/><rect x="256" y="256" width="85.333" height="85.333"/></symbol><symbol id="user" viewBox="0 0 55 55"><path d="M55 27.5C55 12.337 42.663 0 27.5 0S0 12.337 0 27.5c0 8.009 3.444 15.228 8.926 20.258l-.026.023.892.752c.058.049.121.089.179.137.474.393.965.766 1.465 1.127.162.117.324.234.489.348.534.368 1.082.717 1.642 1.048.122.072.245.142.368.212.613.349 1.239.678 1.88.98.047.022.095.042.142.064 2.089.971 4.319 1.684 6.651 2.105.061.011.122.022.184.033.724.125 1.456.225 2.197.292.09.008.18.013.271.021C25.998 54.961 26.744 55 27.5 55c.749 0 1.488-.039 2.222-.098.093-.008.186-.013.279-.021.735-.067 1.461-.164 2.178-.287.062-.011.125-.022.187-.034 2.297-.412 4.495-1.109 6.557-2.055.076-.035.153-.068.229-.104.617-.29 1.22-.603 1.811-.936.147-.083.293-.167.439-.253.538-.317 1.067-.648 1.581-1 .185-.126.366-.259.549-.391.439-.316.87-.642 1.289-.983.093-.075.193-.14.284-.217l.915-.764-.027-.023C51.523 42.802 55 35.55 55 27.5zM2 27.5C2 13.439 13.439 2 27.5 2S53 13.439 53 27.5c0 7.577-3.325 14.389-8.589 19.063-.294-.203-.59-.385-.893-.537l-8.467-4.233c-.76-.38-1.232-1.144-1.232-1.993v-2.957c.196-.242.403-.516.617-.817 1.096-1.548 1.975-3.27 2.616-5.123 1.267-.602 2.085-1.864 2.085-3.289v-3.545c0-.867-.318-1.708-.887-2.369v-4.667c.052-.519.236-3.448-1.883-5.864C34.524 9.065 31.541 8 27.5 8s-7.024 1.065-8.867 3.168c-2.119 2.416-1.935 5.345-1.883 5.864v4.667c-.568.661-.887 1.502-.887 2.369v3.545c0 1.101.494 2.128 1.34 2.821.81 3.173 2.477 5.575 3.093 6.389v2.894c0 .816-.445 1.566-1.162 1.958l-7.907 4.313c-.252.137-.502.297-.752.476C5.276 41.792 2 35.022 2 27.5zM42.459 48.132c-.35.254-.706.5-1.067.735-.166.108-.331.216-.5.321-.472.292-.952.57-1.442.83-.108.057-.217.111-.326.167-1.126.577-2.291 1.073-3.488 1.476-.042.014-.084.029-.127.043-.627.208-1.262.393-1.904.552-.002 0-.004.001-.006.001-.648.16-1.304.293-1.964.402-.018.003-.036.007-.054.01-.621.101-1.247.174-1.875.229-.111.01-.222.017-.334.025C28.751 52.97 28.127 53 27.5 53c-.634 0-1.266-.031-1.895-.078-.109-.008-.218-.015-.326-.025-.634-.056-1.265-.131-1.89-.233-.028-.005-.056-.01-.084-.015-1.322-.221-2.623-.546-3.89-.971-.039-.013-.079-.027-.118-.04-.629-.214-1.251-.451-1.862-.713-.004-.002-.009-.004-.013-.006-.578-.249-1.145-.525-1.705-.816-.073-.038-.147-.074-.219-.113-.511-.273-1.011-.568-1.504-.876-.146-.092-.291-.185-.435-.279-.454-.297-.902-.606-1.338-.933-.045-.034-.088-.07-.133-.104.032-.018.064-.036.096-.054l7.907-4.313c1.36-.742 2.205-2.165 2.205-3.714l-.001-3.602-.23-.278c-.022-.025-2.184-2.655-3.001-6.216l-.091-.396-.341-.221c-.481-.311-.769-.831-.769-1.392v-3.545c0-.465.197-.898.557-1.223l.33-.298v-5.57l-.009-.131c-.003-.024-.298-2.429 1.396-4.36C21.583 10.837 24.061 10 27.5 10c3.426 0 5.896.83 7.346 2.466 1.692 1.911 1.415 4.361 1.413 4.381l-.009 5.701.33.298c.359.324.557.758.557 1.223v3.545c0 .713-.485 1.36-1.181 1.575l-.497.153-.16.495c-.59 1.833-1.43 3.526-2.496 5.032-.262.37-.517.698-.736.949l-.248.283V39.8c0 1.612.896 3.062 2.338 3.782l8.467 4.233c.054.027.107.055.16.083C42.677 47.979 42.567 48.054 42.459 48.132z"/></symbol><symbol id="remove" viewBox="0 0 212.982 212.982"><path style="fill-rule:evenodd;clip-rule:evenodd;" d="M131.804 106.491l75.936-75.936c6.99-6.99 6.99-18.323 0-25.312-6.99-6.99-18.322-6.99-25.312 0l-75.937 75.937L30.554 5.242c-6.99-6.99-18.322-6.99-25.312 0-6.989 6.99-6.989 18.323 0 25.312l75.937 75.936L5.242 182.427c-6.989 6.99-6.989 18.323 0 25.312 6.99 6.99 18.322 6.99 25.312 0l75.937-75.937 75.937 75.937c6.989 6.99 18.322 6.99 25.312 0 6.99-6.99 6.99-18.322 0-25.312L131.804 106.491z"/></symbol></svg>