<!DOCTYPE svg PUBLIC "-//W3C//DTD SVG 1.1//EN" "http://www.w3.org/Graphics/SVG/1.1/DTD/svg11.dtd">
<svg xmlns="http://www.w3.org/2000/svg">
  <symbol id="afisha-logo" viewBox="0 0 240 56">
      
          <path d="M36.0126949,19.9854092 C36.0126949,16.2553785 32.98934,14.6753169 29.5946959,14.6753169 L2.00731906,14.6753169 L2.00437232,19.9281169 L22.9704251,19.9281169 C24.5881852,19.9281169 25.9083245,20.5492862 25.9083245,22.4731015 L25.9171648,23.4500862 L5.94121653,23.4500862 C2.45522349,23.4500862 0.424919861,26.0342708 0.424919861,28.8777785 L0.424919861,35.1708862 C0.424919861,37.7158708 2.32556695,40.76744 5.94121653,40.76744 L35.9950144,40.76744 L36.0126949,19.9854092 Z M10.4968761,31.4046708 C10.4968761,30.0115631 11.2482947,28.8174708 13.4170951,28.8174708 L25.9171648,28.8174708 L25.9171648,35.1105785 L13.4760299,35.1105785 C11.0272892,35.1105785 10.4968761,33.5817785 10.4968761,32.7796862 L10.4968761,31.4046708 Z" id="Fill-1" />
          <path d="M239.934742,19.9854092 C239.934742,16.2553785 236.90844,14.6753169 233.516743,14.6753169 L205.926419,14.6753169 L205.926419,19.9281169 L226.892472,19.9281169 C228.510232,19.9281169 229.827425,20.5492862 229.827425,22.4731015 L229.839212,23.4500862 L209.863263,23.4500862 C206.374324,23.4500862 204.34402,26.0342708 204.34402,28.8777785 L204.34402,35.1708862 C204.34402,37.7158708 206.247614,40.76744 209.863263,40.76744 L239.917061,40.76744 L239.934742,19.9854092 Z M214.42187,31.4046708 C214.42187,30.0115631 215.170341,28.8174708 217.339142,28.8174708 L229.839212,28.8174708 L229.839212,35.1105785 L217.398077,35.1105785 C214.946389,35.1105785 214.42187,33.5817785 214.42187,32.7796862 L214.42187,31.4046708 Z" id="Fill-3" />
          <path d="M127.922684,27.5651815 L127.922684,40.7725662 L138.421917,40.76352 L138.421917,14.7437662 L127.922684,14.7437662 L112.853057,31.7414892 C112.853057,31.7414892 112.900205,30.3845662 112.900205,28.6989662 L112.900205,14.7437662 L102.412759,14.7437662 L102.412759,40.7725662 L112.900205,40.7725662 L127.996352,23.5848738 C127.996352,23.5848738 127.922684,26.2052431 127.922684,27.5651815" id="Fill-5" />
          <polygon id="Fill-7" points="199.578258 14.7437662 189.114385 14.7437662 189.114385 35.1096738 176.873629 35.1096738 176.873629 14.7437662 166.380289 14.7437662 166.380289 35.1096738 154.145426 35.1096738 154.145426 14.7437662 143.607885 14.7437662 143.607885 40.7725662 199.578258 40.7725662" />
          <path d="M87.5231777,32.4651815 C87.5231777,34.3950277 86.2030383,35.2574277 84.5793848,35.2574277 L74.5162688,35.2574277 L74.5162688,19.8759508 L84.5793848,19.8759508 C86.2030383,19.8759508 87.5231777,20.7353354 87.5231777,22.6651815 L87.5231777,32.4651815 Z M64.055343,35.2574277 L53.9892802,35.2574277 C52.3656267,35.2574277 51.048434,34.3950277 51.048434,32.4651815 L51.048434,22.6651815 C51.048434,20.7353354 52.3656267,19.8759508 53.9892802,19.8759508 L64.055343,19.8759508 L64.055343,35.2574277 Z M91.2066023,14.61712 L74.525109,14.61712 L74.525109,0.281981538 L64.0465027,0.281981538 L64.0465027,14.61712 L47.3650095,14.61712 C43.9703654,14.61712 40.9440637,16.1971815 40.9440637,19.9302277 L40.9440637,35.19712 C40.9440637,38.9331815 43.9703654,40.8841354 47.3650095,40.8841354 L64.0465027,40.8841354 L64.0465027,55.2192738 L74.525109,55.2192738 L74.525109,40.8841354 L91.2066023,40.8841354 C94.5982997,40.8841354 97.627548,38.9331815 97.627548,35.19712 L97.627548,19.9302277 C97.627548,16.1971815 94.5982997,14.61712 91.2066023,14.61712 L91.2066023,14.61712 Z" id="Fill-9" />
    
   </symbol>

  <symbol id="menu-events" x="0px" y="0px" viewBox="0 0 58 58">
    <path d="M46,34c-6.617,0-12,5.383-12,12s5.383,12,12,12s12-5.383,12-12S52.617,34,46,34z M46,56c-5.514,0-10-4.486-10-10s4.486-10,10-10s10,4.486,10,10S51.514,56,46,56z"/>
    <path d="M52,45h-5v-5c0-0.553-0.447-1-1-1s-1,0.447-1,1v6c0,0.553,0.447,1,1,1h6c0.553,0,1-0.447,1-1S52.553,45,52,45z"/>
    <path d="M27,21h-2h-7h-2H7v9v2v7v2v9h9h2h9v-9v-2v-7h7h2h9V21h-9h-2H27z M36,23h7v7h-7V23z M18,23h7v7h-7V23z M9,23h7v7H9V23zM9,32h7v7H9V32z M16,48H9v-7h7V48z M25,48h-7v-7h7V48z M25,39h-7v-7h7V39z M34,30h-7v-7h7V30z"/>
    <path d="M33,55H2V16h48v13c0,0.553,0.447,1,1,1s1-0.447,1-1V15V5c0-0.553-0.447-1-1-1h-5V1c0-0.553-0.447-1-1-1h-7c-0.553,0-1,0.447-1,1v3H15V1c0-0.553-0.447-1-1-1H7C6.447,0,6,0.447,6,1v3H1C0.447,4,0,4.447,0,5v10v41c0,0.553,0.447,1,1,1h32c0.553,0,1-0.447,1-1S33.553,55,33,55z M39,2h5v3v3h-5V5V2z M8,2h5v3v3H8V5V2z M2,6h4v3c0,0.553,0.447,1,1,1h7c0.553,0,1-0.447,1-1V6h22v3c0,0.553,0.447,1,1,1h7c0.553,0,1-0.447,1-1V6h4v8H2V6z"/>
  </symbol>
  <symbol id="menu-events-fav">
    <path d="M58.963,44.119c-0.116-0.367-0.434-0.634-0.814-0.688l-7.777-1.089l-3.472-6.78c-0.342-0.668-1.438-0.668-1.779,0l-3.472,6.78l-7.777,1.089c-0.381,0.054-0.698,0.32-0.814,0.688s-0.012,0.768,0.269,1.031l5.605,5.267l-1.321,7.427c-0.066,0.373,0.084,0.752,0.388,0.978c0.305,0.227,0.711,0.262,1.049,0.089l6.964-3.528l6.964,3.528c0.143,0.073,0.298,0.108,0.452,0.108c0.211,0,0.421-0.066,0.597-0.197c0.304-0.226,0.454-0.604,0.388-0.978l-1.321-7.427l5.605-5.267C58.974,44.887,59.079,44.486,58.963,44.119z M51.325,49.33c-0.246,0.231-0.359,0.571-0.3,0.903l1.064,5.987l-5.628-2.852c-0.143-0.072-0.297-0.108-0.452-0.108s-0.31,0.036-0.452,0.108l-5.628,2.852l1.064-5.987c0.06-0.332-0.054-0.672-0.3-0.903l-4.479-4.207l6.225-0.872c0.322-0.045,0.603-0.244,0.751-0.534l2.818-5.504l2.818,5.504c0.148,0.29,0.429,0.489,0.751,0.534l6.225,0.872L51.325,49.33z"/>
    <path d="M36.01,32h9V21h-9h-2h-7h-2h-7h-2h-9v9v2v7v2v9h9h2h9v-9h9V32z M36.01,23h7v7h-7V23z M27.01,23h7v7h-7V23z M18.01,23h7v7h-7V23z M25.01,39h-7v-7h7V39z M9.01,23h7v7h-7V23z M9.01,32h7v7h-7V32z M16.01,48h-7v-7h7V48z M25.01,48h-7v-7h7V48z M34.01,39h-7v-7h7V39z"/>
    <path d="M26.01,55h-24V16h48v17c0,0.553,0.447,1,1,1s1-0.447,1-1V15V5c0-0.553-0.447-1-1-1h-5V1c0-0.553-0.447-1-1-1h-7c-0.553,0-1,0.447-1,1v3h-22V1c0-0.553-0.447-1-1-1h-7c-0.553,0-1,0.447-1,1v3h-5c-0.553,0-1,0.447-1,1v10v41c0,0.553,0.447,1,1,1h25c0.553,0,1-0.447,1-1S26.562,55,26.01,55z M39.01,2h5v3v3h-5V5V2z M8.01,2h5v3v3h-5V5V2z M2.01,6h4v3c0,0.553,0.447,1,1,1h7c0.553,0,1-0.447,1-1V6h22v3c0,0.553,0.447,1,1,1h7c0.553,0,1-0.447,1-1V6h4v8h-48V6z"/>
  </symbol>
  <symbol id="menu-events-like">
    <path d="M55.955,41.109c-0.399-4.089-3.452-7.052-7.271-7.052c-2.396,0-4.407,1.449-5.684,3.213c-1.276-1.764-3.288-3.213-5.684-3.213c-3.819,0-6.871,2.963-7.271,7.052c-0.042,0.267-0.145,1.22,0.226,2.709c0.546,2.197,1.801,4.192,3.631,5.77l8.329,7.127c0.223,0.191,0.496,0.287,0.769,0.287c0.273,0,0.546-0.096,0.769-0.286l8.331-7.129c1.828-1.575,3.083-3.57,3.629-5.768C56.099,42.329,55.997,41.377,55.955,41.109z M53.788,43.337c-0.445,1.794-1.479,3.432-2.99,4.732l-7.797,6.672l-7.795-6.671c-1.513-1.303-2.547-2.94-2.992-4.734c-0.302-1.213-0.194-1.897-0.194-1.897l0.016-0.105c0.245-2.621,2.138-5.275,5.282-5.275c2.189,0,3.974,1.811,4.77,3.605l0.914,2.061l0.914-2.061c0.796-1.795,2.58-3.605,4.77-3.605c3.145,0,5.037,2.654,5.295,5.366C53.982,41.431,54.092,42.115,53.788,43.337z"/>
    <path d="M37.001,32h9V21h-9h-2h-7h-2h-7h-2h-9v9v2v7v2v9h9h2h9v-9v-2v-7h7H37.001z M37.001,23h7v7h-7V23z M19.001,23h7v7h-7V23zM10.001,23h7v7h-7V23z M10.001,32h7v7h-7V32z M17.001,48h-7v-7h7V48z M26.001,48h-7v-7h7V48z M26.001,39h-7v-7h7V39z M28.001,30v-7h7v7H28.001z"/>
    <path d="M27.001,55h-24V16h48v13c0,0.553,0.447,1,1,1s1-0.447,1-1V15V5c0-0.553-0.447-1-1-1h-5V1c0-0.553-0.447-1-1-1h-7c-0.553,0-1,0.447-1,1v3h-22V1c0-0.553-0.447-1-1-1h-7c-0.553,0-1,0.447-1,1v3h-5c-0.553,0-1,0.447-1,1v10v41c0,0.553,0.447,1,1,1h25c0.553,0,1-0.447,1-1S27.554,55,27.001,55z M40.001,2h5v3v3h-5V5V2z M9.001,2h5v3v3h-5V5V2z M3.001,6h4v3c0,0.553,0.447,1,1,1h7c0.553,0,1-0.447,1-1V6h22v3c0,0.553,0.447,1,1,1h7c0.553,0,1-0.447,1-1V6h4v8h-48V6z"/>
  </symbol>

  <symbol id="menu-movies" x="0px" y="0px" viewBox="0 0 59 59">
    <path d="M58,57c-4.411,0-8-3.589-8-8c0-0.009-0.005-0.017-0.005-0.026C54.949,43.769,58,36.736,58,29C58,13.01,44.99,0,29,0
		S0,13.01,0,29s13.01,29,29,29c7.34,0,14.048-2.747,19.162-7.26C48.989,55.426,53.081,59,58,59c0.553,0,1-0.447,1-1S58.553,57,58,57
		z M2,29C2,14.112,14.112,2,29,2s27,12.112,27,27S43.888,56,29,56S2,43.888,2,29z"/>
    <path d="M29,4C15.215,4,4,15.215,4,29s11.215,25,25,25s25-11.215,25-25S42.785,4,29,4z M29,52C16.317,52,6,41.683,6,29
		S16.317,6,29,6s23,10.317,23,23S41.683,52,29,52z"/>
    <path d="M41,22c-0.332,0-0.656,0.031-0.976,0.076l-0.023-0.041l-0.75,0.192c-0.01,0.003-0.019,0.007-0.029,0.01
		c-0.369,0.097-0.727,0.22-1.07,0.374c-0.015,0.007-0.029,0.015-0.044,0.021c-0.336,0.153-0.659,0.328-0.964,0.531
		c-0.008,0.005-0.017,0.01-0.024,0.015c-0.282,0.189-0.546,0.402-0.797,0.629c-0.051,0.046-0.102,0.091-0.152,0.138
		c-0.232,0.222-0.45,0.459-0.65,0.711c-0.043,0.054-0.082,0.11-0.124,0.165c-0.199,0.266-0.385,0.541-0.545,0.834
		c-0.003,0.006-0.007,0.012-0.01,0.019c-0.161,0.297-0.294,0.611-0.412,0.932c-0.021,0.057-0.043,0.114-0.063,0.172
		c-0.106,0.315-0.189,0.64-0.25,0.973c-0.011,0.062-0.019,0.125-0.029,0.188C34.036,28.286,34,28.638,34,29s0.036,0.714,0.089,1.062
		c0.01,0.063,0.017,0.125,0.029,0.188c0.06,0.333,0.144,0.658,0.25,0.973c0.019,0.058,0.042,0.114,0.063,0.171
		c0.117,0.321,0.251,0.635,0.412,0.932c0.003,0.006,0.007,0.012,0.01,0.019c0.16,0.293,0.346,0.568,0.544,0.833
		c0.041,0.055,0.081,0.111,0.124,0.166c0.2,0.252,0.417,0.489,0.65,0.711c0.05,0.047,0.101,0.092,0.152,0.138
		c0.252,0.227,0.515,0.44,0.798,0.629c0.008,0.005,0.016,0.01,0.024,0.015c0.305,0.202,0.628,0.377,0.964,0.531
		c0.015,0.007,0.029,0.015,0.044,0.021c0.343,0.154,0.7,0.277,1.069,0.374c0.01,0.003,0.019,0.007,0.029,0.01l0.75,0.192
		l0.023-0.041C40.344,35.969,40.668,36,41,36c3.859,0,7-3.141,7-7S44.859,22,41,22z M40,29c0,1.579-0.344,3.146-0.999,4.577
		c-0.25-0.11-0.488-0.241-0.714-0.388c-0.081-0.052-0.154-0.112-0.232-0.169c-0.163-0.12-0.32-0.248-0.468-0.386
		c-0.068-0.063-0.135-0.127-0.198-0.193c-0.168-0.177-0.324-0.365-0.466-0.564c-0.025-0.036-0.055-0.067-0.08-0.104
		c-0.159-0.237-0.293-0.491-0.41-0.754c-0.033-0.075-0.059-0.154-0.089-0.231c-0.078-0.203-0.144-0.412-0.195-0.627
		c-0.021-0.086-0.043-0.172-0.059-0.26C36.037,29.608,36,29.308,36,29s0.037-0.608,0.091-0.901c0.016-0.088,0.038-0.174,0.059-0.26
		c0.051-0.215,0.117-0.424,0.195-0.627c0.03-0.077,0.056-0.156,0.089-0.231c0.117-0.263,0.251-0.517,0.41-0.754
		c0.024-0.036,0.055-0.068,0.08-0.104c0.141-0.2,0.297-0.388,0.466-0.564c0.064-0.067,0.131-0.13,0.198-0.193
		c0.147-0.139,0.304-0.266,0.468-0.386c0.077-0.056,0.151-0.116,0.232-0.169c0.227-0.147,0.464-0.278,0.714-0.388
		C39.656,25.854,40,27.421,40,29z M41,34c-0.005,0-0.009-0.001-0.014-0.001C41.645,32.419,42,30.718,42,29s-0.355-3.419-1.014-4.999
		C40.991,24.001,40.995,24,41,24c2.757,0,5,2.243,5,5S43.757,34,41,34z"/>
    <path d="M22.479,33.344c0.043-0.054,0.082-0.11,0.124-0.165c0.198-0.265,0.384-0.54,0.544-0.832
		c0.004-0.007,0.008-0.014,0.012-0.022c0.161-0.297,0.294-0.61,0.411-0.931c0.021-0.057,0.043-0.113,0.063-0.171
		c0.106-0.315,0.19-0.64,0.25-0.974c0.011-0.062,0.019-0.125,0.029-0.187C23.964,29.715,24,29.362,24,29s-0.036-0.715-0.089-1.062
		c-0.01-0.063-0.017-0.125-0.029-0.187c-0.06-0.333-0.144-0.658-0.25-0.974c-0.019-0.058-0.042-0.114-0.063-0.172
		c-0.117-0.321-0.25-0.634-0.411-0.93c-0.004-0.007-0.008-0.014-0.012-0.022c-0.16-0.292-0.346-0.568-0.544-0.833
		c-0.041-0.055-0.081-0.111-0.123-0.165c-0.2-0.252-0.417-0.489-0.65-0.711c-0.05-0.047-0.101-0.092-0.152-0.138
		c-0.252-0.227-0.515-0.44-0.798-0.629c-0.008-0.005-0.016-0.009-0.024-0.014c-0.305-0.202-0.628-0.377-0.964-0.531
		c-0.015-0.007-0.03-0.015-0.045-0.022c-0.343-0.153-0.701-0.277-1.07-0.374c-0.01-0.003-0.019-0.007-0.028-0.01l-0.75-0.192
		l-0.023,0.041C17.656,22.031,17.332,22,17,22c-3.859,0-7,3.141-7,7s3.141,7,7,7c0.332,0,0.656-0.031,0.976-0.076l0.023,0.041
		l0.75-0.192c0.01-0.003,0.019-0.007,0.029-0.01c0.369-0.097,0.727-0.22,1.069-0.374c0.015-0.007,0.03-0.015,0.045-0.022
		c0.336-0.153,0.659-0.329,0.964-0.531c0.008-0.005,0.016-0.009,0.023-0.014c0.283-0.189,0.546-0.402,0.798-0.629
		c0.051-0.046,0.102-0.091,0.152-0.138C22.061,33.833,22.279,33.596,22.479,33.344z M21.909,29.901
		c-0.016,0.088-0.038,0.174-0.059,0.26c-0.051,0.215-0.117,0.424-0.195,0.627c-0.03,0.077-0.056,0.156-0.089,0.231
		c-0.117,0.263-0.251,0.517-0.41,0.754c-0.024,0.036-0.055,0.068-0.08,0.104c-0.141,0.2-0.297,0.388-0.466,0.564
		c-0.064,0.067-0.131,0.13-0.198,0.193c-0.147,0.139-0.304,0.266-0.468,0.386c-0.077,0.056-0.151,0.116-0.232,0.169
		c-0.227,0.147-0.464,0.278-0.714,0.388C18.344,32.146,18,30.579,18,29s0.344-3.146,0.999-4.577c0.25,0.11,0.488,0.241,0.714,0.388
		c0.081,0.052,0.154,0.112,0.232,0.169c0.163,0.12,0.32,0.248,0.468,0.386c0.068,0.063,0.135,0.127,0.198,0.193
		c0.168,0.177,0.324,0.365,0.466,0.564c0.025,0.036,0.055,0.067,0.08,0.104c0.159,0.237,0.293,0.491,0.41,0.754
		c0.033,0.075,0.059,0.154,0.089,0.231c0.078,0.203,0.144,0.412,0.195,0.627c0.021,0.086,0.043,0.172,0.059,0.26
		C21.963,28.392,22,28.692,22,29S21.963,29.608,21.909,29.901z M12,29c0-2.757,2.243-5,5-5c0.005,0,0.009,0.001,0.014,0.001
		C16.355,25.581,16,27.282,16,29s0.355,3.419,1.014,4.999C17.009,33.999,17.005,34,17,34C14.243,34,12,31.757,12,29z"/>
    <path d="M22.035,17.999l0.192,0.75c0.003,0.01,0.007,0.019,0.01,0.029c0.097,0.369,0.22,0.727,0.374,1.069
		c0.007,0.015,0.015,0.029,0.021,0.044c0.153,0.336,0.329,0.659,0.531,0.964c0.005,0.008,0.01,0.016,0.015,0.024
		c0.189,0.282,0.402,0.546,0.629,0.798c0.046,0.051,0.091,0.102,0.138,0.152c0.222,0.232,0.459,0.45,0.711,0.65
		c0.054,0.043,0.11,0.083,0.165,0.124c0.266,0.199,0.541,0.385,0.834,0.545c0.006,0.004,0.012,0.007,0.019,0.01
		c0.297,0.161,0.611,0.294,0.932,0.412c0.057,0.021,0.113,0.043,0.171,0.063c0.315,0.106,0.64,0.189,0.973,0.25
		c0.062,0.011,0.125,0.019,0.188,0.029C28.286,23.964,28.638,24,29,24s0.714-0.036,1.062-0.089c0.063-0.01,0.125-0.017,0.188-0.029
		c0.333-0.06,0.658-0.144,0.973-0.25c0.058-0.019,0.114-0.042,0.172-0.063c0.321-0.117,0.635-0.251,0.932-0.412
		c0.006-0.003,0.012-0.007,0.019-0.01c0.293-0.16,0.568-0.346,0.834-0.545c0.055-0.041,0.111-0.081,0.165-0.124
		c0.252-0.2,0.489-0.417,0.711-0.65c0.047-0.05,0.092-0.101,0.138-0.152c0.227-0.251,0.44-0.515,0.629-0.797
		c0.005-0.008,0.01-0.016,0.015-0.024c0.202-0.305,0.377-0.628,0.531-0.964c0.007-0.015,0.015-0.029,0.021-0.044
		c0.153-0.343,0.277-0.701,0.374-1.07c0.003-0.01,0.007-0.019,0.01-0.029l0.192-0.75l-0.041-0.023C35.969,17.656,36,17.332,36,17
		c0-3.859-3.141-7-7-7s-7,3.141-7,7c0,0.332,0.031,0.656,0.076,0.976L22.035,17.999z M33.189,19.713
		c-0.052,0.081-0.112,0.154-0.169,0.231c-0.12,0.163-0.248,0.32-0.386,0.468c-0.063,0.067-0.127,0.135-0.193,0.198
		c-0.177,0.168-0.365,0.324-0.564,0.466c-0.036,0.025-0.067,0.055-0.104,0.08c-0.237,0.159-0.491,0.293-0.754,0.41
		c-0.075,0.033-0.154,0.059-0.231,0.089c-0.203,0.078-0.412,0.144-0.627,0.195c-0.086,0.021-0.172,0.043-0.26,0.059
		C29.608,21.963,29.308,22,29,22s-0.608-0.037-0.901-0.091c-0.088-0.016-0.174-0.038-0.26-0.059
		c-0.215-0.051-0.424-0.117-0.627-0.195c-0.077-0.03-0.155-0.056-0.231-0.089c-0.263-0.117-0.517-0.251-0.754-0.41
		c-0.036-0.024-0.068-0.055-0.104-0.08c-0.2-0.141-0.388-0.298-0.564-0.466c-0.067-0.064-0.13-0.131-0.193-0.198
		c-0.138-0.147-0.266-0.304-0.386-0.468c-0.056-0.077-0.116-0.151-0.169-0.231c-0.147-0.227-0.279-0.464-0.388-0.714
		c2.861-1.31,6.292-1.31,9.154,0C33.467,19.249,33.336,19.487,33.189,19.713z M29,12c2.757,0,5,2.243,5,5
		c0,0.006-0.002,0.012-0.002,0.018c-3.165-1.302-6.832-1.302-9.996,0C24.002,17.012,24,17.006,24,17C24,14.243,26.243,12,29,12z"/>
    <path d="M35.965,40.001l-0.192-0.75c-0.003-0.01-0.007-0.019-0.01-0.028c-0.097-0.369-0.221-0.727-0.374-1.07
		c-0.007-0.015-0.015-0.03-0.022-0.045c-0.153-0.336-0.329-0.659-0.531-0.964c-0.005-0.008-0.009-0.016-0.014-0.024
		c-0.189-0.283-0.402-0.546-0.629-0.798c-0.046-0.051-0.091-0.102-0.138-0.152c-0.222-0.233-0.459-0.45-0.711-0.65
		c-0.054-0.043-0.11-0.082-0.165-0.123c-0.265-0.198-0.54-0.384-0.833-0.544c-0.007-0.004-0.014-0.008-0.022-0.012
		c-0.297-0.161-0.61-0.294-0.93-0.411c-0.057-0.021-0.114-0.043-0.172-0.063c-0.315-0.106-0.64-0.189-0.974-0.25
		c-0.062-0.011-0.124-0.019-0.187-0.029C29.715,34.036,29.362,34,29,34s-0.715,0.036-1.062,0.089
		c-0.063,0.01-0.125,0.017-0.187,0.029c-0.333,0.061-0.658,0.144-0.974,0.25c-0.058,0.019-0.114,0.042-0.171,0.063
		c-0.321,0.117-0.634,0.25-0.931,0.411c-0.007,0.004-0.014,0.008-0.022,0.012c-0.292,0.16-0.567,0.345-0.832,0.544
		c-0.055,0.041-0.111,0.081-0.165,0.124c-0.252,0.2-0.489,0.417-0.711,0.65c-0.047,0.05-0.092,0.101-0.138,0.152
		c-0.227,0.251-0.44,0.515-0.629,0.798c-0.005,0.008-0.009,0.016-0.014,0.024c-0.202,0.305-0.378,0.628-0.531,0.964
		c-0.007,0.015-0.015,0.03-0.022,0.045c-0.153,0.343-0.277,0.7-0.374,1.069c-0.003,0.01-0.008,0.019-0.01,0.029l-0.192,0.75
		l0.041,0.023C22.031,40.344,22,40.668,22,41c0,3.859,3.141,7,7,7s7-3.141,7-7c0-0.332-0.031-0.656-0.076-0.976L35.965,40.001z
		 M24.811,38.287c0.052-0.081,0.112-0.154,0.169-0.231c0.12-0.163,0.248-0.32,0.386-0.468c0.063-0.067,0.127-0.135,0.193-0.198
		c0.177-0.168,0.365-0.324,0.564-0.466c0.036-0.025,0.067-0.055,0.104-0.08c0.237-0.159,0.491-0.293,0.754-0.41
		c0.075-0.033,0.154-0.059,0.231-0.089c0.203-0.078,0.412-0.144,0.627-0.195c0.086-0.021,0.172-0.043,0.26-0.059
		C28.392,36.037,28.692,36,29,36s0.608,0.037,0.901,0.091c0.088,0.016,0.174,0.038,0.26,0.059c0.215,0.051,0.424,0.117,0.627,0.195
		c0.077,0.03,0.155,0.056,0.231,0.089c0.263,0.117,0.517,0.251,0.754,0.41c0.036,0.024,0.068,0.055,0.104,0.08
		c0.2,0.141,0.388,0.298,0.564,0.466c0.067,0.064,0.13,0.131,0.193,0.198c0.138,0.147,0.266,0.304,0.386,0.468
		c0.056,0.077,0.116,0.151,0.169,0.231c0.147,0.227,0.279,0.464,0.388,0.714c-2.861,1.31-6.292,1.31-9.154,0
		C24.533,38.751,24.664,38.513,24.811,38.287z M29,46c-2.757,0-5-2.243-5-5c0-0.005,0.001-0.009,0.001-0.014
		C25.581,41.645,27.282,42,29,42s3.419-0.355,4.999-1.014C33.999,40.991,34,40.995,34,41C34,43.757,31.757,46,29,46z"/>
  </symbol>

  <symbol id="menu-theaters" x="0px" y="0px" viewBox="0 0 512 512">
    <path d="M504.396,25.347H139.409c-4.199,0-7.604,3.405-7.604,7.604c0,4.199,3.405,7.604,7.604,7.604h357.383v23.823h-31.427
			H46.635H15.208V40.555h39.037c4.199,0,7.604-3.405,7.604-7.604c0-4.199-3.405-7.604-7.604-7.604H7.604
			C3.405,25.347,0,28.751,0,32.951v39.031v377.159v29.909c0,4.199,3.405,7.604,7.604,7.604h496.792c4.2,0,7.604-3.405,7.604-7.604
			v-29.909V71.982V32.951C512,28.751,508.596,25.347,504.396,25.347z M472.969,295.034V267.66v-0.016c0-0.016,0-0.033,0-0.05V79.586
			h23.823v361.952h-23.823V295.034z M433.414,79.586h24.348v121.492C432.278,154.061,432.462,98.582,433.414,79.586z
			 M396.798,79.584h21.361v0.001c-0.475,9.591-0.703,26.572,1.696,47.018c3.339,28.463,12.647,69.09,37.907,102.559v2.034
			c-29.456-19.046-48.624-49.788-57.032-91.592C395.531,113.753,396.084,90.532,396.798,79.584z M381.539,79.584L381.539,79.584
			c-0.754,12.136-1.138,35.791,4.192,62.572c9.812,49.311,34.677,86.109,72.031,106.75v1.121
			c-10.323-4.056-27.793-12.642-45.082-29.042c-34.592-32.814-52.796-80.364-54.183-141.401H381.539z M427.006,302.638h15.948
			l-46.977,138.899h-15.948L427.006,302.638z M363.974,441.537h-16.773l46.977-138.899h16.773L363.974,441.537z M457.761,306.323
			v135.214h-45.73L457.761,306.323z M453.553,287.43h-31.815c-0.003,0-0.007,0-0.01,0h-25.402v-12.166h61.435v12.166H453.553z
			 M343.282,79.586c0.779,34.956,6.962,66.304,18.417,93.268c9.919,23.348,23.773,43.465,41.179,59.793
			c10.429,9.782,20.844,17.001,30.039,22.276c-45.69-12-112.869-50.868-115.497-175.337H343.282z M302.215,79.584
			c0.846,40.811,8.535,76.155,22.899,105.144c12.529,25.286,30.148,45.869,52.365,61.175c8.366,5.764,16.812,10.409,25.055,14.153
			h-12.547c-5.474-1.948-32.363-12.364-58.863-37.51c-37.809-35.878-57.729-83.95-59.297-142.962H302.215z M240.179,79.586
			c-0.983,36.16-9.018,68.606-23.929,96.536c-1.978,3.705-0.578,8.312,3.127,10.289c1.141,0.609,2.366,0.897,3.575,0.897
			c2.717,0,5.345-1.46,6.715-4.024c16.09-30.14,24.731-64.995,25.728-103.698h1.219c0.874,33.848,7.602,64.834,20.047,92.201
			c10.748,23.63,25.734,44.594,44.545,62.31c24.747,23.307,49.356,34.698,59.915,38.878v20.81l-49.972,147.753H180.854
			l-49.972-147.753v-20.81c10.559-4.18,35.169-15.571,59.915-38.878c3.057-2.879,3.202-7.691,0.322-10.749
			c-2.879-3.057-7.691-3.201-10.749-0.322c-26.333,24.8-52.919,35.097-58.357,37.031h-12.547
			c8.243-3.744,16.689-8.389,25.055-14.153c22.218-15.307,39.836-35.89,52.366-61.175c14.364-28.988,22.054-64.333,22.898-105.143
			H240.179z M69.046,302.638h15.948l46.977,138.899h-15.948L69.046,302.638z M99.97,441.537H54.239V306.324L99.97,441.537z
			 M101.049,302.638h16.774L164.8,441.537h-16.772L101.049,302.638z M194.58,79.584v0.001
			c-2.628,124.468-69.807,163.337-115.497,175.337c9.195-5.274,19.61-12.493,30.039-22.276
			c17.406-16.327,31.26-36.445,41.179-59.794c11.456-26.964,17.638-58.311,18.418-93.268H194.58z M54.239,79.586h24.348
			c0.952,18.997,1.136,74.476-24.348,121.492V79.586z M54.239,229.164c25.259-33.47,34.569-74.097,37.907-102.559
			c2.399-20.446,2.172-37.427,1.696-47.018h21.368v-0.001c0.715,10.862,1.27,33.837-3.856,59.603
			c-8.36,42.016-27.557,72.897-57.115,92.009V229.164z M54.239,248.907c37.353-20.641,62.219-57.439,72.031-106.75
			c5.329-26.782,4.946-50.437,4.192-62.57h23.042c-1.387,61.035-19.591,108.587-54.183,141.4
			c-17.288,16.399-34.759,24.987-45.082,29.043V248.907z M54.238,275.263h0.001h61.435v12.166H90.266c-0.001,0-0.002,0-0.003,0
			H58.447h-4.209V275.263z M15.208,79.586h23.823v188.008c0,0.016,0,0.033,0,0.05v0.016v27.374v146.503H15.208V79.586z
			 M496.794,471.446h-0.002H15.208v-14.701h31.427h63.934h32.003h32.827h161.204h32.828h32.002h63.934h31.427V471.446z"/>
  </symbol>

  <symbol id="menu-galleries" x="0px" y="0px" viewBox="0 0 512.002 512.002">
    <path d="M107.666,236.357h296.671c4.872,0,8.821-3.95,8.821-8.821V8.821c0-4.872-3.95-8.821-8.821-8.821H107.666
				c-4.872,0-8.821,3.95-8.821,8.821v218.715C98.844,232.408,102.794,236.357,107.666,236.357z M128.961,218.715l15.564-15.564
				h222.951l15.564,15.564H128.961z M149.693,185.509V50.849h212.616v134.66H149.693z M395.514,206.239l-15.563-15.564V45.681
				l15.563-15.563V206.239z M383.04,17.642l-15.563,15.564H144.526l-15.565-15.564H383.04z M116.487,30.117l15.564,15.564v144.995
				l-15.564,15.564V30.117z"/>
    <path d="M497.507,494.358h-13.884V314.417c0-0.034-0.005-0.067-0.005-0.101c6.303-5.955,10.249-14.38,10.249-23.715
				c0-17.996-14.641-32.637-32.637-32.637c-17.996,0-32.637,14.641-32.637,32.637c0,9.335,3.945,17.76,10.249,23.715
				c0,0.034-0.005,0.067-0.005,0.101v26.47c-21.829,20.745-50.306,32.134-80.535,32.134c-30.165,0-58.585-11.343-80.397-32.004
				v-26.6c0-0.034-0.005-0.067-0.005-0.101c6.303-5.955,10.249-14.38,10.249-23.715c0-17.996-14.641-32.637-32.637-32.637
				c-17.996,0-32.637,14.641-32.637,32.637c0,9.335,3.945,17.76,10.249,23.715c0,0.034-0.005,0.067-0.005,0.101v26.928
				c-21.765,20.452-50.041,31.677-80.044,31.677c-29.94,0-58.16-11.178-79.907-31.549v-27.055c0-0.034-0.005-0.067-0.005-0.101
				c6.303-5.955,10.249-14.38,10.249-23.715c0-17.996-14.641-32.637-32.637-32.637c-17.996,0-32.637,14.641-32.637,32.637
				c0,9.335,3.945,17.76,10.249,23.715c0,0.034-0.005,0.067-0.005,0.101V494.36H14.494c-4.872,0-8.821,3.95-8.821,8.821
				c0,4.872,3.949,8.821,8.821,8.821h22.707h27.144h177.593h27.144h178.574h27.144h22.707c4.872,0,8.821-3.95,8.821-8.821
				C506.329,498.31,502.379,494.358,497.507,494.358z M55.524,494.359h-9.502v-0.001V323.238h9.502V494.359z M50.773,305.596
				c-8.268,0-14.995-6.726-14.995-14.995c0-8.268,6.726-14.995,14.995-14.995c8.268,0,14.995,6.726,14.995,14.995
				C65.767,298.87,59.041,305.596,50.773,305.596z M233.117,494.359H73.167V364.418c23.008,17.038,50.749,26.246,79.907,26.246
				c29.214,0,57.009-9.242,80.044-26.345V494.359z M260.261,494.359h-9.502v-0.001V323.238h9.502V494.359z M255.51,305.596
				c-8.268,0-14.995-6.726-14.995-14.995c0-8.268,6.726-14.995,14.995-14.995c8.268,0,14.995,6.726,14.995,14.995
				C270.505,298.87,263.778,305.596,255.51,305.596z M438.835,494.358H277.903V364.05c23.104,17.272,51.032,26.614,80.397,26.614
				c29.424,0,57.404-9.381,80.535-26.719V494.358z M465.98,494.359h-9.502v-0.001V323.238h9.502V494.359z M461.228,305.596
				c-8.268,0-14.995-6.726-14.995-14.995c0-8.268,6.726-14.995,14.995-14.995s14.995,6.726,14.995,14.995
				C476.223,298.87,469.497,305.596,461.228,305.596z"/>
  </symbol>
    <symbol id="menu-museums" viewBox="0 0 512 512">
        <g>
            <g>
                <path d="M252.079,253.522c-4.688-2.921-10.855-1.488-13.774,3.201l-3.352,5.38c-3.994,6.413-10.889,10.241-18.443,10.241h-11.716
            c-5.523,0-10,4.477-10,10s4.477,10,10,10h11.716c14.507,0,27.748-7.352,35.419-19.666l3.352-5.38
            C258.199,262.608,256.766,256.442,252.079,253.522z" />
            </g>
        </g>
        <g>
            <g>
                <path d="M248.162,395.46c-2.773-4.775-8.893-6.398-13.668-3.626l-0.045,0.026c-4.776,2.773-6.377,8.88-3.604,13.655
            c1.854,3.192,5.213,4.97,8.663,4.97c1.712,0,3.446-0.438,5.029-1.357C249.311,406.355,250.935,400.236,248.162,395.46z" />
            </g>
        </g>
        <g>
            <g>
                <path d="M377.439,491.999h-0.192c-5.523,0-10,4.477-10,10c0,5.523,4.477,10,10,10h0.192c5.523,0,10-4.477,10-10
            C387.438,496.476,382.961,491.999,377.439,491.999z" />
            </g>
        </g>
        <g>
            <g>
                <path d="M337.659,272.257l8.296-8.958c7.846-8.471,12.167-19.493,12.167-31.039v-22.322c0-15.154-10.217-28.501-24.846-32.457
            l-41.485-11.218v-14.73c2.583-2.583,5.033-5.445,7.32-8.59c11.055-15.2,17.142-35.244,17.142-56.439
            c0-28.47-10.637-56.118-27.781-72.278c-10.869-11.703-30.293-16.61-52.087-13.129c-14.416,2.302-31.58,8.967-40.199,20.969
            c-15.68,2.355-27.654,10.406-33.29,22.579c-6.216,13.426-3.763,29.713,6.683,45.079c1.82,28.824,20.766,41.093,34.401,44.666
            c4.617,8.409,10.335,15.441,16.812,20.87v12.516l-63.713,29.846c-15.54,7.279-25.581,23.07-25.581,40.23v41.507
            c0,12.489,10.161,22.648,22.648,22.648h15.215l8.912,33.666c-4.945,12.377-22.145,57.21-22.145,81.996
            c0,20.552,17.264,54.467,28.48,74.33h-50.045c-5.523,0-10,4.477-10,10s4.477,10,10,10h213.557c5.523,0,10-4.477,10-10
            c0-5.523-4.477-10-10-10h-16.946c8.86-25.413,25.019-80.03,14.528-115.188c-5.021-16.827-23.383-42.746-30.223-52.043
            l3.845-42.017C326.303,281.204,332.738,277.569,337.659,272.257z M295.746,76.757c0.334,3.226,0.507,6.486,0.507,9.749
            c0,17.001-4.729,32.868-13.317,44.676c-7.89,10.849-18.075,16.823-28.681,16.823c-11.645,0-22.788-7.302-30.746-19.853
            c8.191-7.575,16.432-19.489,15.711-33.542c14.404-3.482,25.159-15.352,30.476-33.863
            C279.997,64.398,290.228,71.988,295.746,76.757z M218.619,79.747c-2.063,2.914-2.416,6.711-0.925,9.956
            c5.146,11.199-4.253,20.913-9.371,25.132c-6.134-1.792-18.496-7.967-18.877-28.67c-0.038-2.087-0.729-4.11-1.975-5.785
            c-7.475-10.046-9.817-20.008-6.426-27.333c3.092-6.68,11.052-10.907,21.838-11.599c3.71-0.238,6.983-2.515,8.496-5.911
            c2.429-5.455,12.882-12.252,28.16-14.692c3.502-0.559,6.929-0.831,10.203-0.831c10.594,0,19.571,2.843,24.205,7.962
            c0.191,0.211,0.392,0.415,0.601,0.609c5.093,4.74,9.49,11.04,12.967,18.308c-7.418-3.965-15.881-7.244-24.47-8.049
            c-5.246-0.483-9.968,3.166-10.806,8.364c-2.22,13.766-8.28,29.852-24.54,28.36C224.14,75.235,220.682,76.833,218.619,79.747z
             M316.832,362.724c4.382,7.321,8.124,14.498,9.708,19.806c9.76,32.712-9.642,90.491-16.634,109.471h-82.375
            c53.261-26.881,74.895-66.134,83.542-96.267C314.484,383.845,316.152,372.597,316.832,362.724z M311.697,263.599h-42.076
            c-5.523,0-10,4.477-10,10c0,5.523,4.477,10,10,10h29.546l-3.872,42.312c-1.072,3.641-9.13,27.778-39.611,51.68
            c-4.346,3.408-5.107,9.694-1.699,14.039c3.408,4.347,9.695,5.106,14.039,1.699c12.485-9.791,21.752-19.682,28.594-28.65
            c-0.719,7.786-2.16,16.451-4.768,25.539c-11.99,41.779-42.288,72.506-90.087,91.442c-7.602-13.556-16.771-31.494-21.825-46.249
            c14.045-3.873,27.302-8.467,39.494-13.726c5.071-2.188,7.409-8.072,5.221-13.142c-2.188-5.072-8.073-7.408-13.143-5.221
            c-10.905,4.704-22.757,8.85-35.336,12.384c0.936-20.893,15.956-61.293,21.857-75.535c0.839-2.024,0.99-4.27,0.429-6.388
            l-18.07-68.265c-1.185-4.478-5.227-7.426-9.65-7.431c-0.327,0-0.655,0.016-0.985,0.048c-0.043,0.004-0.087,0.009-0.13,0.014
            c-0.237,0.026-0.474,0.059-0.712,0.103c-4.878,0.83-9.366,4.846-9.366,9.759v13.999h-5.401c-1.461,0-2.649-1.188-2.649-2.649
            v-41.507c0-9.436,5.521-18.117,14.065-22.12l66.154-30.989c5.513-2.583,9.076-8.186,9.076-14.273v-4.378
            c4.363,1.253,8.871,1.91,13.462,1.91c6.044,0,11.927-1.125,17.536-3.259v1.817c0,8.838,5.959,16.623,14.491,18.931l41.772,11.296
            c5.928,1.603,10.067,7.011,10.067,13.15v22.322c0,6.491-2.429,12.688-6.839,17.449l-8.296,8.957
            C320.084,261.801,315.969,263.599,311.697,263.599z" />
            </g>
        </g>
    </symbol>
  <symbol id="menu-concerts" x="0px" y="0px" viewBox="0 0 550.47 550.47">
    <path d="M265.828,305.801c2.844,3.011,2.709,7.758-0.302,10.602c-1.449,1.369-3.301,2.048-5.148,2.048
	c-1.992,0-3.979-0.788-5.454-2.35l-33.951-35.945c-2.844-3.011-2.709-7.758,0.302-10.602c3.012-2.844,7.759-2.708,10.602,0.302
	L265.828,305.801z M549.556,46.357L527.45,86.93l2.245,1.223c1.747,0.952,3.043,2.558,3.606,4.466
	c0.562,1.908,0.343,3.961-0.608,5.708l-12.797,23.488c-1.361,2.498-3.935,3.913-6.593,3.913c-1.212,0-2.442-0.294-3.582-0.916
	l-16.563-9.023l-58.688,371.69c-0.562,14.529-17.276,26.28-49.723,34.933c-29.104,7.761-67.671,12.035-108.598,12.035
	c-40.927,0-79.495-4.274-108.599-12.035c-32.448-8.653-49.161-20.404-49.723-34.933L58.995,114.872l-18.248,9.942
	c-1.111,0.605-2.346,0.914-3.588,0.914c-0.711,0-1.425-0.101-2.12-0.306c-1.908-0.563-3.515-1.859-4.466-3.606L17.777,98.327
	c-1.982-3.637-0.64-8.192,2.998-10.174l2.245-1.223L0.914,46.357c-0.952-1.747-1.17-3.8-0.608-5.708
	c0.563-1.908,1.859-3.515,3.606-4.466l35.324-19.245c3.639-1.982,8.193-0.639,10.174,2.998l22.105,40.574l2.245-1.223
	c3.638-1.981,8.193-0.64,10.174,2.998l12.797,23.488c0.952,1.747,1.17,3.8,0.608,5.708c-0.563,1.908-1.859,3.515-3.606,4.466
	l-17.554,9.563l126.605,133.639c2.849,3.007,2.72,7.754-0.287,10.603c-3.008,2.848-7.755,2.719-10.603-0.287L76.14,127.277
	l52.281,331.115l136.705-346.319H245.98c-4.142,0-7.5-3.358-7.5-7.5V77.825c0-4.142,3.358-7.5,7.5-7.5h2.557V24.12
	c0-4.142,3.358-7.5,7.5-7.5h40.226c4.142,0,7.5,3.358,7.5,7.5v46.205h2.557c4.142,0,7.5,3.358,7.5,7.5v26.748
	c0,4.142-3.358,7.5-7.5,7.5h-19.146l136.705,346.319l52.339-331.482L356.973,250.57c-2.875,2.981-7.623,3.068-10.605,0.193
	c-2.981-2.875-3.068-7.623-0.193-10.605l129.246-134.033l-18.685-10.18c-1.747-0.952-3.043-2.558-3.606-4.466
	c-0.562-1.908-0.343-3.961,0.608-5.708l12.797-23.488c1.981-3.637,6.536-4.98,10.174-2.998l2.245,1.223l22.105-40.574
	c1.981-3.637,6.537-4.98,10.174-2.998l35.324,19.245c1.747,0.952,3.044,2.558,3.606,4.466
	C550.726,42.556,550.507,44.609,549.556,46.357z M532.795,45.766l-22.152-12.069l-18.517,33.988l6.722,3.662
	c3.637,1.981,4.979,6.537,2.998,10.174c-1.981,3.637-6.536,4.979-10.174,2.998l-15.553-8.473l-5.62,10.316l39.814,21.691
	l5.62-10.316l-8.518-4.641c-3.637-1.981-4.979-6.537-2.998-10.174c1.924-3.531,6.272-4.89,9.852-3.152L532.795,45.766z
	 M298.819,97.073V85.325h-9.08c-4.142,0-7.5-3.358-7.5-7.5c0-3.81,2.844-6.95,6.523-7.429V31.62h-25.226v38.705h8.801
	c4.142,0,7.5,3.358,7.5,7.5s-3.358,7.5-7.5,7.5H253.48v11.748H298.819z M132.801,486.722c0,3.77,8.071,13.053,38.615,21.198
	c27.879,7.435,65.074,11.529,104.734,11.529c39.659,0,76.854-4.094,104.733-11.529c30.544-8.145,38.615-17.428,38.615-21.198
	c0-2.413-3.152-6.856-12.74-11.807c-0.119-0.059-0.239-0.119-0.355-0.185c-6.712-3.418-16.494-7.068-30.43-10.456
	c-4.025-0.979-6.495-5.034-5.516-9.059c0.978-4.024,5.031-6.498,9.059-5.516c1.147,0.279,2.276,0.561,3.387,0.847L282.555,345.258
	c-2.858-2.999-2.744-7.746,0.255-10.604c2.999-2.857,7.745-2.744,10.604,0.255l111.971,117.484L276.15,125L146.736,452.846
	l169.193-180.761c2.831-3.024,7.577-3.18,10.601-0.351c3.024,2.831,3.181,7.577,0.351,10.601L169.427,450.554
	c28.878-7.453,66.658-11.559,106.723-11.559c21.264,0,41.857,1.143,61.207,3.397c4.114,0.479,7.061,4.203,6.582,8.318
	c-0.48,4.114-4.205,7.059-8.318,6.582c-18.775-2.188-38.785-3.297-59.471-3.297c-39.66,0-76.855,4.094-104.734,11.529
	C140.872,473.67,132.801,482.952,132.801,486.722z M79.971,86.362l-5.62-10.316l-5.801,3.16c-3.639,1.981-8.193,0.639-10.174-2.998
	c-1.386-2.544-1.142-5.534,0.372-7.781l-18.922-34.73L17.674,45.766l18.517,33.988l8.917-4.858
	c3.638-1.983,8.193-0.639,10.174,2.998c1.982,3.638,0.64,8.192-2.998,10.174l-15.502,8.446l0,0l0,0l-2.245,1.223l5.62,10.316
	L79.971,86.362z"/>
  </symbol>
    <symbol id="menu-fitness" viewBox="0 0 64 64">
        <path d="M63.022,26.237c-0.665-0.798-1.601-1.255-2.568-1.255H59v-1.174c0-2.109-1.832-3.826-4.083-3.826H53v-2.167
        c0-1.02-0.435-2.015-1.192-2.731c-1.506-1.423-4.109-1.423-5.615,0C45.435,15.801,45,16.796,45,17.816v10.167H19V17.816
        c0-1.02-0.434-2.015-1.192-2.731c-1.506-1.423-4.109-1.423-5.615,0C11.435,15.801,11,16.796,11,17.816v2.167H8.85
        c-1.011,0-1.967,0.365-2.693,1.028C5.422,21.686,5,22.628,5,23.594v1.388H3.56c-0.972,0-1.912,0.459-2.579,1.26
        C0.349,27.002,0,28.001,0,29.054v5.856c0,1.053,0.349,2.052,0.982,2.812c0.667,0.801,1.607,1.26,2.578,1.26H5v1.388
        c0,0.966,0.422,1.908,1.159,2.585c0.724,0.662,1.68,1.027,2.691,1.027H11v2.167c0,1.02,0.435,2.015,1.192,2.73
        c0.753,0.711,1.75,1.103,2.808,1.103s2.055-0.392,2.808-1.103C18.566,48.163,19,47.168,19,46.149V35.982h26v10.167
        c0,1.02,0.435,2.015,1.192,2.73c0.753,0.711,1.75,1.103,2.808,1.103c1.058,0,2.055-0.392,2.808-1.103
        C52.565,48.163,53,47.168,53,46.149v-2.167h1.917c2.251,0,4.083-1.716,4.083-3.826v-1.174h1.454c0.967,0,1.903-0.458,2.569-1.255
        c0.63-0.757,0.978-1.751,0.978-2.8v-5.889C64,27.989,63.653,26.994,63.022,26.237z M3.56,36.982c-0.381,0-0.751-0.192-1.041-0.54
        C2.189,36.047,2,35.488,2,34.91v-5.856c0-0.578,0.189-1.136,0.519-1.532c0.29-0.348,0.66-0.54,1.041-0.54H5v10H3.56z M8.85,41.982
        c-0.503,0-0.992-0.183-1.339-0.501C7.181,41.178,7,40.784,7,40.37v-2.388v-12v-2.388c0-0.414,0.181-0.809,0.509-1.11
        c0.35-0.319,0.838-0.502,1.341-0.502H11v20H8.85z M17,46.149c0,0.479-0.201,0.932-0.565,1.276c-0.75,0.708-2.119,0.708-2.869,0
        C13.201,47.081,13,46.627,13,46.149v-3.167v-22v-3.167c0-0.479,0.201-0.932,0.565-1.276c0.375-0.354,0.898-0.557,1.435-0.557
        c0.537,0,1.06,0.203,1.435,0.557C16.799,16.883,17,17.337,17,17.816v11.167v6V46.149z M19,33.982v-4h26v4H19z M51,46.149
        c0,0.479-0.201,0.932-0.565,1.276c-0.75,0.708-2.119,0.708-2.869,0C47.201,47.081,47,46.627,47,46.149V34.982v-6V17.816
        c0-0.479,0.201-0.932,0.565-1.276c0.375-0.354,0.898-0.557,1.435-0.557c0.537,0,1.06,0.203,1.435,0.557
        C50.799,16.883,51,17.337,51,17.816v3.167v22V46.149z M57,40.156c0,1.007-0.934,1.826-2.083,1.826H53v-20h1.917
        c1.148,0,2.083,0.819,2.083,1.826v2.174v12V40.156z M62,34.926c0,0.574-0.188,1.127-0.514,1.52
        c-0.288,0.346-0.655,0.536-1.032,0.536H59v-10h1.454c0.377,0,0.744,0.19,1.032,0.536C61.813,27.91,62,28.464,62,29.038V34.926z" />

    </symbol>
    <symbol id="menu-stadiums" viewBox="0 0 415.506 415.506">
        <path d="M383.272,110.52l0.002-0.646l-3.484-0.011l-0.086,27.448c-8.281-6.856-17.703-12.51-26.766-17.017
    c-23.309-11.592-48.772-18.684-74.508-23.022l0.041-13.047c12.619-10.885,23.938,5.021,32.303-10.692
    c-19.652,0.258-15.338-11.771-32.234-10.734l0.002-0.646l-3.484-0.011l-0.109,34.548c-6.285-0.999-12.58-1.838-18.861-2.541
    c-35.063-3.924-70.861-3.619-105.82,1.212c-3.229,0.446-6.465,0.94-9.705,1.463l-0.109-34.682l-3.484,0.011l0.002,0.646
    c-16.897-1.037-12.582,10.993-32.234,10.734c8.363,15.713,19.684-0.193,32.301,10.692l0.043,13.168
    c-29.039,4.941-58.164,13.233-83.584,28.047c-5.867,3.419-11.984,7.537-17.688,12.285l-0.088-27.863l-3.484,0.011l0.002,0.646
    C15.338,109.481,19.654,121.512,0,121.254c8.367,15.712,19.685-0.192,32.303,10.693l0.029,8.801
    c-12.324,11.22-21.863,25.568-21.074,42.402c0.912,19.49,12.287,34.646,26.885,46.248v27.828c-5.445-4.65-9.631-9.446-12.393-13.967
    c-1.525-2.488-2.686-4.849-3.545-6.978c-0.828-2.137-1.412-4.026-1.752-5.592c-0.346-1.563-0.578-2.787-0.672-3.617
    c-0.111-0.833-0.168-1.263-0.168-1.263s-0.033,0.433-0.096,1.271c-0.072,0.841-0.129,2.098-0.059,3.742
    c0.156,3.262,0.719,8.221,3.197,14.016c1.211,2.896,2.832,6.002,4.924,9.176c2.078,3.184,4.682,6.381,7.674,9.584
    c0.918,0.976,1.891,1.945,2.889,2.91v25.319c-5.445-4.65-9.631-9.445-12.393-13.966c-1.525-2.488-2.686-4.849-3.545-6.978
    c-0.828-2.136-1.412-4.026-1.752-5.592c-0.346-1.563-0.578-2.788-0.672-3.617c-0.111-0.833-0.168-1.263-0.168-1.263
    s-0.033,0.433-0.096,1.271c-0.072,0.841-0.129,2.098-0.059,3.742c0.156,3.262,0.719,8.22,3.199,14.016
    c1.211,2.895,2.832,6.001,4.924,9.176c2.078,3.184,4.682,6.38,7.674,9.583c0.918,0.975,1.889,1.943,2.887,2.908l0.74,0.701
    c5.4,5.107,11.889,10.04,19.26,14.613c4.549,2.825,9.438,5.5,14.594,8.053c5.16,2.543,10.615,4.894,16.285,7.137
    c11.363,4.416,23.65,8.211,36.555,11.218c6.445,1.538,13.053,2.835,19.764,3.979c0.332,0.057,0.666,0.107,0.998,0.163l1.918,6.39
    l4.053-1.216l4.051-1.216l-14.377-47.884c44.209-11.229,87.334-11.229,131.541,0l-14.377,47.883l4.053,1.217l4.051,1.217
    l1.918-6.389c0.332-0.056,0.668-0.107,0.998-0.164c6.713-1.144,13.32-2.442,19.766-3.979c12.902-3.007,25.191-6.802,36.555-11.218
    c5.668-2.243,11.125-4.594,16.285-7.137c5.154-2.553,10.045-5.228,14.592-8.053c7.371-4.573,13.859-9.506,19.262-14.613l0.74-0.701
    c0.998-0.964,1.969-1.933,2.885-2.908c6.031-6.369,10.244-12.928,12.615-18.751c2.439-5.813,3.068-10.751,3.188-14.023
    c0.063-1.648,0.012-2.912-0.063-3.743c-0.063-0.838-0.096-1.271-0.096-1.271s-0.059,0.43-0.17,1.263
    c-0.096,0.84-0.322,2.057-0.676,3.616c-0.348,1.564-0.939,3.451-1.758,5.59c-0.846,2.132-2.012,4.492-3.551,6.972
    c-1.555,2.471-3.467,5.074-5.824,7.667c-1.926,2.099-4.109,4.223-6.551,6.309v-25.321c0.998-0.965,1.971-1.934,2.887-2.91
    c6.029-6.369,10.244-12.929,12.613-18.752c2.439-5.813,3.068-10.751,3.188-14.023c0.063-1.648,0.012-2.913-0.063-3.743
    c-0.063-0.838-0.096-1.271-0.096-1.271s-0.059,0.43-0.17,1.263c-0.096,0.84-0.322,2.057-0.676,3.616
    c-0.348,1.565-0.939,3.451-1.756,5.59c-0.846,2.132-2.012,4.492-3.551,6.972c-1.557,2.471-3.467,5.074-5.824,7.667
    c-1.926,2.1-4.111,4.224-6.553,6.31V229.77c14.756-11.677,26.125-26.96,27.268-46.711c-0.061-17.35-9.113-31.51-21.455-42.729
    l0.025-8.384c12.619-10.885,23.938,5.019,32.303-10.693C395.852,121.512,400.168,109.481,383.272,110.52z M280.027,114.548
    c16.605,3.143,32.943,7.585,48.641,13.701c14,5.455,31.211,13.355,43.342,24.885l-66.66,41.398
    c-13.203-10.172-34.381-18.08-59.785-22.076L280.027,114.548z M229.93,108.653c13.213,0.727,26.494,2.042,39.658,4.104
    l-34.686,58.282c-8.693-0.95-17.787-1.458-27.148-1.458c-9.363,0-18.455,0.507-27.15,1.458l-34.693-58.297
    C173.648,108.351,201.9,107.111,229.93,108.653z M55.637,143.732c23.703-15.661,52.072-24.007,79.842-29.186l34.463,57.909
    c-25.404,3.997-46.582,11.904-59.785,22.076l-66.695-41.421C47.25,149.625,51.412,146.522,55.637,143.732z M85.145,316.543
    c-7.936-2.711-15.35-5.71-22.109-8.982c-4.535-2.154-8.732-4.49-12.617-6.872c-0.814-0.498-1.605-1.004-2.389-1.513v-24.268
    c3.15,2.375,6.525,4.688,10.111,6.914c4.549,2.825,9.439,5.5,14.594,8.053c3.973,1.958,8.123,3.801,12.41,5.569V316.543z
     M85.145,281.943c-7.936-2.711-15.352-5.711-22.111-8.983c-4.535-2.154-8.73-4.49-12.615-6.872
    c-0.816-0.497-1.605-1.004-2.389-1.513v-28.113c3.461,2.231,7,4.297,10.545,6.205c8.537,4.595,17.439,8.505,26.57,11.873V281.943z
     M76.422,232.545c-13.803-6.317-27.742-14.164-37.881-25.706c-4.895-5.57-11.996-16.036-10.539-24.222
    c0.709-3.98,1.832-10.702,4.355-15.745c1.236-2.247,2.668-4.369,4.242-6.385l66.076,41.036c-4.676,5.438-7.244,11.331-7.244,17.49
    c0,9.679,6.328,18.706,17.252,26.33C100.236,242.043,88.055,237.868,76.422,232.545z M128.746,327.655
    c-11.809-2.156-23.133-4.828-33.715-7.97v-20.436c9.649,3.467,19.881,6.496,30.543,8.981c3.219,0.768,6.479,1.476,9.771,2.135
    l5.803,19.328C136.967,329.063,132.828,328.379,128.746,327.655z M320.477,319.685c-10.582,3.143-21.906,5.814-33.717,7.97
    c-4.08,0.724-8.221,1.408-12.402,2.039l5.803-19.328c3.293-0.659,6.553-1.367,9.772-2.135c10.664-2.485,20.896-5.515,30.545-8.981
    V319.685z M320.477,285.085c-10.582,3.142-21.906,5.814-33.715,7.97c-3.631,0.644-7.309,1.256-11.021,1.828
    c-45.701-11.633-90.273-11.633-135.975,0c-3.711-0.572-7.389-1.184-11.02-1.828c-11.811-2.155-23.133-4.828-33.715-7.97v-27.131
    c20.076,6.438,41.053,10.423,61.723,12.957c34.283,4.202,69.221,4.148,103.496-0.104c20.242-2.512,40.645-6.456,60.227-12.713
    V285.085z M367.478,299.177c-0.783,0.509-1.574,1.015-2.391,1.513c-3.885,2.382-8.08,4.717-12.615,6.872
    c-6.76,3.271-14.176,6.27-22.109,8.982v-21.099c4.285-1.769,8.438-3.611,12.41-5.569c5.154-2.552,10.045-5.228,14.592-8.053
    c3.588-2.226,6.963-4.54,10.113-6.914V299.177z M367.478,264.575c-0.783,0.509-1.574,1.016-2.389,1.513
    c-3.885,2.382-8.08,4.717-12.615,6.872c-6.76,3.272-14.176,6.272-22.111,8.983V254.69c8.365-3.068,16.555-6.584,24.469-10.653
    c4.268-2.193,8.52-4.607,12.646-7.247V264.575z M387.141,182.557c-0.145,15.047-13.639,29.256-26.842,38.099
    c-17.16,11.493-36.879,19.13-57.113,24.43c10.701-7.569,16.889-16.503,16.889-26.074c0-6.158-2.566-12.052-7.242-17.49
    l65.863-40.903C383.428,166.971,386.568,174.235,387.141,182.557z" />
    </symbol>

  <symbol id="menu-restaurants" x="0px" y="0px"
 viewBox="0 0 463.001 463.001">
    <path d="M382.382,0h-0.032c-12.173,0-22.651,9.087-24.373,21.138l-35.859,251.016c-1.709,11.961,5.842,23.191,17.564,26.122
				l12.021,3.005l-6.464,129.275c-0.427,8.536,2.582,16.647,8.473,22.84S367.554,463,376.101,463c17.039,0,30.9-13.862,30.9-30.9
				V24.62C407.001,11.044,395.957,0,382.382,0z M392.001,432.099L392.001,432.099c0,8.768-7.133,15.9-15.9,15.9
				c-4.398,0-8.489-1.755-11.521-4.941c-3.032-3.186-4.58-7.36-4.36-11.753l6.771-135.431c0.179-3.577-2.197-6.782-5.672-7.65
				l-18-4.5c-4.24-1.06-6.971-5.122-6.353-9.449l35.86-251.016c0.672-4.708,4.767-8.259,9.523-8.259h0.032
				c5.304,0,9.62,4.315,9.62,9.62V432.099z"/>
    <path d="M286.992,7.125c-0.207-4.137-3.735-7.315-7.865-7.116c-4.137,0.207-7.323,3.728-7.116,7.865l6.406,128.125h-23.416V7.5
				c0-4.142-3.358-7.5-7.5-7.5c-4.142,0-7.5,3.358-7.5,7.5V136h-23.416L222.99,7.875c0.207-4.137-2.979-7.658-7.116-7.865
				c-4.136-0.21-7.658,2.979-7.865,7.116l-7.546,150.927c-0.411,8.22,3.588,16.162,10.436,20.727l9.062,6.041
				c2.455,1.637,3.868,4.375,3.781,7.324l-7.072,239.157c-0.233,8.397,2.864,16.338,8.72,22.36
				c5.857,6.022,13.709,9.339,22.11,9.339s16.253-3.316,22.11-9.339c5.856-6.022,8.954-13.963,8.72-22.373l-7.071-239.144
				c-0.087-2.949,1.327-5.687,3.781-7.324l9.062-6.041c6.847-4.565,10.846-12.507,10.435-20.727L286.992,7.125z M275.783,166.298
				l-9.062,6.041c-6.787,4.524-10.695,12.094-10.454,20.248l7.071,239.131c0.12,4.313-1.471,8.392-4.479,11.485
				c-3.009,3.093-7.042,4.797-11.357,4.797s-8.349-1.704-11.357-4.797c-3.008-3.093-4.599-7.172-4.479-11.472l7.071-239.144
				c0.241-8.154-3.667-15.723-10.454-20.248l-9.062-6.041c-2.477-1.651-3.923-4.524-3.774-7.497l0.39-7.802h63.331l0.39,7.802
				C279.706,161.774,278.26,164.647,275.783,166.298z"/>
    <path d="M119.501,0c-15.626,0-37.258,7.845-51.572,45.22c-8.804,22.986-11.928,50.071-11.928,66.28
				c0,22.316,11.389,42.587,30.465,54.226c5.306,3.238,8.388,8.709,8.244,14.635l-6.121,250.963
				c-0.205,8.4,2.914,16.337,8.783,22.351c5.868,6.013,13.727,9.325,22.129,9.325s16.262-3.312,22.13-9.325
				c5.869-6.013,8.988-13.951,8.783-22.351l-6.122-250.962c-0.144-5.927,2.938-11.398,8.244-14.636
				c19.077-11.639,30.465-31.911,30.465-54.226c0-16.209-3.124-43.293-11.928-66.28C156.76,7.845,135.128,0,119.501,0z
				 M144.722,152.921c-9.787,5.972-15.698,16.626-15.426,27.806l6.121,250.962c0.106,4.325-1.5,8.412-4.522,11.508
				c-3.022,3.097-7.069,4.802-11.395,4.802s-8.373-1.705-11.395-4.801c-3.022-3.096-4.628-7.184-4.522-11.509l6.121-250.962
				c0.273-11.179-5.638-21.834-15.426-27.806c-14.576-8.893-23.278-24.378-23.278-41.421c0-31.485,11.855-96.5,48.5-96.5
				s48.5,65.015,48.5,96.5C168.001,128.543,159.3,144.028,144.722,152.921z"/>
  </symbol>
    <symbol id="menu-hotels" viewBox="0 0 512 512">
        <g>
            <g>
                <path d="M145.046,230.404H85.321c-4.712,0-8.532,3.82-8.532,8.532v85.321c0,4.712,3.82,8.532,8.532,8.532h59.725
            c4.712,0,8.532-3.82,8.532-8.532v-85.321C153.578,234.224,149.758,230.404,145.046,230.404z M136.514,315.725H93.853v-68.257
            h42.661V315.725z" />
            </g>
        </g>
        <g>
            <g>
                <path d="M290.091,230.404h-59.725c-4.712,0-8.532,3.82-8.532,8.532v85.321c0,4.712,3.82,8.532,8.532,8.532h59.725
            c4.712,0,8.532-3.82,8.532-8.532v-85.321C298.623,234.224,294.803,230.404,290.091,230.404z M281.559,315.725h-42.66v-68.257
            h42.66V315.725z" />
            </g>
        </g>
        <g>
            <g>
                <path d="M290.091,366.917h-59.725c-4.712,0-8.532,3.82-8.532,8.532v85.321c0,4.712,3.82,8.532,8.532,8.532h59.725
            c4.712,0,8.532-3.82,8.532-8.532v-85.321C298.623,370.738,294.803,366.917,290.091,366.917z M281.559,452.238h-42.66v-68.257
            h42.66V452.238z" />
            </g>
        </g>
        <g>
            <g>
                <path d="M426.605,230.404H366.88c-4.712,0-8.532,3.82-8.532,8.532v85.321c0,4.712,3.82,8.532,8.532,8.532h59.725
            c4.712,0,8.532-3.82,8.532-8.532v-85.321C435.137,234.224,431.317,230.404,426.605,230.404z M418.073,315.725h-42.66v-68.257
            h42.66V315.725z" />
            </g>
        </g>
        <g>
            <g>
                <path d="M145.046,366.917H85.321c-4.712,0-8.532,3.82-8.532,8.532v85.321c0,4.712,3.82,8.532,8.532,8.532h59.725
            c4.712,0,8.532-3.82,8.532-8.532v-85.321C153.578,370.738,149.758,366.917,145.046,366.917z M136.514,452.238H93.853v-68.257
            h42.661V452.238z" />
            </g>
        </g>
        <g>
            <g>
                <path d="M426.605,366.917H366.88c-4.712,0-8.532,3.82-8.532,8.532v85.321c0,4.712,3.82,8.532,8.532,8.532h59.725
            c4.712,0,8.532-3.82,8.532-8.532v-85.321C435.137,370.738,431.317,366.917,426.605,366.917z M418.073,452.238h-42.66v-68.257
            h42.66V452.238z" />
            </g>
        </g>
        <g>
            <g>
                <path d="M477.798,494.899V204.807h8.532c4.712,0,8.532-3.82,8.532-8.532v-42.66c0-4.712-3.82-8.532-8.532-8.532h-8.532v-34.128
            c0-4.712-3.82-8.532-8.532-8.532h-17.064V8.569c0-4.712-3.82-8.532-8.532-8.532H68.257c-4.712,0-8.532,3.82-8.532,8.532v93.853
            H42.661c-4.712,0-8.532,3.82-8.532,8.532v34.128h-8.532c-4.712,0-8.532,3.82-8.532,8.532v42.66c0,4.712,3.82,8.532,8.532,8.532
            h8.532v290.091H0v17.064h42.661h426.605H512v-17.064H477.798z M76.789,17.101h358.348v85.321H76.789V17.101z M51.193,119.486
            h17.064h375.412h17.064v25.596H51.193V119.486z M460.733,494.899H51.193V204.807h409.541V494.899z M42.661,187.743h-8.532v-25.596
            h8.532h426.605h8.532v25.596h-8.532H42.661z" />
            </g>
        </g>
        <g>
            <g>
                <path d="M242.858,46.292c-1.357-3.468-3.263-6.463-5.721-8.984c-2.457-2.521-5.414-4.499-8.869-5.932
            c-3.456-1.433-7.282-2.15-11.48-2.15c-4.198,0-8.031,0.71-11.499,2.131c-3.468,1.421-6.437,3.398-8.907,5.932
            c-2.47,2.534-4.383,5.535-5.74,9.004c-1.357,3.468-2.035,7.237-2.035,11.307c0,4.07,0.678,7.839,2.035,11.307
            c1.357,3.468,3.27,6.469,5.74,9.004c2.47,2.534,5.439,4.511,8.907,5.932c3.468,1.421,7.301,2.131,11.499,2.131
            c4.198,0,8.024-0.71,11.48-2.131c3.456-1.42,6.412-3.398,8.869-5.932c2.457-2.534,4.364-5.535,5.721-9.004
            c1.357-3.468,2.035-7.237,2.035-11.307C244.893,53.529,244.214,49.76,242.858,46.292z M233.086,65.796
            c-0.806,2.419-1.965,4.467-3.475,6.143c-1.51,1.677-3.347,2.963-5.51,3.859c-2.163,0.896-4.601,1.344-7.314,1.344
            c-2.713,0-5.158-0.448-7.333-1.344c-2.176-0.896-4.025-2.182-5.548-3.859c-1.523-1.677-2.694-3.724-3.513-6.143
            c-0.819-2.419-1.229-5.151-1.229-8.197s0.41-5.778,1.229-8.197c0.819-2.419,1.99-4.473,3.513-6.162
            c1.523-1.689,3.372-2.982,5.548-3.878c2.176-0.896,4.62-1.344,7.333-1.344c2.713,0,5.151,0.448,7.314,1.344
            c2.163,0.896,3.999,2.189,5.51,3.878c1.51,1.689,2.668,3.743,3.475,6.162c0.806,2.419,1.209,5.151,1.209,8.197
            S233.893,63.377,233.086,65.796z" />
            </g>
        </g>
        <g>
            <g>
                <polygon points="170.023,29.84 170.023,53.721 143.992,53.721 143.992,29.84 133.587,29.84 133.587,85.358 143.992,85.358
            143.992,61.093 170.023,61.093 170.023,85.358 180.428,85.358 180.428,29.84       " />
            </g>
        </g>
        <g>
            <g>
                <polygon points="350.017,76.834 350.017,29.84 339.688,29.84 339.688,85.358 372.247,85.358 372.247,76.834        " />
            </g>
        </g>
        <g>
            <g>
                <polygon points="245.353,29.84 245.353,38.325 262.132,38.325 262.132,85.358 272.46,85.358 272.46,38.325 289.161,38.325
            289.161,29.84       " />
            </g>
        </g>
        <g>
            <g>
                <polygon points="330.743,38.056 330.743,29.84 295.727,29.84 295.727,85.358 330.743,85.358 330.743,77.103 306.132,77.103
            306.132,61.4 325.521,61.4 325.521,53.452 306.132,53.452 306.132,38.056      " />
            </g>
        </g>
    </symbol>
  <symbol id="arrow-down" viewBox="0 0 129 129">
    <path d="m121.3,34.6c-1.6-1.6-4.2-1.6-5.8,0l-51,51.1-51.1-51.1c-1.6-1.6-4.2-1.6-5.8,0-1.6,1.6-1.6,4.2 0,5.8l53.9,53.9c0.8,0.8 1.8,1.2 2.9,1.2 1,0 2.1-0.4 2.9-1.2l53.9-53.9c1.7-1.6 1.7-4.2 0.1-5.8z"/>
  </symbol>

  <symbol id="search" viewBox="0 0 52.966 52.966">
    <path d="M51.704,51.273L36.845,35.82c3.79-3.801,6.138-9.041,6.138-14.82c0-11.58-9.42-21-21-21s-21,9.42-21,21s9.42,21,21,21
	c5.083,0,9.748-1.817,13.384-4.832l14.895,15.491c0.196,0.205,0.458,0.307,0.721,0.307c0.25,0,0.499-0.093,0.693-0.279
	C52.074,52.304,52.086,51.671,51.704,51.273z M21.983,40c-10.477,0-19-8.523-19-19s8.523-19,19-19s19,8.523,19,19
	S32.459,40,21.983,40z"/>
  </symbol>

  <symbol id="notification" viewBox="0 0 64 64">
    <path d="M46.6674995,8.6586504c-0.5527992,0-1,0.4473-1,1c0,0.5527992,0.4472008,1,1,1
		c3.5185013,0,6.3808022,2.8622999,6.3808022,6.3809004c0,0.5527,0.4473,1,1,1c0.5527992,0,1-0.4473,1-1
		C55.0483017,12.4184504,51.2886009,8.6586504,46.6674995,8.6586504z"/>
    <path d="M8.9517002,17.0395508c0,0.5527,0.4471998,1,1,1c0.5527,0,1-0.4473,1-1
		c0-3.5186005,2.8622999-6.3809004,6.3808002-6.3809004c0.5527992,0,1-0.4472008,1-1c0-0.5527-0.4472008-1-1-1
		C12.7114,8.6586504,8.9517002,12.4184504,8.9517002,17.0395508z"/>
    <path d="M48.1431007,1.27785c-0.5527992,0-1,0.4473-1,0.9999999s0.4472008,1,1,1
		c6.7743988,0,12.2860985,5.5107002,12.2860985,12.2851c0,0.5527992,0.4473,1,1,1s1-0.4472008,1-1
		C62.4291992,7.6860499,56.0200005,1.27785,48.1431007,1.27785z"/>
    <path d="M16.8560009,2.2778499c0-0.5526999-0.4473-0.9999999-1.000001-0.9999999
		c-7.8769999,0-14.2852001,6.4081998-14.2852001,14.2851c0,0.5527992,0.4473001,1,1.0000001,1s1-0.4472008,1-1
		c0-6.7743998,5.5107002-12.2851,12.2852001-12.2851C16.4087009,3.2778499,16.8560009,2.83055,16.8560009,2.2778499z"/>
    <path d="M51.7932014,46.2020493c-0.1280022-0.3828011-0.3692017-0.6965981-0.6621017-0.9463997
		c0.0236015-0.6092987,0.0386009-1.2222977,0.0386009-1.8409996c0-13.6198997-5.641201-25.1546001-13.4345016-29.1104012
		c0.1161003-0.4706001,0.1844025-0.9601002,0.1844025-1.4666996c0-3.3774004-2.7380028-6.1154003-6.1154022-6.1154003
		s-6.1153984,2.7379999-6.1153984,6.1154003c0,0.5065994,0.0682983,0.9960995,0.1843987,1.4666996
		C18.0799007,18.2600498,12.4386997,29.7947502,12.4386997,43.41465c0,0.6187019,0.0150003,1.2317009,0.0386,1.8409996
		c-0.2929001,0.2498016-0.5340996,0.5635986-0.6620998,0.9463997l-2.8975,8.6665993
		c-0.4692001,1.4033012,0.5754004,2.8535004,2.0555,2.8535004h14.1247005c0.8610001,2.8908005,3.535799,5,6.7062988,5
		s5.8453026-2.1091995,6.7063026-5h14.1246986c1.4800987,0,2.5247002-1.4501991,2.0555-2.8535004L51.7932014,46.2020493z
		 M26.7959003,16.1219501l1.4443989-0.7332001l-0.3878994-1.5727005c-0.0841999-0.3413-0.1252003-0.6613998-0.1252003-0.9784994
		c0-2.2480001,1.8290005-4.0769005,4.0769997-4.0769005s4.0769997,1.8289003,4.0769997,4.0769005
		c0,0.3170996-0.0410004,0.6371994-0.1251984,0.9784994l-0.3879013,1.5727005L36.8125,16.1219501
		c7.2531013,3.6816006,12.3186989,14.9046993,12.3186989,27.2926998c0,0.4183006-0.0060997,0.8419991-0.0181007,1.2691002
		H14.4953003c-0.0120001-0.4271011-0.0181007-0.8507996-0.0181007-1.2691002
		C14.4771996,31.0266495,19.5428009,19.8035507,26.7959003,16.1219501z M31.8041992,60.7221489
		c-2.0464001,0-3.8094997-1.2355003-4.5824986-3h9.164999C35.6137009,59.4866486,33.8506012,60.7221489,31.8041992,60.7221489z
		 M52.7711983,55.6526489c-0.0500984,0.0695-0.1102982,0.0695-0.1359978,0.0695H38.8041992h-14H10.9731998
		c-0.0256996,0-0.0859003,0-0.1359997-0.0695c-0.0496998-0.0690994-0.0307999-0.1256981-0.0227003-0.1497993l2.8975-8.6665993
		c0.0229006-0.0681992,0.0866003-0.1141014,0.1588001-0.1141014h35.8667984c0.0722008,0,0.1359024,0.0459023,0.158802,0.1140022
		l2.8974991,8.6666985C52.8019981,55.5269508,52.8209,55.5835495,52.7711983,55.6526489z"/>
  </symbol>

  <symbol id="users" viewBox="0 0 512 512">
    <g>
      <g>
        <path d="M158.014,8.882c-23.171,0-44.411,9.112-59.807,25.656c-16.028,17.221-24.498,40.729-24.498,67.984
			c0,28.607,9.416,57.55,25.831,79.404c7.405,9.86,6.871,23.561-1.271,32.579c-9.202,10.194-21.221,16.927-34.754,19.473
			C26.713,240.896,0,273.003,0,310.32v52.906h95.926v-15.673H15.673V310.32c0-29.783,21.339-55.411,50.738-60.938
			c16.933-3.184,31.973-11.612,43.493-24.373c13.155-14.574,14.068-36.651,2.168-52.496c-14.208-18.915-22.69-45.079-22.69-69.991
			c0-23.222,7.019-43.037,20.297-57.306c12.399-13.322,29.564-20.66,48.427-20.66c25.39,0,46.824,12.913,58.805,35.426l13.837-7.363
			C216.174,25.231,189.017,8.882,158.014,8.882z"/>
      </g>
    </g>
    <g>
      <g>
        <rect x="218.63" y="411.899" width="102.58" height="15.673"/>
      </g>
    </g>
    <g>
      <g>
        <path d="M370.445,298.326c-13.538-2.55-25.555-9.283-34.753-19.474c-8.147-9.024-8.684-22.727-1.278-32.582
			c16.419-21.845,25.835-50.787,25.835-79.405c0-27.254-8.471-50.762-24.498-67.984c-15.398-16.546-36.636-25.659-59.898-25.659
			c-23.172,0-44.412,9.112-59.808,25.657c-16.023,17.221-24.493,40.729-24.493,67.984c0,28.612,9.412,57.553,25.824,79.405
			c7.41,9.86,6.878,23.563-1.266,32.583c-9.094,10.075-20.946,16.772-34.302,19.386l-0.458,0.086
			c-36.803,6.913-63.515,39.021-63.515,76.344v52.905h48.035v-15.673h-32.362v-37.232c0-29.615,21.086-55.116,50.218-60.84
			l0.533-0.1c16.937-3.192,31.975-11.62,43.486-24.373c13.161-14.576,14.071-36.657,2.164-52.501
			c-14.203-18.91-22.682-45.074-22.682-69.99c0-23.222,7.019-43.038,20.295-57.306c12.398-13.323,29.563-20.661,48.428-20.661
			c18.767,0,35.931,7.337,48.33,20.662c13.28,14.27,20.299,34.086,20.299,57.306c0,24.921-8.482,51.084-22.691,69.988
			c-11.905,15.841-10.99,37.921,2.172,52.501c11.515,12.756,26.552,21.184,43.491,24.374c8.198,1.541,15.858,4.629,22.765,9.179
			l8.622-13.088C390.285,304.12,380.697,300.252,370.445,298.326z"/>
      </g>
    </g>
    <g>
      <g>
        <path d="M423.059,325.378c-49.043,0-88.942,39.867-88.942,88.871c0,49.003,39.899,88.87,88.942,88.87S512,463.25,512,414.248
			C512,365.245,472.101,325.378,423.059,325.378z M423.059,487.445c-40.4,0-73.268-32.836-73.268-73.196
			s32.868-73.197,73.268-73.197c40.4,0,73.267,32.836,73.267,73.197C496.327,454.609,463.459,487.445,423.059,487.445z"/>
      </g>
    </g>
    <g>
      <g>
        <polygon points="430.896,406.411 430.896,375.883 415.223,375.883 415.223,406.411 384.66,406.411 384.66,422.086 
			415.223,422.086 415.223,452.612 430.896,452.612 430.896,422.086 461.457,422.086 461.457,406.411 		"/>
      </g>
    </g>
    <g>
      <g>
        <rect x="184.15" y="411.899" width="15.673" height="15.673"/>
      </g>
    </g>
  </symbol>

  <symbol id="favorite" viewBox="0 0 49.94 49.94">
    <path d="M48.856,22.731c0.983-0.958,1.33-2.364,0.906-3.671c-0.425-1.307-1.532-2.24-2.892-2.438l-12.092-1.757
	c-0.515-0.075-0.96-0.398-1.19-0.865L28.182,3.043c-0.607-1.231-1.839-1.996-3.212-1.996c-1.372,0-2.604,0.765-3.211,1.996
	L16.352,14c-0.23,0.467-0.676,0.79-1.191,0.865L3.069,16.623C1.71,16.82,0.603,17.753,0.178,19.06
	c-0.424,1.307-0.077,2.713,0.906,3.671l8.749,8.528c0.373,0.364,0.544,0.888,0.456,1.4L8.224,44.702
	c-0.232,1.353,0.313,2.694,1.424,3.502c1.11,0.809,2.555,0.914,3.772,0.273l10.814-5.686c0.461-0.242,1.011-0.242,1.472,0
	l10.815,5.686c0.528,0.278,1.1,0.415,1.669,0.415c0.739,0,1.475-0.231,2.103-0.688c1.111-0.808,1.656-2.149,1.424-3.502
	L39.651,32.66c-0.088-0.513,0.083-1.036,0.456-1.4L48.856,22.731z M37.681,32.998l2.065,12.042c0.104,0.606-0.131,1.185-0.629,1.547
	c-0.499,0.361-1.12,0.405-1.665,0.121l-10.815-5.687c-0.521-0.273-1.095-0.411-1.667-0.411s-1.145,0.138-1.667,0.412l-10.813,5.686
	c-0.547,0.284-1.168,0.24-1.666-0.121c-0.498-0.362-0.732-0.94-0.629-1.547l2.065-12.042c0.199-1.162-0.186-2.348-1.03-3.17
	L2.48,21.299c-0.441-0.43-0.591-1.036-0.4-1.621c0.19-0.586,0.667-0.988,1.276-1.077l12.091-1.757
	c1.167-0.169,2.176-0.901,2.697-1.959l5.407-10.957c0.272-0.552,0.803-0.881,1.418-0.881c0.616,0,1.146,0.329,1.419,0.881
	l5.407,10.957c0.521,1.058,1.529,1.79,2.696,1.959l12.092,1.757c0.609,0.089,1.086,0.491,1.276,1.077
	c0.19,0.585,0.041,1.191-0.4,1.621l-8.749,8.528C37.866,30.65,37.481,31.835,37.681,32.998z"/>
  </symbol>

  <symbol id="rating" viewBox="0 0 471.701 471.701">
    <path d="M433.601,67.001c-24.7-24.7-57.4-38.2-92.3-38.2s-67.7,13.6-92.4,38.3l-12.9,12.9l-13.1-13.1
		c-24.7-24.7-57.6-38.4-92.5-38.4c-34.8,0-67.6,13.6-92.2,38.2c-24.7,24.7-38.3,57.5-38.2,92.4c0,34.9,13.7,67.6,38.4,92.3
		l187.8,187.8c2.6,2.6,6.1,4,9.5,4c3.4,0,6.9-1.3,9.5-3.9l188.2-187.5c24.7-24.7,38.3-57.5,38.3-92.4
		C471.801,124.501,458.301,91.701,433.601,67.001z M414.401,232.701l-178.7,178l-178.3-178.3c-19.6-19.6-30.4-45.6-30.4-73.3
		s10.7-53.7,30.3-73.2c19.5-19.5,45.5-30.3,73.1-30.3c27.7,0,53.8,10.8,73.4,30.4l22.6,22.6c5.3,5.3,13.8,5.3,19.1,0l22.4-22.4
		c19.6-19.6,45.7-30.4,73.3-30.4c27.6,0,53.6,10.8,73.2,30.3c19.6,19.6,30.3,45.6,30.3,73.3
		C444.801,187.101,434.001,213.101,414.401,232.701z"/>
  </symbol>

  <symbol id="comments" viewBox="0 0 60 60">
    <path d="M10,25.465h13c0.553,0,1-0.448,1-1s-0.447-1-1-1H10c-0.553,0-1,0.448-1,1S9.447,25.465,10,25.465z"/>
    <path d="M36,29.465H10c-0.553,0-1,0.448-1,1s0.447,1,1,1h26c0.553,0,1-0.448,1-1S36.553,29.465,36,29.465z"/>
    <path d="M36,35.465H10c-0.553,0-1,0.448-1,1s0.447,1,1,1h26c0.553,0,1-0.448,1-1S36.553,35.465,36,35.465z"/>
    <path d="M54.072,2.535L19.93,2.465c-3.27,0-5.93,2.66-5.93,5.93v5.124l-8.07,0.017c-3.27,0-5.93,2.66-5.93,5.93v21.141
		c0,3.27,2.66,5.929,5.93,5.929H12v10c0,0.413,0.254,0.784,0.64,0.933c0.117,0.045,0.239,0.067,0.36,0.067
		c0.276,0,0.547-0.115,0.74-0.327l9.704-10.675l16.626-0.068c3.27,0,5.93-2.66,5.93-5.929v-0.113l5.26,5.786
		c0.193,0.212,0.464,0.327,0.74,0.327c0.121,0,0.243-0.022,0.36-0.067c0.386-0.149,0.64-0.52,0.64-0.933v-10h1.07
		c3.27,0,5.93-2.66,5.93-5.929V8.465C60,5.196,57.341,2.536,54.072,2.535z M44,40.536c0,2.167-1.763,3.929-3.934,3.929l-17.07,0.07
		c-0.28,0.001-0.548,0.12-0.736,0.327L14,53.949v-8.414c0-0.552-0.447-1-1-1H5.93c-2.167,0-3.93-1.763-3.93-3.929V19.465
		c0-2.167,1.763-3.93,3.932-3.93l9.068-0.019c0,0,0,0,0,0c0.001,0,0.001,0,0.002,0l25.068-0.052c2.167,0,3.93,1.763,3.93,3.93
		v18.441V40.536z M58,29.606c0,2.167-1.763,3.929-3.93,3.929H52c-0.553,0-1,0.448-1,1v8.414l-5-5.5V19.395
		c0-3.27-2.66-5.93-5.932-5.93L16,13.514v-5.12c0-2.167,1.763-3.93,3.928-3.93l34.141,0.07c0.001,0,0.001,0,0.002,0
		c2.167,0,3.93,1.763,3.93,3.93V29.606z"/>
  </symbol>
  <symbol id="going" 	 viewBox="0 0 92.9 92.9">
    <path d="M72.932,46.973L61.629,40.45c-0.725-0.418-1.601-1.531-1.837-2.334l-3.501-11.912c-0.087-0.298-0.219-0.564-0.381-0.798
		c-0.509-0.936-1.49-1.572-2.627-1.572l-14.945,0.645c-0.655,0.028-1.264,0.276-1.763,0.687c-0.1,0.061-0.204,0.12-0.294,0.189
		l-10.155,7.832c-1.173,0.905-1.83,2.745-1.494,4.188l4.021,17.3c0.335,1.444,1.717,2.534,3.212,2.534
		c0.101,0,0.203-0.005,0.304-0.015l1.501-0.15c0.804-0.081,1.53-0.489,1.99-1.121c0.461-0.632,0.628-1.448,0.459-2.238L33.26,40.33
		c-0.15-0.701,0.23-1.738,0.798-2.175l1.809-1.393l0.93,21.444c0.001,0.023,0.008,0.044,0.01,0.067l-4.128,9.156
		c-0.52,1.153-1.826,2.75-2.852,3.489l-9.678,6.968c-1.559,1.122-2.148,3.366-1.342,5.11l1.324,2.861
		c0.528,1.141,1.587,1.85,2.765,1.85c0.674,0,1.337-0.229,1.917-0.66l12.778-9.515c1.273-0.948,2.843-2.793,3.574-4.202
		l6.379-12.286c0.051-0.099,0.083-0.205,0.125-0.308l0.445-0.019l10.441,28.786c0.737,2.032,2.703,3.398,4.892,3.398
		c0.52,0,1.034-0.079,1.528-0.236l0.644-0.205c1.276-0.405,2.301-1.282,2.887-2.47c0.585-1.188,0.656-2.536,0.2-3.794L57.711,55.885
		c-0.051-0.14-0.121-0.268-0.182-0.401l-0.353-8.134l12.122,6.297c0.426,0.222,0.906,0.339,1.389,0.339
		c1.122,0,2.149-0.607,2.68-1.584l0.721-1.328C74.872,49.633,74.353,47.793,72.932,46.973z"/>
    <path d="M44.162,21.673c0.157,0,0.316-0.003,0.475-0.01c2.891-0.125,5.561-1.37,7.517-3.503s2.964-4.901,2.839-7.792
		C54.735,4.397,49.745-0.249,43.698,0.01c-2.891,0.125-5.561,1.37-7.517,3.503c-1.956,2.134-2.964,4.901-2.839,7.792
		C33.594,17.119,38.347,21.673,44.162,21.673z"/>
  </symbol>
  <symbol id="share" 	 viewBox="0 0 58.995 58.995">
    <path d="M39.927,41.929c-0.524,0.524-0.975,1.1-1.365,1.709l-17.28-10.489c0.457-1.144,0.716-2.388,0.716-3.693
	c0-1.305-0.259-2.549-0.715-3.693l17.284-10.409C40.342,18.142,43.454,20,46.998,20c5.514,0,10-4.486,10-10s-4.486-10-10-10
	s-10,4.486-10,10c0,1.256,0.243,2.454,0.667,3.562L20.358,23.985c-1.788-2.724-4.866-4.529-8.361-4.529c-5.514,0-10,4.486-10,10
	s4.486,10,10,10c3.495,0,6.572-1.805,8.36-4.529L37.661,45.43c-0.43,1.126-0.664,2.329-0.664,3.57c0,2.671,1.04,5.183,2.929,7.071
	c1.949,1.949,4.51,2.924,7.071,2.924s5.122-0.975,7.071-2.924c1.889-1.889,2.929-4.4,2.929-7.071s-1.04-5.183-2.929-7.071
	C50.169,38.029,43.826,38.029,39.927,41.929z M46.998,2c4.411,0,8,3.589,8,8s-3.589,8-8,8s-8-3.589-8-8S42.586,2,46.998,2z
	 M11.998,37.456c-4.411,0-8-3.589-8-8s3.589-8,8-8s8,3.589,8,8S16.409,37.456,11.998,37.456z M52.654,54.657
	c-3.119,3.119-8.194,3.119-11.313,0c-1.511-1.511-2.343-3.521-2.343-5.657s0.832-4.146,2.343-5.657
	c1.56-1.56,3.608-2.339,5.657-2.339s4.097,0.779,5.657,2.339c1.511,1.511,2.343,3.521,2.343,5.657S54.166,53.146,52.654,54.657z"/>
  </symbol>
  <symbol id="list_view" viewBox="0 0 344.339 344.339">
 <g>
		<g>
			<rect y="46.06" width="344.339" height="29.52"/>
		</g>
		<g>
			<rect y="156.506" width="344.339" height="29.52"/>
		</g>
		<g>
			<rect y="268.748" width="344.339" height="29.531"/>
		</g>
	</g>
  </symbol>
 <symbol id="card_view" viewBox="0 0 341.333 341.333">
  <rect x="128" y="128" width="85.333" height="85.333"/>
			<rect x="0" y="0" width="85.333" height="85.333"/>
			<rect x="128" y="256" width="85.333" height="85.333"/>
			<rect x="0" y="128" width="85.333" height="85.333"/>
			<rect x="0" y="256" width="85.333" height="85.333"/>
			<rect x="256" y="0" width="85.333" height="85.333"/>
			<rect x="128" y="0" width="85.333" height="85.333"/>
			<rect x="256" y="128" width="85.333" height="85.333"/>
			<rect x="256" y="256" width="85.333" height="85.333"/>
  </symbol>
  <symbol id="user" viewBox="0 0 55 55">
    <path d="M55,27.5C55,12.337,42.663,0,27.5,0S0,12.337,0,27.5c0,8.009,3.444,15.228,8.926,20.258l-0.026,0.023l0.892,0.752
	c0.058,0.049,0.121,0.089,0.179,0.137c0.474,0.393,0.965,0.766,1.465,1.127c0.162,0.117,0.324,0.234,0.489,0.348
	c0.534,0.368,1.082,0.717,1.642,1.048c0.122,0.072,0.245,0.142,0.368,0.212c0.613,0.349,1.239,0.678,1.88,0.98
	c0.047,0.022,0.095,0.042,0.142,0.064c2.089,0.971,4.319,1.684,6.651,2.105c0.061,0.011,0.122,0.022,0.184,0.033
	c0.724,0.125,1.456,0.225,2.197,0.292c0.09,0.008,0.18,0.013,0.271,0.021C25.998,54.961,26.744,55,27.5,55
	c0.749,0,1.488-0.039,2.222-0.098c0.093-0.008,0.186-0.013,0.279-0.021c0.735-0.067,1.461-0.164,2.178-0.287
	c0.062-0.011,0.125-0.022,0.187-0.034c2.297-0.412,4.495-1.109,6.557-2.055c0.076-0.035,0.153-0.068,0.229-0.104
	c0.617-0.29,1.22-0.603,1.811-0.936c0.147-0.083,0.293-0.167,0.439-0.253c0.538-0.317,1.067-0.648,1.581-1
	c0.185-0.126,0.366-0.259,0.549-0.391c0.439-0.316,0.87-0.642,1.289-0.983c0.093-0.075,0.193-0.14,0.284-0.217l0.915-0.764
	l-0.027-0.023C51.523,42.802,55,35.55,55,27.5z M2,27.5C2,13.439,13.439,2,27.5,2S53,13.439,53,27.5
	c0,7.577-3.325,14.389-8.589,19.063c-0.294-0.203-0.59-0.385-0.893-0.537l-8.467-4.233c-0.76-0.38-1.232-1.144-1.232-1.993v-2.957
	c0.196-0.242,0.403-0.516,0.617-0.817c1.096-1.548,1.975-3.27,2.616-5.123c1.267-0.602,2.085-1.864,2.085-3.289v-3.545
	c0-0.867-0.318-1.708-0.887-2.369v-4.667c0.052-0.519,0.236-3.448-1.883-5.864C34.524,9.065,31.541,8,27.5,8
	s-7.024,1.065-8.867,3.168c-2.119,2.416-1.935,5.345-1.883,5.864v4.667c-0.568,0.661-0.887,1.502-0.887,2.369v3.545
	c0,1.101,0.494,2.128,1.34,2.821c0.81,3.173,2.477,5.575,3.093,6.389v2.894c0,0.816-0.445,1.566-1.162,1.958l-7.907,4.313
	c-0.252,0.137-0.502,0.297-0.752,0.476C5.276,41.792,2,35.022,2,27.5z M42.459,48.132c-0.35,0.254-0.706,0.5-1.067,0.735
	c-0.166,0.108-0.331,0.216-0.5,0.321c-0.472,0.292-0.952,0.57-1.442,0.83c-0.108,0.057-0.217,0.111-0.326,0.167
	c-1.126,0.577-2.291,1.073-3.488,1.476c-0.042,0.014-0.084,0.029-0.127,0.043c-0.627,0.208-1.262,0.393-1.904,0.552
	c-0.002,0-0.004,0.001-0.006,0.001c-0.648,0.16-1.304,0.293-1.964,0.402c-0.018,0.003-0.036,0.007-0.054,0.01
	c-0.621,0.101-1.247,0.174-1.875,0.229c-0.111,0.01-0.222,0.017-0.334,0.025C28.751,52.97,28.127,53,27.5,53
	c-0.634,0-1.266-0.031-1.895-0.078c-0.109-0.008-0.218-0.015-0.326-0.025c-0.634-0.056-1.265-0.131-1.89-0.233
	c-0.028-0.005-0.056-0.01-0.084-0.015c-1.322-0.221-2.623-0.546-3.89-0.971c-0.039-0.013-0.079-0.027-0.118-0.04
	c-0.629-0.214-1.251-0.451-1.862-0.713c-0.004-0.002-0.009-0.004-0.013-0.006c-0.578-0.249-1.145-0.525-1.705-0.816
	c-0.073-0.038-0.147-0.074-0.219-0.113c-0.511-0.273-1.011-0.568-1.504-0.876c-0.146-0.092-0.291-0.185-0.435-0.279
	c-0.454-0.297-0.902-0.606-1.338-0.933c-0.045-0.034-0.088-0.07-0.133-0.104c0.032-0.018,0.064-0.036,0.096-0.054l7.907-4.313
	c1.36-0.742,2.205-2.165,2.205-3.714l-0.001-3.602l-0.23-0.278c-0.022-0.025-2.184-2.655-3.001-6.216l-0.091-0.396l-0.341-0.221
	c-0.481-0.311-0.769-0.831-0.769-1.392v-3.545c0-0.465,0.197-0.898,0.557-1.223l0.33-0.298v-5.57l-0.009-0.131
	c-0.003-0.024-0.298-2.429,1.396-4.36C21.583,10.837,24.061,10,27.5,10c3.426,0,5.896,0.83,7.346,2.466
	c1.692,1.911,1.415,4.361,1.413,4.381l-0.009,5.701l0.33,0.298c0.359,0.324,0.557,0.758,0.557,1.223v3.545
	c0,0.713-0.485,1.36-1.181,1.575l-0.497,0.153l-0.16,0.495c-0.59,1.833-1.43,3.526-2.496,5.032c-0.262,0.37-0.517,0.698-0.736,0.949
	l-0.248,0.283V39.8c0,1.612,0.896,3.062,2.338,3.782l8.467,4.233c0.054,0.027,0.107,0.055,0.16,0.083
	C42.677,47.979,42.567,48.054,42.459,48.132z"/>
  </symbol>
  <symbol id="remove" viewBox="0 0 212.982 212.982">
    <path style="fill-rule:evenodd;clip-rule:evenodd;" d="M131.804,106.491l75.936-75.936c6.99-6.99,6.99-18.323,0-25.312
		c-6.99-6.99-18.322-6.99-25.312,0l-75.937,75.937L30.554,5.242c-6.99-6.99-18.322-6.99-25.312,0c-6.989,6.99-6.989,18.323,0,25.312
		l75.937,75.936L5.242,182.427c-6.989,6.99-6.989,18.323,0,25.312c6.99,6.99,18.322,6.99,25.312,0l75.937-75.937l75.937,75.937
		c6.989,6.99,18.322,6.99,25.312,0c6.99-6.99,6.99-18.322,0-25.312L131.804,106.491z"/>
     </symbol>
  <symbol id="bot" viewBox="0 0 463 463">
    <g xmlns="http://www.w3.org/2000/svg">
	<path d="M439.5,88c-10.336,0-19.128,6.71-22.266,16h-10.526C404.776,78.555,393.08,56.141,375,43.449V39.5   C375,17.72,357.28,0,335.5,0h-208C105.72,0,88,17.72,88,39.5v3.949C69.92,56.141,58.224,78.555,56.292,104H45.766   c-3.138-9.29-11.93-16-22.266-16C10.542,88,0,98.542,0,111.5S10.542,135,23.5,135c10.336,0,19.128-6.71,22.266-16h10.526   C58.224,144.445,69.92,166.859,88,179.551v3.949c0,21.78,17.72,39.5,39.5,39.5H208v17h-40.5c-11.38,0-20.895,8.132-23.043,18.89   c-20.806,12.364-35.728,31.894-43.259,56.747c-4.026,13.287-4.992,24.909-5.186,31.222l-11.865,5.932   C81.605,354.062,80,356.659,80,359.5v24c0,2.841,1.605,5.438,4.146,6.708l16,8c1.077,0.539,2.221,0.793,3.348,0.793   c2.751,0,5.4-1.52,6.714-4.147c1.853-3.705,0.351-8.21-3.354-10.062L95,378.865v-14.729l8.5-4.25l8.5,4.25V375.5   c0,4.142,3.358,7.5,7.5,7.5s7.5-3.358,7.5-7.5v-16c0-2.841-1.605-5.438-4.146-6.708l-11.831-5.915   c0.466-12.524,4.575-49.786,36.021-71.831c4.04,7.13,11.693,11.955,20.456,11.955H184v40.5c0,16.981,8.963,31.9,22.4,40.3   c-4.566,7.789-12.675,24.675-14.156,48.2H175.5c-17.369,0-31.5,14.131-31.5,31.5v8c0,4.142,3.358,7.5,7.5,7.5h56   c4.142,0,7.5-3.358,7.5-7.5v-32c0-4.142-3.358-7.5-7.5-7.5h-0.218c1.629-22.226,10.054-37.465,13.108-42.325   c3.566,0.858,7.283,1.325,11.109,1.325c3.825,0,7.542-0.467,11.108-1.325c3.069,4.885,11.482,20.118,13.11,42.325H255.5   c-4.142,0-7.5,3.358-7.5,7.5v32c0,4.142,3.358,7.5,7.5,7.5h56c4.142,0,7.5-3.358,7.5-7.5v-8c0-17.369-14.131-31.5-31.5-31.5   h-16.743c-1.482-23.525-9.591-40.411-14.156-48.2c13.437-8.4,22.4-23.319,22.4-40.3V287h16.5c8.761,0,16.412-4.822,20.452-11.948   c14.907,10.398,25.444,25.304,31.35,44.462c3.571,11.584,4.468,21.858,4.672,27.364l-11.829,5.914   c-2.541,1.27-4.146,3.867-4.146,6.708v16c0,4.142,3.358,7.5,7.5,7.5s7.5-3.358,7.5-7.5v-11.365l8.5-4.25l8.5,4.25v14.729   l-11.854,5.927c-3.705,1.852-5.207,6.357-3.354,10.062c1.314,2.628,3.962,4.148,6.714,4.147c1.127,0,2.271-0.255,3.348-0.793l16-8   c2.541-1.27,4.146-3.867,4.146-6.708v-24c0-2.841-1.605-5.438-4.146-6.708l-11.865-5.932c-0.195-6.313-1.16-17.935-5.186-31.222   c-7.531-24.853-22.454-44.383-43.259-56.747C316.395,248.132,306.88,240,295.5,240H255v-17h80.5c21.78,0,39.5-17.72,39.5-39.5   v-3.949c18.08-12.692,29.776-35.106,31.708-60.551h10.526c3.138,9.29,11.93,16,22.266,16c12.958,0,23.5-10.542,23.5-23.5   S452.458,88,439.5,88z M200,448h-41v-0.5c0-9.098,7.402-16.5,16.5-16.5H200V448z M304,447.5v0.5h-41v-17h24.5   C296.598,431,304,438.402,304,447.5z M23.5,120c-4.687,0-8.5-3.813-8.5-8.5s3.813-8.5,8.5-8.5s8.5,3.813,8.5,8.5   S28.187,120,23.5,120z M71,111.5c0-18.637,6.4-36.124,17-48.024v96.047C77.4,147.624,71,130.137,71,111.5z M159.001,263.523   c0-0.01-0.001-0.02-0.001-0.03c0.004-4.684,3.815-8.493,8.5-8.493H224v17h-56.5C162.821,272,159.014,268.199,159.001,263.523z    M264,327.5c0,17.92-14.58,32.5-32.5,32.5S199,345.42,199,327.5V287h65V327.5z M304,263.493c0,0.01-0.001,0.02-0.001,0.03   c-0.013,4.676-3.82,8.477-8.499,8.477H239v-17h56.5C300.185,255,303.996,258.809,304,263.493z M240,240h-17v-17h17V240z M360,183.5   c0,13.509-10.991,24.5-24.5,24.5h-208c-13.509,0-24.5-10.991-24.5-24.5v-144c0-13.509,10.991-24.5,24.5-24.5h208   c13.509,0,24.5,10.991,24.5,24.5V183.5z M375,159.524V63.476c10.6,11.899,17,29.387,17,48.024S385.6,147.624,375,159.524z    M439.5,120c-4.687,0-8.5-3.813-8.5-8.5s3.813-8.5,8.5-8.5s8.5,3.813,8.5,8.5S444.187,120,439.5,120z"/>
	<path d="M335.5,32h-208c-4.142,0-7.5,3.358-7.5,7.5v144c0,4.142,3.358,7.5,7.5,7.5h208c4.142,0,7.5-3.358,7.5-7.5v-144   C343,35.358,339.642,32,335.5,32z M328,176H135V47h193V176z"/>
	<path d="M191.5,159c12.958,0,23.5-10.542,23.5-23.5v-48c0-12.958-10.542-23.5-23.5-23.5S168,74.542,168,87.5v48   C168,148.458,178.542,159,191.5,159z M183,87.5c0-4.687,3.813-8.5,8.5-8.5s8.5,3.813,8.5,8.5v48c0,4.687-3.813,8.5-8.5,8.5   s-8.5-3.813-8.5-8.5V87.5z"/>
	<path d="M271.5,159c12.958,0,23.5-10.542,23.5-23.5v-48c0-12.958-10.542-23.5-23.5-23.5S248,74.542,248,87.5v48   C248,148.458,258.542,159,271.5,159z M263,87.5c0-4.687,3.813-8.5,8.5-8.5s8.5,3.813,8.5,8.5v48c0,4.687-3.813,8.5-8.5,8.5   s-8.5-3.813-8.5-8.5V87.5z"/>
</g>
  </symbol>
  <symbol id="location" viewBox="0 0 54.757 54.757">
  <path d="M27.557,12c-3.859,0-7,3.141-7,7s3.141,7,7,7s7-3.141,7-7S31.416,12,27.557,12z M27.557,24c-2.757,0-5-2.243-5-5
		s2.243-5,5-5s5,2.243,5,5S30.314,24,27.557,24z"/>
	<path d="M40.94,5.617C37.318,1.995,32.502,0,27.38,0c-5.123,0-9.938,1.995-13.56,5.617c-6.703,6.702-7.536,19.312-1.804,26.952
		L27.38,54.757L42.721,32.6C48.476,24.929,47.643,12.319,40.94,5.617z M41.099,31.431L27.38,51.243L13.639,31.4
		C8.44,24.468,9.185,13.08,15.235,7.031C18.479,3.787,22.792,2,27.38,2s8.901,1.787,12.146,5.031
		C45.576,13.08,46.321,24.468,41.099,31.431z"/>
  </symbol>
</svg>