<!DOCTYPE svg PUBLIC "-//W3C//DTD SVG 1.1//EN" "http://www.w3.org/Graphics/SVG/1.1/DTD/svg11.dtd">
<svg xmlns="http://www.w3.org/2000/svg">
  <symbol id="afisha-logo">
    <path d="M36.0126949,19.9854092 C36.0126949,16.2553785 32.98934,14.6753169 29.5946959,14.6753169 L2.00731906,14.6753169 L2.00437232,19.9281169 L22.9704251,19.9281169 C24.5881852,19.9281169 25.9083245,20.5492862 25.9083245,22.4731015 L25.9171648,23.4500862 L5.94121653,23.4500862 C2.45522349,23.4500862 0.424919861,26.0342708 0.424919861,28.8777785 L0.424919861,35.1708862 C0.424919861,37.7158708 2.32556695,40.76744 5.94121653,40.76744 L35.9950144,40.76744 L36.0126949,19.9854092 Z M10.4968761,31.4046708 C10.4968761,30.0115631 11.2482947,28.8174708 13.4170951,28.8174708 L25.9171648,28.8174708 L25.9171648,35.1105785 L13.4760299,35.1105785 C11.0272892,35.1105785 10.4968761,33.5817785 10.4968761,32.7796862 L10.4968761,31.4046708 Z" />
  </symbol>

  <symbol id="menu-events" x="0px" y="0px" viewBox="0 0 58 58">
    <path d="M46,34c-6.617,0-12,5.383-12,12s5.383,12,12,12s12-5.383,12-12S52.617,34,46,34z M46,56c-5.514,0-10-4.486-10-10s4.486-10,10-10s10,4.486,10,10S51.514,56,46,56z"/>
    <path d="M52,45h-5v-5c0-0.553-0.447-1-1-1s-1,0.447-1,1v6c0,0.553,0.447,1,1,1h6c0.553,0,1-0.447,1-1S52.553,45,52,45z"/>
    <path d="M27,21h-2h-7h-2H7v9v2v7v2v9h9h2h9v-9v-2v-7h7h2h9V21h-9h-2H27z M36,23h7v7h-7V23z M18,23h7v7h-7V23z M9,23h7v7H9V23zM9,32h7v7H9V32z M16,48H9v-7h7V48z M25,48h-7v-7h7V48z M25,39h-7v-7h7V39z M34,30h-7v-7h7V30z"/>
    <path d="M33,55H2V16h48v13c0,0.553,0.447,1,1,1s1-0.447,1-1V15V5c0-0.553-0.447-1-1-1h-5V1c0-0.553-0.447-1-1-1h-7c-0.553,0-1,0.447-1,1v3H15V1c0-0.553-0.447-1-1-1H7C6.447,0,6,0.447,6,1v3H1C0.447,4,0,4.447,0,5v10v41c0,0.553,0.447,1,1,1h32c0.553,0,1-0.447,1-1S33.553,55,33,55z M39,2h5v3v3h-5V5V2z M8,2h5v3v3H8V5V2z M2,6h4v3c0,0.553,0.447,1,1,1h7c0.553,0,1-0.447,1-1V6h22v3c0,0.553,0.447,1,1,1h7c0.553,0,1-0.447,1-1V6h4v8H2V6z"/>
  </symbol>
  <symbol id="menu-events-fav">
    <path d="M58.963,44.119c-0.116-0.367-0.434-0.634-0.814-0.688l-7.777-1.089l-3.472-6.78c-0.342-0.668-1.438-0.668-1.779,0l-3.472,6.78l-7.777,1.089c-0.381,0.054-0.698,0.32-0.814,0.688s-0.012,0.768,0.269,1.031l5.605,5.267l-1.321,7.427c-0.066,0.373,0.084,0.752,0.388,0.978c0.305,0.227,0.711,0.262,1.049,0.089l6.964-3.528l6.964,3.528c0.143,0.073,0.298,0.108,0.452,0.108c0.211,0,0.421-0.066,0.597-0.197c0.304-0.226,0.454-0.604,0.388-0.978l-1.321-7.427l5.605-5.267C58.974,44.887,59.079,44.486,58.963,44.119z M51.325,49.33c-0.246,0.231-0.359,0.571-0.3,0.903l1.064,5.987l-5.628-2.852c-0.143-0.072-0.297-0.108-0.452-0.108s-0.31,0.036-0.452,0.108l-5.628,2.852l1.064-5.987c0.06-0.332-0.054-0.672-0.3-0.903l-4.479-4.207l6.225-0.872c0.322-0.045,0.603-0.244,0.751-0.534l2.818-5.504l2.818,5.504c0.148,0.29,0.429,0.489,0.751,0.534l6.225,0.872L51.325,49.33z"/>
    <path d="M36.01,32h9V21h-9h-2h-7h-2h-7h-2h-9v9v2v7v2v9h9h2h9v-9h9V32z M36.01,23h7v7h-7V23z M27.01,23h7v7h-7V23z M18.01,23h7v7h-7V23z M25.01,39h-7v-7h7V39z M9.01,23h7v7h-7V23z M9.01,32h7v7h-7V32z M16.01,48h-7v-7h7V48z M25.01,48h-7v-7h7V48z M34.01,39h-7v-7h7V39z"/>
    <path d="M26.01,55h-24V16h48v17c0,0.553,0.447,1,1,1s1-0.447,1-1V15V5c0-0.553-0.447-1-1-1h-5V1c0-0.553-0.447-1-1-1h-7c-0.553,0-1,0.447-1,1v3h-22V1c0-0.553-0.447-1-1-1h-7c-0.553,0-1,0.447-1,1v3h-5c-0.553,0-1,0.447-1,1v10v41c0,0.553,0.447,1,1,1h25c0.553,0,1-0.447,1-1S26.562,55,26.01,55z M39.01,2h5v3v3h-5V5V2z M8.01,2h5v3v3h-5V5V2z M2.01,6h4v3c0,0.553,0.447,1,1,1h7c0.553,0,1-0.447,1-1V6h22v3c0,0.553,0.447,1,1,1h7c0.553,0,1-0.447,1-1V6h4v8h-48V6z"/>
  </symbol>
  <symbol id="menu-events-like">
    <path d="M55.955,41.109c-0.399-4.089-3.452-7.052-7.271-7.052c-2.396,0-4.407,1.449-5.684,3.213c-1.276-1.764-3.288-3.213-5.684-3.213c-3.819,0-6.871,2.963-7.271,7.052c-0.042,0.267-0.145,1.22,0.226,2.709c0.546,2.197,1.801,4.192,3.631,5.77l8.329,7.127c0.223,0.191,0.496,0.287,0.769,0.287c0.273,0,0.546-0.096,0.769-0.286l8.331-7.129c1.828-1.575,3.083-3.57,3.629-5.768C56.099,42.329,55.997,41.377,55.955,41.109z M53.788,43.337c-0.445,1.794-1.479,3.432-2.99,4.732l-7.797,6.672l-7.795-6.671c-1.513-1.303-2.547-2.94-2.992-4.734c-0.302-1.213-0.194-1.897-0.194-1.897l0.016-0.105c0.245-2.621,2.138-5.275,5.282-5.275c2.189,0,3.974,1.811,4.77,3.605l0.914,2.061l0.914-2.061c0.796-1.795,2.58-3.605,4.77-3.605c3.145,0,5.037,2.654,5.295,5.366C53.982,41.431,54.092,42.115,53.788,43.337z"/>
    <path d="M37.001,32h9V21h-9h-2h-7h-2h-7h-2h-9v9v2v7v2v9h9h2h9v-9v-2v-7h7H37.001z M37.001,23h7v7h-7V23z M19.001,23h7v7h-7V23zM10.001,23h7v7h-7V23z M10.001,32h7v7h-7V32z M17.001,48h-7v-7h7V48z M26.001,48h-7v-7h7V48z M26.001,39h-7v-7h7V39z M28.001,30v-7h7v7H28.001z"/>
    <path d="M27.001,55h-24V16h48v13c0,0.553,0.447,1,1,1s1-0.447,1-1V15V5c0-0.553-0.447-1-1-1h-5V1c0-0.553-0.447-1-1-1h-7c-0.553,0-1,0.447-1,1v3h-22V1c0-0.553-0.447-1-1-1h-7c-0.553,0-1,0.447-1,1v3h-5c-0.553,0-1,0.447-1,1v10v41c0,0.553,0.447,1,1,1h25c0.553,0,1-0.447,1-1S27.554,55,27.001,55z M40.001,2h5v3v3h-5V5V2z M9.001,2h5v3v3h-5V5V2z M3.001,6h4v3c0,0.553,0.447,1,1,1h7c0.553,0,1-0.447,1-1V6h22v3c0,0.553,0.447,1,1,1h7c0.553,0,1-0.447,1-1V6h4v8h-48V6z"/>
  </symbol>

  <symbol id="menu-movies" x="0px" y="0px" viewBox="0 0 59 59">
    <path d="M58,57c-4.411,0-8-3.589-8-8c0-0.009-0.005-0.017-0.005-0.026C54.949,43.769,58,36.736,58,29C58,13.01,44.99,0,29,0
		S0,13.01,0,29s13.01,29,29,29c7.34,0,14.048-2.747,19.162-7.26C48.989,55.426,53.081,59,58,59c0.553,0,1-0.447,1-1S58.553,57,58,57
		z M2,29C2,14.112,14.112,2,29,2s27,12.112,27,27S43.888,56,29,56S2,43.888,2,29z"/>
    <path d="M29,4C15.215,4,4,15.215,4,29s11.215,25,25,25s25-11.215,25-25S42.785,4,29,4z M29,52C16.317,52,6,41.683,6,29
		S16.317,6,29,6s23,10.317,23,23S41.683,52,29,52z"/>
    <path d="M41,22c-0.332,0-0.656,0.031-0.976,0.076l-0.023-0.041l-0.75,0.192c-0.01,0.003-0.019,0.007-0.029,0.01
		c-0.369,0.097-0.727,0.22-1.07,0.374c-0.015,0.007-0.029,0.015-0.044,0.021c-0.336,0.153-0.659,0.328-0.964,0.531
		c-0.008,0.005-0.017,0.01-0.024,0.015c-0.282,0.189-0.546,0.402-0.797,0.629c-0.051,0.046-0.102,0.091-0.152,0.138
		c-0.232,0.222-0.45,0.459-0.65,0.711c-0.043,0.054-0.082,0.11-0.124,0.165c-0.199,0.266-0.385,0.541-0.545,0.834
		c-0.003,0.006-0.007,0.012-0.01,0.019c-0.161,0.297-0.294,0.611-0.412,0.932c-0.021,0.057-0.043,0.114-0.063,0.172
		c-0.106,0.315-0.189,0.64-0.25,0.973c-0.011,0.062-0.019,0.125-0.029,0.188C34.036,28.286,34,28.638,34,29s0.036,0.714,0.089,1.062
		c0.01,0.063,0.017,0.125,0.029,0.188c0.06,0.333,0.144,0.658,0.25,0.973c0.019,0.058,0.042,0.114,0.063,0.171
		c0.117,0.321,0.251,0.635,0.412,0.932c0.003,0.006,0.007,0.012,0.01,0.019c0.16,0.293,0.346,0.568,0.544,0.833
		c0.041,0.055,0.081,0.111,0.124,0.166c0.2,0.252,0.417,0.489,0.65,0.711c0.05,0.047,0.101,0.092,0.152,0.138
		c0.252,0.227,0.515,0.44,0.798,0.629c0.008,0.005,0.016,0.01,0.024,0.015c0.305,0.202,0.628,0.377,0.964,0.531
		c0.015,0.007,0.029,0.015,0.044,0.021c0.343,0.154,0.7,0.277,1.069,0.374c0.01,0.003,0.019,0.007,0.029,0.01l0.75,0.192
		l0.023-0.041C40.344,35.969,40.668,36,41,36c3.859,0,7-3.141,7-7S44.859,22,41,22z M40,29c0,1.579-0.344,3.146-0.999,4.577
		c-0.25-0.11-0.488-0.241-0.714-0.388c-0.081-0.052-0.154-0.112-0.232-0.169c-0.163-0.12-0.32-0.248-0.468-0.386
		c-0.068-0.063-0.135-0.127-0.198-0.193c-0.168-0.177-0.324-0.365-0.466-0.564c-0.025-0.036-0.055-0.067-0.08-0.104
		c-0.159-0.237-0.293-0.491-0.41-0.754c-0.033-0.075-0.059-0.154-0.089-0.231c-0.078-0.203-0.144-0.412-0.195-0.627
		c-0.021-0.086-0.043-0.172-0.059-0.26C36.037,29.608,36,29.308,36,29s0.037-0.608,0.091-0.901c0.016-0.088,0.038-0.174,0.059-0.26
		c0.051-0.215,0.117-0.424,0.195-0.627c0.03-0.077,0.056-0.156,0.089-0.231c0.117-0.263,0.251-0.517,0.41-0.754
		c0.024-0.036,0.055-0.068,0.08-0.104c0.141-0.2,0.297-0.388,0.466-0.564c0.064-0.067,0.131-0.13,0.198-0.193
		c0.147-0.139,0.304-0.266,0.468-0.386c0.077-0.056,0.151-0.116,0.232-0.169c0.227-0.147,0.464-0.278,0.714-0.388
		C39.656,25.854,40,27.421,40,29z M41,34c-0.005,0-0.009-0.001-0.014-0.001C41.645,32.419,42,30.718,42,29s-0.355-3.419-1.014-4.999
		C40.991,24.001,40.995,24,41,24c2.757,0,5,2.243,5,5S43.757,34,41,34z"/>
    <path d="M22.479,33.344c0.043-0.054,0.082-0.11,0.124-0.165c0.198-0.265,0.384-0.54,0.544-0.832
		c0.004-0.007,0.008-0.014,0.012-0.022c0.161-0.297,0.294-0.61,0.411-0.931c0.021-0.057,0.043-0.113,0.063-0.171
		c0.106-0.315,0.19-0.64,0.25-0.974c0.011-0.062,0.019-0.125,0.029-0.187C23.964,29.715,24,29.362,24,29s-0.036-0.715-0.089-1.062
		c-0.01-0.063-0.017-0.125-0.029-0.187c-0.06-0.333-0.144-0.658-0.25-0.974c-0.019-0.058-0.042-0.114-0.063-0.172
		c-0.117-0.321-0.25-0.634-0.411-0.93c-0.004-0.007-0.008-0.014-0.012-0.022c-0.16-0.292-0.346-0.568-0.544-0.833
		c-0.041-0.055-0.081-0.111-0.123-0.165c-0.2-0.252-0.417-0.489-0.65-0.711c-0.05-0.047-0.101-0.092-0.152-0.138
		c-0.252-0.227-0.515-0.44-0.798-0.629c-0.008-0.005-0.016-0.009-0.024-0.014c-0.305-0.202-0.628-0.377-0.964-0.531
		c-0.015-0.007-0.03-0.015-0.045-0.022c-0.343-0.153-0.701-0.277-1.07-0.374c-0.01-0.003-0.019-0.007-0.028-0.01l-0.75-0.192
		l-0.023,0.041C17.656,22.031,17.332,22,17,22c-3.859,0-7,3.141-7,7s3.141,7,7,7c0.332,0,0.656-0.031,0.976-0.076l0.023,0.041
		l0.75-0.192c0.01-0.003,0.019-0.007,0.029-0.01c0.369-0.097,0.727-0.22,1.069-0.374c0.015-0.007,0.03-0.015,0.045-0.022
		c0.336-0.153,0.659-0.329,0.964-0.531c0.008-0.005,0.016-0.009,0.023-0.014c0.283-0.189,0.546-0.402,0.798-0.629
		c0.051-0.046,0.102-0.091,0.152-0.138C22.061,33.833,22.279,33.596,22.479,33.344z M21.909,29.901
		c-0.016,0.088-0.038,0.174-0.059,0.26c-0.051,0.215-0.117,0.424-0.195,0.627c-0.03,0.077-0.056,0.156-0.089,0.231
		c-0.117,0.263-0.251,0.517-0.41,0.754c-0.024,0.036-0.055,0.068-0.08,0.104c-0.141,0.2-0.297,0.388-0.466,0.564
		c-0.064,0.067-0.131,0.13-0.198,0.193c-0.147,0.139-0.304,0.266-0.468,0.386c-0.077,0.056-0.151,0.116-0.232,0.169
		c-0.227,0.147-0.464,0.278-0.714,0.388C18.344,32.146,18,30.579,18,29s0.344-3.146,0.999-4.577c0.25,0.11,0.488,0.241,0.714,0.388
		c0.081,0.052,0.154,0.112,0.232,0.169c0.163,0.12,0.32,0.248,0.468,0.386c0.068,0.063,0.135,0.127,0.198,0.193
		c0.168,0.177,0.324,0.365,0.466,0.564c0.025,0.036,0.055,0.067,0.08,0.104c0.159,0.237,0.293,0.491,0.41,0.754
		c0.033,0.075,0.059,0.154,0.089,0.231c0.078,0.203,0.144,0.412,0.195,0.627c0.021,0.086,0.043,0.172,0.059,0.26
		C21.963,28.392,22,28.692,22,29S21.963,29.608,21.909,29.901z M12,29c0-2.757,2.243-5,5-5c0.005,0,0.009,0.001,0.014,0.001
		C16.355,25.581,16,27.282,16,29s0.355,3.419,1.014,4.999C17.009,33.999,17.005,34,17,34C14.243,34,12,31.757,12,29z"/>
    <path d="M22.035,17.999l0.192,0.75c0.003,0.01,0.007,0.019,0.01,0.029c0.097,0.369,0.22,0.727,0.374,1.069
		c0.007,0.015,0.015,0.029,0.021,0.044c0.153,0.336,0.329,0.659,0.531,0.964c0.005,0.008,0.01,0.016,0.015,0.024
		c0.189,0.282,0.402,0.546,0.629,0.798c0.046,0.051,0.091,0.102,0.138,0.152c0.222,0.232,0.459,0.45,0.711,0.65
		c0.054,0.043,0.11,0.083,0.165,0.124c0.266,0.199,0.541,0.385,0.834,0.545c0.006,0.004,0.012,0.007,0.019,0.01
		c0.297,0.161,0.611,0.294,0.932,0.412c0.057,0.021,0.113,0.043,0.171,0.063c0.315,0.106,0.64,0.189,0.973,0.25
		c0.062,0.011,0.125,0.019,0.188,0.029C28.286,23.964,28.638,24,29,24s0.714-0.036,1.062-0.089c0.063-0.01,0.125-0.017,0.188-0.029
		c0.333-0.06,0.658-0.144,0.973-0.25c0.058-0.019,0.114-0.042,0.172-0.063c0.321-0.117,0.635-0.251,0.932-0.412
		c0.006-0.003,0.012-0.007,0.019-0.01c0.293-0.16,0.568-0.346,0.834-0.545c0.055-0.041,0.111-0.081,0.165-0.124
		c0.252-0.2,0.489-0.417,0.711-0.65c0.047-0.05,0.092-0.101,0.138-0.152c0.227-0.251,0.44-0.515,0.629-0.797
		c0.005-0.008,0.01-0.016,0.015-0.024c0.202-0.305,0.377-0.628,0.531-0.964c0.007-0.015,0.015-0.029,0.021-0.044
		c0.153-0.343,0.277-0.701,0.374-1.07c0.003-0.01,0.007-0.019,0.01-0.029l0.192-0.75l-0.041-0.023C35.969,17.656,36,17.332,36,17
		c0-3.859-3.141-7-7-7s-7,3.141-7,7c0,0.332,0.031,0.656,0.076,0.976L22.035,17.999z M33.189,19.713
		c-0.052,0.081-0.112,0.154-0.169,0.231c-0.12,0.163-0.248,0.32-0.386,0.468c-0.063,0.067-0.127,0.135-0.193,0.198
		c-0.177,0.168-0.365,0.324-0.564,0.466c-0.036,0.025-0.067,0.055-0.104,0.08c-0.237,0.159-0.491,0.293-0.754,0.41
		c-0.075,0.033-0.154,0.059-0.231,0.089c-0.203,0.078-0.412,0.144-0.627,0.195c-0.086,0.021-0.172,0.043-0.26,0.059
		C29.608,21.963,29.308,22,29,22s-0.608-0.037-0.901-0.091c-0.088-0.016-0.174-0.038-0.26-0.059
		c-0.215-0.051-0.424-0.117-0.627-0.195c-0.077-0.03-0.155-0.056-0.231-0.089c-0.263-0.117-0.517-0.251-0.754-0.41
		c-0.036-0.024-0.068-0.055-0.104-0.08c-0.2-0.141-0.388-0.298-0.564-0.466c-0.067-0.064-0.13-0.131-0.193-0.198
		c-0.138-0.147-0.266-0.304-0.386-0.468c-0.056-0.077-0.116-0.151-0.169-0.231c-0.147-0.227-0.279-0.464-0.388-0.714
		c2.861-1.31,6.292-1.31,9.154,0C33.467,19.249,33.336,19.487,33.189,19.713z M29,12c2.757,0,5,2.243,5,5
		c0,0.006-0.002,0.012-0.002,0.018c-3.165-1.302-6.832-1.302-9.996,0C24.002,17.012,24,17.006,24,17C24,14.243,26.243,12,29,12z"/>
    <path d="M35.965,40.001l-0.192-0.75c-0.003-0.01-0.007-0.019-0.01-0.028c-0.097-0.369-0.221-0.727-0.374-1.07
		c-0.007-0.015-0.015-0.03-0.022-0.045c-0.153-0.336-0.329-0.659-0.531-0.964c-0.005-0.008-0.009-0.016-0.014-0.024
		c-0.189-0.283-0.402-0.546-0.629-0.798c-0.046-0.051-0.091-0.102-0.138-0.152c-0.222-0.233-0.459-0.45-0.711-0.65
		c-0.054-0.043-0.11-0.082-0.165-0.123c-0.265-0.198-0.54-0.384-0.833-0.544c-0.007-0.004-0.014-0.008-0.022-0.012
		c-0.297-0.161-0.61-0.294-0.93-0.411c-0.057-0.021-0.114-0.043-0.172-0.063c-0.315-0.106-0.64-0.189-0.974-0.25
		c-0.062-0.011-0.124-0.019-0.187-0.029C29.715,34.036,29.362,34,29,34s-0.715,0.036-1.062,0.089
		c-0.063,0.01-0.125,0.017-0.187,0.029c-0.333,0.061-0.658,0.144-0.974,0.25c-0.058,0.019-0.114,0.042-0.171,0.063
		c-0.321,0.117-0.634,0.25-0.931,0.411c-0.007,0.004-0.014,0.008-0.022,0.012c-0.292,0.16-0.567,0.345-0.832,0.544
		c-0.055,0.041-0.111,0.081-0.165,0.124c-0.252,0.2-0.489,0.417-0.711,0.65c-0.047,0.05-0.092,0.101-0.138,0.152
		c-0.227,0.251-0.44,0.515-0.629,0.798c-0.005,0.008-0.009,0.016-0.014,0.024c-0.202,0.305-0.378,0.628-0.531,0.964
		c-0.007,0.015-0.015,0.03-0.022,0.045c-0.153,0.343-0.277,0.7-0.374,1.069c-0.003,0.01-0.008,0.019-0.01,0.029l-0.192,0.75
		l0.041,0.023C22.031,40.344,22,40.668,22,41c0,3.859,3.141,7,7,7s7-3.141,7-7c0-0.332-0.031-0.656-0.076-0.976L35.965,40.001z
		 M24.811,38.287c0.052-0.081,0.112-0.154,0.169-0.231c0.12-0.163,0.248-0.32,0.386-0.468c0.063-0.067,0.127-0.135,0.193-0.198
		c0.177-0.168,0.365-0.324,0.564-0.466c0.036-0.025,0.067-0.055,0.104-0.08c0.237-0.159,0.491-0.293,0.754-0.41
		c0.075-0.033,0.154-0.059,0.231-0.089c0.203-0.078,0.412-0.144,0.627-0.195c0.086-0.021,0.172-0.043,0.26-0.059
		C28.392,36.037,28.692,36,29,36s0.608,0.037,0.901,0.091c0.088,0.016,0.174,0.038,0.26,0.059c0.215,0.051,0.424,0.117,0.627,0.195
		c0.077,0.03,0.155,0.056,0.231,0.089c0.263,0.117,0.517,0.251,0.754,0.41c0.036,0.024,0.068,0.055,0.104,0.08
		c0.2,0.141,0.388,0.298,0.564,0.466c0.067,0.064,0.13,0.131,0.193,0.198c0.138,0.147,0.266,0.304,0.386,0.468
		c0.056,0.077,0.116,0.151,0.169,0.231c0.147,0.227,0.279,0.464,0.388,0.714c-2.861,1.31-6.292,1.31-9.154,0
		C24.533,38.751,24.664,38.513,24.811,38.287z M29,46c-2.757,0-5-2.243-5-5c0-0.005,0.001-0.009,0.001-0.014
		C25.581,41.645,27.282,42,29,42s3.419-0.355,4.999-1.014C33.999,40.991,34,40.995,34,41C34,43.757,31.757,46,29,46z"/>
  </symbol>

  <symbol id="menu-theaters" x="0px" y="0px" viewBox="0 0 512 512">
    <path d="M504.396,25.347H139.409c-4.199,0-7.604,3.405-7.604,7.604c0,4.199,3.405,7.604,7.604,7.604h357.383v23.823h-31.427
			H46.635H15.208V40.555h39.037c4.199,0,7.604-3.405,7.604-7.604c0-4.199-3.405-7.604-7.604-7.604H7.604
			C3.405,25.347,0,28.751,0,32.951v39.031v377.159v29.909c0,4.199,3.405,7.604,7.604,7.604h496.792c4.2,0,7.604-3.405,7.604-7.604
			v-29.909V71.982V32.951C512,28.751,508.596,25.347,504.396,25.347z M472.969,295.034V267.66v-0.016c0-0.016,0-0.033,0-0.05V79.586
			h23.823v361.952h-23.823V295.034z M433.414,79.586h24.348v121.492C432.278,154.061,432.462,98.582,433.414,79.586z
			 M396.798,79.584h21.361v0.001c-0.475,9.591-0.703,26.572,1.696,47.018c3.339,28.463,12.647,69.09,37.907,102.559v2.034
			c-29.456-19.046-48.624-49.788-57.032-91.592C395.531,113.753,396.084,90.532,396.798,79.584z M381.539,79.584L381.539,79.584
			c-0.754,12.136-1.138,35.791,4.192,62.572c9.812,49.311,34.677,86.109,72.031,106.75v1.121
			c-10.323-4.056-27.793-12.642-45.082-29.042c-34.592-32.814-52.796-80.364-54.183-141.401H381.539z M427.006,302.638h15.948
			l-46.977,138.899h-15.948L427.006,302.638z M363.974,441.537h-16.773l46.977-138.899h16.773L363.974,441.537z M457.761,306.323
			v135.214h-45.73L457.761,306.323z M453.553,287.43h-31.815c-0.003,0-0.007,0-0.01,0h-25.402v-12.166h61.435v12.166H453.553z
			 M343.282,79.586c0.779,34.956,6.962,66.304,18.417,93.268c9.919,23.348,23.773,43.465,41.179,59.793
			c10.429,9.782,20.844,17.001,30.039,22.276c-45.69-12-112.869-50.868-115.497-175.337H343.282z M302.215,79.584
			c0.846,40.811,8.535,76.155,22.899,105.144c12.529,25.286,30.148,45.869,52.365,61.175c8.366,5.764,16.812,10.409,25.055,14.153
			h-12.547c-5.474-1.948-32.363-12.364-58.863-37.51c-37.809-35.878-57.729-83.95-59.297-142.962H302.215z M240.179,79.586
			c-0.983,36.16-9.018,68.606-23.929,96.536c-1.978,3.705-0.578,8.312,3.127,10.289c1.141,0.609,2.366,0.897,3.575,0.897
			c2.717,0,5.345-1.46,6.715-4.024c16.09-30.14,24.731-64.995,25.728-103.698h1.219c0.874,33.848,7.602,64.834,20.047,92.201
			c10.748,23.63,25.734,44.594,44.545,62.31c24.747,23.307,49.356,34.698,59.915,38.878v20.81l-49.972,147.753H180.854
			l-49.972-147.753v-20.81c10.559-4.18,35.169-15.571,59.915-38.878c3.057-2.879,3.202-7.691,0.322-10.749
			c-2.879-3.057-7.691-3.201-10.749-0.322c-26.333,24.8-52.919,35.097-58.357,37.031h-12.547
			c8.243-3.744,16.689-8.389,25.055-14.153c22.218-15.307,39.836-35.89,52.366-61.175c14.364-28.988,22.054-64.333,22.898-105.143
			H240.179z M69.046,302.638h15.948l46.977,138.899h-15.948L69.046,302.638z M99.97,441.537H54.239V306.324L99.97,441.537z
			 M101.049,302.638h16.774L164.8,441.537h-16.772L101.049,302.638z M194.58,79.584v0.001
			c-2.628,124.468-69.807,163.337-115.497,175.337c9.195-5.274,19.61-12.493,30.039-22.276
			c17.406-16.327,31.26-36.445,41.179-59.794c11.456-26.964,17.638-58.311,18.418-93.268H194.58z M54.239,79.586h24.348
			c0.952,18.997,1.136,74.476-24.348,121.492V79.586z M54.239,229.164c25.259-33.47,34.569-74.097,37.907-102.559
			c2.399-20.446,2.172-37.427,1.696-47.018h21.368v-0.001c0.715,10.862,1.27,33.837-3.856,59.603
			c-8.36,42.016-27.557,72.897-57.115,92.009V229.164z M54.239,248.907c37.353-20.641,62.219-57.439,72.031-106.75
			c5.329-26.782,4.946-50.437,4.192-62.57h23.042c-1.387,61.035-19.591,108.587-54.183,141.4
			c-17.288,16.399-34.759,24.987-45.082,29.043V248.907z M54.238,275.263h0.001h61.435v12.166H90.266c-0.001,0-0.002,0-0.003,0
			H58.447h-4.209V275.263z M15.208,79.586h23.823v188.008c0,0.016,0,0.033,0,0.05v0.016v27.374v146.503H15.208V79.586z
			 M496.794,471.446h-0.002H15.208v-14.701h31.427h63.934h32.003h32.827h161.204h32.828h32.002h63.934h31.427V471.446z"/>
  </symbol>

  <symbol id="menu-exhibitions" x="0px" y="0px" viewBox="0 0 512.002 512.002">
    <path d="M107.666,236.357h296.671c4.872,0,8.821-3.95,8.821-8.821V8.821c0-4.872-3.95-8.821-8.821-8.821H107.666
				c-4.872,0-8.821,3.95-8.821,8.821v218.715C98.844,232.408,102.794,236.357,107.666,236.357z M128.961,218.715l15.564-15.564
				h222.951l15.564,15.564H128.961z M149.693,185.509V50.849h212.616v134.66H149.693z M395.514,206.239l-15.563-15.564V45.681
				l15.563-15.563V206.239z M383.04,17.642l-15.563,15.564H144.526l-15.565-15.564H383.04z M116.487,30.117l15.564,15.564v144.995
				l-15.564,15.564V30.117z"/>
    <path d="M497.507,494.358h-13.884V314.417c0-0.034-0.005-0.067-0.005-0.101c6.303-5.955,10.249-14.38,10.249-23.715
				c0-17.996-14.641-32.637-32.637-32.637c-17.996,0-32.637,14.641-32.637,32.637c0,9.335,3.945,17.76,10.249,23.715
				c0,0.034-0.005,0.067-0.005,0.101v26.47c-21.829,20.745-50.306,32.134-80.535,32.134c-30.165,0-58.585-11.343-80.397-32.004
				v-26.6c0-0.034-0.005-0.067-0.005-0.101c6.303-5.955,10.249-14.38,10.249-23.715c0-17.996-14.641-32.637-32.637-32.637
				c-17.996,0-32.637,14.641-32.637,32.637c0,9.335,3.945,17.76,10.249,23.715c0,0.034-0.005,0.067-0.005,0.101v26.928
				c-21.765,20.452-50.041,31.677-80.044,31.677c-29.94,0-58.16-11.178-79.907-31.549v-27.055c0-0.034-0.005-0.067-0.005-0.101
				c6.303-5.955,10.249-14.38,10.249-23.715c0-17.996-14.641-32.637-32.637-32.637c-17.996,0-32.637,14.641-32.637,32.637
				c0,9.335,3.945,17.76,10.249,23.715c0,0.034-0.005,0.067-0.005,0.101V494.36H14.494c-4.872,0-8.821,3.95-8.821,8.821
				c0,4.872,3.949,8.821,8.821,8.821h22.707h27.144h177.593h27.144h178.574h27.144h22.707c4.872,0,8.821-3.95,8.821-8.821
				C506.329,498.31,502.379,494.358,497.507,494.358z M55.524,494.359h-9.502v-0.001V323.238h9.502V494.359z M50.773,305.596
				c-8.268,0-14.995-6.726-14.995-14.995c0-8.268,6.726-14.995,14.995-14.995c8.268,0,14.995,6.726,14.995,14.995
				C65.767,298.87,59.041,305.596,50.773,305.596z M233.117,494.359H73.167V364.418c23.008,17.038,50.749,26.246,79.907,26.246
				c29.214,0,57.009-9.242,80.044-26.345V494.359z M260.261,494.359h-9.502v-0.001V323.238h9.502V494.359z M255.51,305.596
				c-8.268,0-14.995-6.726-14.995-14.995c0-8.268,6.726-14.995,14.995-14.995c8.268,0,14.995,6.726,14.995,14.995
				C270.505,298.87,263.778,305.596,255.51,305.596z M438.835,494.358H277.903V364.05c23.104,17.272,51.032,26.614,80.397,26.614
				c29.424,0,57.404-9.381,80.535-26.719V494.358z M465.98,494.359h-9.502v-0.001V323.238h9.502V494.359z M461.228,305.596
				c-8.268,0-14.995-6.726-14.995-14.995c0-8.268,6.726-14.995,14.995-14.995s14.995,6.726,14.995,14.995
				C476.223,298.87,469.497,305.596,461.228,305.596z"/>
  </symbol>

  <symbol id="menu-concerts" x="0px" y="0px" viewBox="0 0 550.47 550.47">
    <path d="M265.828,305.801c2.844,3.011,2.709,7.758-0.302,10.602c-1.449,1.369-3.301,2.048-5.148,2.048
	c-1.992,0-3.979-0.788-5.454-2.35l-33.951-35.945c-2.844-3.011-2.709-7.758,0.302-10.602c3.012-2.844,7.759-2.708,10.602,0.302
	L265.828,305.801z M549.556,46.357L527.45,86.93l2.245,1.223c1.747,0.952,3.043,2.558,3.606,4.466
	c0.562,1.908,0.343,3.961-0.608,5.708l-12.797,23.488c-1.361,2.498-3.935,3.913-6.593,3.913c-1.212,0-2.442-0.294-3.582-0.916
	l-16.563-9.023l-58.688,371.69c-0.562,14.529-17.276,26.28-49.723,34.933c-29.104,7.761-67.671,12.035-108.598,12.035
	c-40.927,0-79.495-4.274-108.599-12.035c-32.448-8.653-49.161-20.404-49.723-34.933L58.995,114.872l-18.248,9.942
	c-1.111,0.605-2.346,0.914-3.588,0.914c-0.711,0-1.425-0.101-2.12-0.306c-1.908-0.563-3.515-1.859-4.466-3.606L17.777,98.327
	c-1.982-3.637-0.64-8.192,2.998-10.174l2.245-1.223L0.914,46.357c-0.952-1.747-1.17-3.8-0.608-5.708
	c0.563-1.908,1.859-3.515,3.606-4.466l35.324-19.245c3.639-1.982,8.193-0.639,10.174,2.998l22.105,40.574l2.245-1.223
	c3.638-1.981,8.193-0.64,10.174,2.998l12.797,23.488c0.952,1.747,1.17,3.8,0.608,5.708c-0.563,1.908-1.859,3.515-3.606,4.466
	l-17.554,9.563l126.605,133.639c2.849,3.007,2.72,7.754-0.287,10.603c-3.008,2.848-7.755,2.719-10.603-0.287L76.14,127.277
	l52.281,331.115l136.705-346.319H245.98c-4.142,0-7.5-3.358-7.5-7.5V77.825c0-4.142,3.358-7.5,7.5-7.5h2.557V24.12
	c0-4.142,3.358-7.5,7.5-7.5h40.226c4.142,0,7.5,3.358,7.5,7.5v46.205h2.557c4.142,0,7.5,3.358,7.5,7.5v26.748
	c0,4.142-3.358,7.5-7.5,7.5h-19.146l136.705,346.319l52.339-331.482L356.973,250.57c-2.875,2.981-7.623,3.068-10.605,0.193
	c-2.981-2.875-3.068-7.623-0.193-10.605l129.246-134.033l-18.685-10.18c-1.747-0.952-3.043-2.558-3.606-4.466
	c-0.562-1.908-0.343-3.961,0.608-5.708l12.797-23.488c1.981-3.637,6.536-4.98,10.174-2.998l2.245,1.223l22.105-40.574
	c1.981-3.637,6.537-4.98,10.174-2.998l35.324,19.245c1.747,0.952,3.044,2.558,3.606,4.466
	C550.726,42.556,550.507,44.609,549.556,46.357z M532.795,45.766l-22.152-12.069l-18.517,33.988l6.722,3.662
	c3.637,1.981,4.979,6.537,2.998,10.174c-1.981,3.637-6.536,4.979-10.174,2.998l-15.553-8.473l-5.62,10.316l39.814,21.691
	l5.62-10.316l-8.518-4.641c-3.637-1.981-4.979-6.537-2.998-10.174c1.924-3.531,6.272-4.89,9.852-3.152L532.795,45.766z
	 M298.819,97.073V85.325h-9.08c-4.142,0-7.5-3.358-7.5-7.5c0-3.81,2.844-6.95,6.523-7.429V31.62h-25.226v38.705h8.801
	c4.142,0,7.5,3.358,7.5,7.5s-3.358,7.5-7.5,7.5H253.48v11.748H298.819z M132.801,486.722c0,3.77,8.071,13.053,38.615,21.198
	c27.879,7.435,65.074,11.529,104.734,11.529c39.659,0,76.854-4.094,104.733-11.529c30.544-8.145,38.615-17.428,38.615-21.198
	c0-2.413-3.152-6.856-12.74-11.807c-0.119-0.059-0.239-0.119-0.355-0.185c-6.712-3.418-16.494-7.068-30.43-10.456
	c-4.025-0.979-6.495-5.034-5.516-9.059c0.978-4.024,5.031-6.498,9.059-5.516c1.147,0.279,2.276,0.561,3.387,0.847L282.555,345.258
	c-2.858-2.999-2.744-7.746,0.255-10.604c2.999-2.857,7.745-2.744,10.604,0.255l111.971,117.484L276.15,125L146.736,452.846
	l169.193-180.761c2.831-3.024,7.577-3.18,10.601-0.351c3.024,2.831,3.181,7.577,0.351,10.601L169.427,450.554
	c28.878-7.453,66.658-11.559,106.723-11.559c21.264,0,41.857,1.143,61.207,3.397c4.114,0.479,7.061,4.203,6.582,8.318
	c-0.48,4.114-4.205,7.059-8.318,6.582c-18.775-2.188-38.785-3.297-59.471-3.297c-39.66,0-76.855,4.094-104.734,11.529
	C140.872,473.67,132.801,482.952,132.801,486.722z M79.971,86.362l-5.62-10.316l-5.801,3.16c-3.639,1.981-8.193,0.639-10.174-2.998
	c-1.386-2.544-1.142-5.534,0.372-7.781l-18.922-34.73L17.674,45.766l18.517,33.988l8.917-4.858
	c3.638-1.983,8.193-0.639,10.174,2.998c1.982,3.638,0.64,8.192-2.998,10.174l-15.502,8.446l0,0l0,0l-2.245,1.223l5.62,10.316
	L79.971,86.362z"/>
  </symbol>

  <symbol id="menu-restaurants" x="0px" y="0px"
 viewBox="0 0 463.001 463.001">
    <path d="M382.382,0h-0.032c-12.173,0-22.651,9.087-24.373,21.138l-35.859,251.016c-1.709,11.961,5.842,23.191,17.564,26.122
				l12.021,3.005l-6.464,129.275c-0.427,8.536,2.582,16.647,8.473,22.84S367.554,463,376.101,463c17.039,0,30.9-13.862,30.9-30.9
				V24.62C407.001,11.044,395.957,0,382.382,0z M392.001,432.099L392.001,432.099c0,8.768-7.133,15.9-15.9,15.9
				c-4.398,0-8.489-1.755-11.521-4.941c-3.032-3.186-4.58-7.36-4.36-11.753l6.771-135.431c0.179-3.577-2.197-6.782-5.672-7.65
				l-18-4.5c-4.24-1.06-6.971-5.122-6.353-9.449l35.86-251.016c0.672-4.708,4.767-8.259,9.523-8.259h0.032
				c5.304,0,9.62,4.315,9.62,9.62V432.099z"/>
    <path d="M286.992,7.125c-0.207-4.137-3.735-7.315-7.865-7.116c-4.137,0.207-7.323,3.728-7.116,7.865l6.406,128.125h-23.416V7.5
				c0-4.142-3.358-7.5-7.5-7.5c-4.142,0-7.5,3.358-7.5,7.5V136h-23.416L222.99,7.875c0.207-4.137-2.979-7.658-7.116-7.865
				c-4.136-0.21-7.658,2.979-7.865,7.116l-7.546,150.927c-0.411,8.22,3.588,16.162,10.436,20.727l9.062,6.041
				c2.455,1.637,3.868,4.375,3.781,7.324l-7.072,239.157c-0.233,8.397,2.864,16.338,8.72,22.36
				c5.857,6.022,13.709,9.339,22.11,9.339s16.253-3.316,22.11-9.339c5.856-6.022,8.954-13.963,8.72-22.373l-7.071-239.144
				c-0.087-2.949,1.327-5.687,3.781-7.324l9.062-6.041c6.847-4.565,10.846-12.507,10.435-20.727L286.992,7.125z M275.783,166.298
				l-9.062,6.041c-6.787,4.524-10.695,12.094-10.454,20.248l7.071,239.131c0.12,4.313-1.471,8.392-4.479,11.485
				c-3.009,3.093-7.042,4.797-11.357,4.797s-8.349-1.704-11.357-4.797c-3.008-3.093-4.599-7.172-4.479-11.472l7.071-239.144
				c0.241-8.154-3.667-15.723-10.454-20.248l-9.062-6.041c-2.477-1.651-3.923-4.524-3.774-7.497l0.39-7.802h63.331l0.39,7.802
				C279.706,161.774,278.26,164.647,275.783,166.298z"/>
    <path d="M119.501,0c-15.626,0-37.258,7.845-51.572,45.22c-8.804,22.986-11.928,50.071-11.928,66.28
				c0,22.316,11.389,42.587,30.465,54.226c5.306,3.238,8.388,8.709,8.244,14.635l-6.121,250.963
				c-0.205,8.4,2.914,16.337,8.783,22.351c5.868,6.013,13.727,9.325,22.129,9.325s16.262-3.312,22.13-9.325
				c5.869-6.013,8.988-13.951,8.783-22.351l-6.122-250.962c-0.144-5.927,2.938-11.398,8.244-14.636
				c19.077-11.639,30.465-31.911,30.465-54.226c0-16.209-3.124-43.293-11.928-66.28C156.76,7.845,135.128,0,119.501,0z
				 M144.722,152.921c-9.787,5.972-15.698,16.626-15.426,27.806l6.121,250.962c0.106,4.325-1.5,8.412-4.522,11.508
				c-3.022,3.097-7.069,4.802-11.395,4.802s-8.373-1.705-11.395-4.801c-3.022-3.096-4.628-7.184-4.522-11.509l6.121-250.962
				c0.273-11.179-5.638-21.834-15.426-27.806c-14.576-8.893-23.278-24.378-23.278-41.421c0-31.485,11.855-96.5,48.5-96.5
				s48.5,65.015,48.5,96.5C168.001,128.543,159.3,144.028,144.722,152.921z"/>
  </symbol>

  <symbol id="menu-quests" x="0px" y="0px"
	 viewBox="0 0 512 512" >
    <g>
      <g>
        <path d="M453.708,186.943H288.512c0.569-3.022,0.869-6.105,0.869-9.245V76.216c0-27.432-22.317-49.748-49.748-49.748H49.737
			C22.311,26.468,0,48.784,0,76.216v101.482c0,27.425,22.311,49.736,49.737,49.736h29.221l-1.577,36.738
			c-0.142,3.315,1.577,6.432,4.457,8.079c1.367,0.782,2.886,1.171,4.405,1.171c1.679,0,3.356-0.477,4.819-1.424l68.856-44.565h8.724
			c-1.802,5.611-2.786,11.585-2.786,17.786v122.676c0,32.134,26.143,58.278,58.278,58.278h25.178l55.514,56.695
			c1.697,1.734,3.993,2.664,6.337,2.664c0.985,0,1.978-0.164,2.94-0.503c3.25-1.142,5.544-4.063,5.884-7.491l5.097-51.365h128.625
			c32.143,0,58.292-26.144,58.292-58.278V245.22C512,213.085,485.85,186.943,453.708,186.943z M177.98,209.696h-20.683
			c-1.71,0-3.383,0.494-4.819,1.424l-56.639,36.658l1.238-28.832c0.104-2.416-0.784-4.769-2.456-6.516
			c-1.673-1.747-3.986-2.734-6.404-2.734H49.738c-17.645,0-32.001-14.354-32.001-31.998V76.216c0-17.651,14.356-32.01,32-32.01
			h189.898c17.651,0,32.01,14.36,32.01,32.01v101.482c0,3.177-0.459,6.27-1.36,9.245h-46.152
			C205.362,186.943,188.647,195.872,177.98,209.696z M494.264,367.895c0,22.354-18.193,40.541-40.555,40.541H317.05
			c-4.559,0-8.376,3.456-8.826,7.994l-4.013,40.459l-44.834-45.788c-1.667-1.704-3.952-2.664-6.336-2.664h-28.906
			c-22.354,0-40.541-18.187-40.541-40.541V245.22c0-22.354,18.187-40.54,40.541-40.54h229.575v-0.001
			c22.362,0,40.555,18.186,40.555,40.54V367.895z"/>
      </g>
    </g>
    <g>
      <g>
        <path d="M183.31,93.756c-1.206-19.413-16.755-34.962-36.168-36.167c-10.807-0.668-21.086,3.028-28.949,10.418
			c-7.754,7.287-12.199,17.566-12.199,28.201c-0.001,4.9,3.968,8.87,8.868,8.87s8.869-3.971,8.869-8.869
			c0-5.846,2.347-11.27,6.609-15.277c4.258-4.002,9.836-6.005,15.702-5.641c10.329,0.641,18.922,9.234,19.564,19.562
			c0.484,7.802-3.346,15.177-9.997,19.249c-12.391,7.585-19.789,20.693-19.789,35.065c0,4.898,3.97,8.869,8.869,8.869
			s8.869-3.971,8.869-8.869c0-8.149,4.229-15.601,11.312-19.937C177.135,121.723,184.202,108.129,183.31,93.756z"/>
      </g>
    </g>
    <g>
      <g>
        <path d="M338.925,240.4c-4.899,0-8.869,3.971-8.869,8.869v75.063c0,4.898,3.971,8.869,8.869,8.869
			c4.899,0,8.869-3.971,8.869-8.869v-75.063C347.793,244.371,343.824,240.4,338.925,240.4z"/>
      </g>
    </g>
    <g>
      <g>
        <circle cx="338.916" cy="364.068" r="8.869"/>
      </g>
    </g>
    <g>
      <g>
        <circle cx="144.679" cy="182.046" r="8.869"/>
      </g>
    </g>
  </symbol>
  <symbol id="menu-children" x="0px" y="0px" viewBox="0 0 512 512">
    <g>
      <path d="M474.053,312.071l-88.504-84.058c-6.224-5.912-13.671-10.007-21.742-12.072c4.305-6.138,8.1-12.654,11.324-19.494
			c1.766-3.747,0.159-8.217-3.588-9.982c-3.748-1.767-8.216-0.16-9.982,3.587c-22.028,46.745-73.455,74.586-126.33,65.122
			c-83.772-15.12-125.32-114.145-72.556-184.64c21.294-28.371,55.202-46.758,93.325-46.758c75.449,0,131.566,71.133,113.17,144.927
			c-1.002,4.02,1.444,8.091,5.463,9.093c4.02,0.997,8.09-1.445,9.092-5.463c3.709-14.88,4.921-30.966,2.986-47.41
			c28.734-6.19,49.819-31.66,49.819-61.737C436.531,28.344,408.187,0,373.348,0c-20.596,0-39.664,9.987-51.439,26.499
			c-40.377-23.455-91.401-24.069-133.04,0.723C177.151,10.258,157.903,0,136.93,0c-34.84,0-63.184,28.345-63.184,63.185
			c0,30.733,22.049,56.579,51.501,62.082c-3.71,32.263,4.478,64.302,23.011,90.66c-8.094,2.06-15.567,6.159-21.807,12.086
			l-55.804,53.002c-3.003,2.853-3.125,7.601-0.273,10.605c2.852,3.003,7.599,3.125,10.604,0.273l55.805-53.003
			c6.115-5.81,13.93-9.112,22.266-9.466c0.235,0.256,0.472,0.512,0.709,0.766c-6.904,7.424-11.259,17.609-11.259,28.595v59.908
			c-30.343,3.523-51.883,30.586-60.771,60.178c-13.454,6.818-30.17,4.063-40.711-7.034c-13.131-13.826-12.566-35.758,1.26-48.888
			l15.232-14.468c3.003-2.853,3.125-7.602,0.273-10.605c-2.853-3.004-7.601-3.125-10.604-0.273l-15.232,14.468
			c-19.869,18.87-20.679,50.224-1.807,70.096c12.368,13.021,30.766,18.109,47.759,13.994c-4.34,29.485,1.417,62.262,19.081,86.548
			c30.907,42.498,83.178,38.2,109.952-9.318h89.235c12.467,22.128,32.796,38.57,57.95,38.57c45.953,0,79.603-55.549,71.182-115.089
			c16.457,2.938,33.084-2.62,44.56-14.706C494.732,362.298,493.924,330.944,474.053,312.071z M373.134,80.321
			c-4.329-8.425-9.566-16.367-15.624-23.697c7.925-14.593,30.219-8.94,30.219,7.672C387.729,72.665,381.309,79.563,373.134,80.321z
			 M373.348,15.001c26.568,0,48.183,21.615,48.183,48.184c0,22.527-15.971,42.002-37.407,46.951
			c-1.24-5.247-2.861-10.579-4.785-15.71c13.431-3.436,23.392-15.64,23.392-30.129c0-29.545-37.605-42.423-55.705-18.933
			c-3.948-3.791-8.139-7.352-12.56-10.643C343.473,22.418,357.847,15.001,373.348,15.001z M127.793,110.496
			c-22.347-4.279-39.046-23.951-39.046-47.312c0-26.568,21.615-48.184,48.183-48.184c15.91,0,30.524,7.741,39.476,20.563
			c-4.007,3.051-7.821,6.328-11.433,9.799c-18.107-23.496-55.706-10.602-55.706,18.933c0,14.49,9.963,26.695,23.397,30.13
			C130.719,99.624,129.036,105.17,127.793,110.496z M124.268,64.296c0-16.643,22.298-22.243,30.216-7.68
			c-6.05,7.326-11.284,15.269-15.617,23.705C130.691,79.564,124.268,72.666,124.268,64.296z M170.601,240.566
			c48.843,41.707,120.753,41.907,169.81,0.823c4.162,4.914,6.353,11.055,6.353,17.394v61.143
			c-10.676,2.613-20.051,8.205-27.905,15.424c-31.856-54.08-92.869-54.83-125.78-2.725c-8.936-7.377-18.981-12.032-29.579-13.659
			C163.5,257.005,161.402,250.575,170.601,240.566z M154.982,496.961c-16.056,0-29.621-19.94-29.621-43.541
			c0-23.604,13.565-43.543,29.621-43.543s29.621,19.939,29.621,43.543C184.603,477.021,171.038,496.961,154.982,496.961z
			 M197.929,469.417c7.887-36.937-12.741-74.543-42.947-74.543c-30.252,0-50.823,37.664-42.947,74.544
			c-34.381-55.091-3.99-137.502,43.788-136.073v-0.001C205.023,334.782,230.239,417.641,197.929,469.417z M295.225,458.39h-75.355v0
			c13.871-37.252,8.753-84.512-15.928-114.766c27.434-47.258,78.489-45.716,104.354,3.569
			C286.324,377.117,281.77,422.255,295.225,458.39z M360.116,496.961c-16.056,0-29.621-19.94-29.621-43.541
			c0-23.604,13.565-43.543,29.621-43.543c16.056,0,29.621,19.939,29.621,43.543C389.737,477.021,376.172,496.961,360.116,496.961z
			 M403.063,469.419c12.876-60.297-44.091-99.368-75.263-56.504c-11.332,15.58-14.74,37.259-10.632,56.504
			c-31.957-51.209-7.783-130.16,38.012-135.784c0.001,0,0.002,0,0.003,0C406.437,327.387,437.615,414.054,403.063,469.419z
			 M427.808,380.427c-9.186-32.187-32.92-61.032-66.042-62.092c0-63.628,0.199-61.773-0.569-66.458
			c-1.272-7.773-4.704-14.96-9.823-20.764c0.531-0.558,1.055-1.123,1.576-1.69c8.337,0.354,16.152,3.655,22.268,9.467l88.505,84.059
			c6.697,6.359,10.516,14.948,10.754,24.183C475.103,371.414,450.919,389.11,427.808,380.427z"/>
    </g>
    <g>
      <g>
        <path d="M298,199.034c-4.142,0-7.501,3.357-7.501,7.501c0,7.684-6.25,13.934-13.934,13.934c-7.683,0-13.933-6.25-13.933-13.934
			v-1.819c22.582-2.044,39.44-14.405,39.44-29.819c0-16.891-20.237-30.121-46.072-30.121c-25.835,0-46.072,13.23-46.072,30.121
			c0,15.017,16.001,27.132,37.705,29.638v2.001c0,7.684-6.25,13.934-13.934,13.934s-13.935-6.25-13.935-13.934
			c0-4.143-3.358-7.501-7.501-7.501c-4.142,0-7.501,3.357-7.501,7.501c0.001,26.413,32.663,38.946,50.371,19.415
			c17.698,19.52,50.368,7.008,50.368-19.416C305.5,202.391,302.142,199.034,298,199.034z M255.999,190.017
			c-17.783,0-31.071-7.983-31.071-15.121c0-7.138,13.288-15.12,31.071-15.12s31.071,7.983,31.071,15.12
			C287.071,182.034,273.783,190.017,255.999,190.017z"/>
      </g>
    </g>
    <g>
      <g>
        <path d="M307.163,100.688c-13.091,0-23.742,10.65-23.742,23.742c0,13.091,10.651,23.741,23.742,23.741
			c13.091,0,23.741-10.65,23.741-23.741C330.904,111.337,320.254,100.688,307.163,100.688z M307.163,133.169
			c-4.819,0-8.741-3.921-8.741-8.74c0-4.819,3.921-8.741,8.741-8.741c4.819,0,8.74,3.921,8.74,8.741
			C315.903,129.248,311.983,133.169,307.163,133.169z"/>
      </g>
    </g>
    <g>
      <g>
        <path d="M203.509,100.688c-13.091,0-23.742,10.65-23.742,23.742c0,13.091,10.651,23.741,23.742,23.741
			c13.09,0,23.741-10.65,23.741-23.741C227.249,111.337,216.599,100.688,203.509,100.688z M203.508,133.169
			c-4.819,0-8.741-3.921-8.741-8.74c0-4.819,3.921-8.741,8.741-8.741c4.819,0,8.74,3.921,8.74,8.741
			C212.248,129.248,208.327,133.169,203.508,133.169z"/>
      </g>
    </g>
  </symbol>
  <symbol id="arrow-down" viewBox="0 0 129 129">
    <path d="m121.3,34.6c-1.6-1.6-4.2-1.6-5.8,0l-51,51.1-51.1-51.1c-1.6-1.6-4.2-1.6-5.8,0-1.6,1.6-1.6,4.2 0,5.8l53.9,53.9c0.8,0.8 1.8,1.2 2.9,1.2 1,0 2.1-0.4 2.9-1.2l53.9-53.9c1.7-1.6 1.7-4.2 0.1-5.8z"/>
  </symbol>

  <symbol id="search" viewBox="0 0 52.966 52.966">
    <path d="M51.704,51.273L36.845,35.82c3.79-3.801,6.138-9.041,6.138-14.82c0-11.58-9.42-21-21-21s-21,9.42-21,21s9.42,21,21,21
	c5.083,0,9.748-1.817,13.384-4.832l14.895,15.491c0.196,0.205,0.458,0.307,0.721,0.307c0.25,0,0.499-0.093,0.693-0.279
	C52.074,52.304,52.086,51.671,51.704,51.273z M21.983,40c-10.477,0-19-8.523-19-19s8.523-19,19-19s19,8.523,19,19
	S32.459,40,21.983,40z"/>
  </symbol>

  <symbol id="notification" viewBox="0 0 64 64">
    <path d="M46.6674995,8.6586504c-0.5527992,0-1,0.4473-1,1c0,0.5527992,0.4472008,1,1,1
		c3.5185013,0,6.3808022,2.8622999,6.3808022,6.3809004c0,0.5527,0.4473,1,1,1c0.5527992,0,1-0.4473,1-1
		C55.0483017,12.4184504,51.2886009,8.6586504,46.6674995,8.6586504z"/>
    <path d="M8.9517002,17.0395508c0,0.5527,0.4471998,1,1,1c0.5527,0,1-0.4473,1-1
		c0-3.5186005,2.8622999-6.3809004,6.3808002-6.3809004c0.5527992,0,1-0.4472008,1-1c0-0.5527-0.4472008-1-1-1
		C12.7114,8.6586504,8.9517002,12.4184504,8.9517002,17.0395508z"/>
    <path d="M48.1431007,1.27785c-0.5527992,0-1,0.4473-1,0.9999999s0.4472008,1,1,1
		c6.7743988,0,12.2860985,5.5107002,12.2860985,12.2851c0,0.5527992,0.4473,1,1,1s1-0.4472008,1-1
		C62.4291992,7.6860499,56.0200005,1.27785,48.1431007,1.27785z"/>
    <path d="M16.8560009,2.2778499c0-0.5526999-0.4473-0.9999999-1.000001-0.9999999
		c-7.8769999,0-14.2852001,6.4081998-14.2852001,14.2851c0,0.5527992,0.4473001,1,1.0000001,1s1-0.4472008,1-1
		c0-6.7743998,5.5107002-12.2851,12.2852001-12.2851C16.4087009,3.2778499,16.8560009,2.83055,16.8560009,2.2778499z"/>
    <path d="M51.7932014,46.2020493c-0.1280022-0.3828011-0.3692017-0.6965981-0.6621017-0.9463997
		c0.0236015-0.6092987,0.0386009-1.2222977,0.0386009-1.8409996c0-13.6198997-5.641201-25.1546001-13.4345016-29.1104012
		c0.1161003-0.4706001,0.1844025-0.9601002,0.1844025-1.4666996c0-3.3774004-2.7380028-6.1154003-6.1154022-6.1154003
		s-6.1153984,2.7379999-6.1153984,6.1154003c0,0.5065994,0.0682983,0.9960995,0.1843987,1.4666996
		C18.0799007,18.2600498,12.4386997,29.7947502,12.4386997,43.41465c0,0.6187019,0.0150003,1.2317009,0.0386,1.8409996
		c-0.2929001,0.2498016-0.5340996,0.5635986-0.6620998,0.9463997l-2.8975,8.6665993
		c-0.4692001,1.4033012,0.5754004,2.8535004,2.0555,2.8535004h14.1247005c0.8610001,2.8908005,3.535799,5,6.7062988,5
		s5.8453026-2.1091995,6.7063026-5h14.1246986c1.4800987,0,2.5247002-1.4501991,2.0555-2.8535004L51.7932014,46.2020493z
		 M26.7959003,16.1219501l1.4443989-0.7332001l-0.3878994-1.5727005c-0.0841999-0.3413-0.1252003-0.6613998-0.1252003-0.9784994
		c0-2.2480001,1.8290005-4.0769005,4.0769997-4.0769005s4.0769997,1.8289003,4.0769997,4.0769005
		c0,0.3170996-0.0410004,0.6371994-0.1251984,0.9784994l-0.3879013,1.5727005L36.8125,16.1219501
		c7.2531013,3.6816006,12.3186989,14.9046993,12.3186989,27.2926998c0,0.4183006-0.0060997,0.8419991-0.0181007,1.2691002
		H14.4953003c-0.0120001-0.4271011-0.0181007-0.8507996-0.0181007-1.2691002
		C14.4771996,31.0266495,19.5428009,19.8035507,26.7959003,16.1219501z M31.8041992,60.7221489
		c-2.0464001,0-3.8094997-1.2355003-4.5824986-3h9.164999C35.6137009,59.4866486,33.8506012,60.7221489,31.8041992,60.7221489z
		 M52.7711983,55.6526489c-0.0500984,0.0695-0.1102982,0.0695-0.1359978,0.0695H38.8041992h-14H10.9731998
		c-0.0256996,0-0.0859003,0-0.1359997-0.0695c-0.0496998-0.0690994-0.0307999-0.1256981-0.0227003-0.1497993l2.8975-8.6665993
		c0.0229006-0.0681992,0.0866003-0.1141014,0.1588001-0.1141014h35.8667984c0.0722008,0,0.1359024,0.0459023,0.158802,0.1140022
		l2.8974991,8.6666985C52.8019981,55.5269508,52.8209,55.5835495,52.7711983,55.6526489z"/>
  </symbol>

  <symbol id="users" viewBox="0 0 512 512">
    <g>
      <g>
        <path d="M158.014,8.882c-23.171,0-44.411,9.112-59.807,25.656c-16.028,17.221-24.498,40.729-24.498,67.984
			c0,28.607,9.416,57.55,25.831,79.404c7.405,9.86,6.871,23.561-1.271,32.579c-9.202,10.194-21.221,16.927-34.754,19.473
			C26.713,240.896,0,273.003,0,310.32v52.906h95.926v-15.673H15.673V310.32c0-29.783,21.339-55.411,50.738-60.938
			c16.933-3.184,31.973-11.612,43.493-24.373c13.155-14.574,14.068-36.651,2.168-52.496c-14.208-18.915-22.69-45.079-22.69-69.991
			c0-23.222,7.019-43.037,20.297-57.306c12.399-13.322,29.564-20.66,48.427-20.66c25.39,0,46.824,12.913,58.805,35.426l13.837-7.363
			C216.174,25.231,189.017,8.882,158.014,8.882z"/>
      </g>
    </g>
    <g>
      <g>
        <rect x="218.63" y="411.899" width="102.58" height="15.673"/>
      </g>
    </g>
    <g>
      <g>
        <path d="M370.445,298.326c-13.538-2.55-25.555-9.283-34.753-19.474c-8.147-9.024-8.684-22.727-1.278-32.582
			c16.419-21.845,25.835-50.787,25.835-79.405c0-27.254-8.471-50.762-24.498-67.984c-15.398-16.546-36.636-25.659-59.898-25.659
			c-23.172,0-44.412,9.112-59.808,25.657c-16.023,17.221-24.493,40.729-24.493,67.984c0,28.612,9.412,57.553,25.824,79.405
			c7.41,9.86,6.878,23.563-1.266,32.583c-9.094,10.075-20.946,16.772-34.302,19.386l-0.458,0.086
			c-36.803,6.913-63.515,39.021-63.515,76.344v52.905h48.035v-15.673h-32.362v-37.232c0-29.615,21.086-55.116,50.218-60.84
			l0.533-0.1c16.937-3.192,31.975-11.62,43.486-24.373c13.161-14.576,14.071-36.657,2.164-52.501
			c-14.203-18.91-22.682-45.074-22.682-69.99c0-23.222,7.019-43.038,20.295-57.306c12.398-13.323,29.563-20.661,48.428-20.661
			c18.767,0,35.931,7.337,48.33,20.662c13.28,14.27,20.299,34.086,20.299,57.306c0,24.921-8.482,51.084-22.691,69.988
			c-11.905,15.841-10.99,37.921,2.172,52.501c11.515,12.756,26.552,21.184,43.491,24.374c8.198,1.541,15.858,4.629,22.765,9.179
			l8.622-13.088C390.285,304.12,380.697,300.252,370.445,298.326z"/>
      </g>
    </g>
    <g>
      <g>
        <path d="M423.059,325.378c-49.043,0-88.942,39.867-88.942,88.871c0,49.003,39.899,88.87,88.942,88.87S512,463.25,512,414.248
			C512,365.245,472.101,325.378,423.059,325.378z M423.059,487.445c-40.4,0-73.268-32.836-73.268-73.196
			s32.868-73.197,73.268-73.197c40.4,0,73.267,32.836,73.267,73.197C496.327,454.609,463.459,487.445,423.059,487.445z"/>
      </g>
    </g>
    <g>
      <g>
        <polygon points="430.896,406.411 430.896,375.883 415.223,375.883 415.223,406.411 384.66,406.411 384.66,422.086 
			415.223,422.086 415.223,452.612 430.896,452.612 430.896,422.086 461.457,422.086 461.457,406.411 		"/>
      </g>
    </g>
    <g>
      <g>
        <rect x="184.15" y="411.899" width="15.673" height="15.673"/>
      </g>
    </g>
  </symbol>

  <symbol id="favorite" viewBox="0 0 49.94 49.94">
    <path d="M48.856,22.731c0.983-0.958,1.33-2.364,0.906-3.671c-0.425-1.307-1.532-2.24-2.892-2.438l-12.092-1.757
	c-0.515-0.075-0.96-0.398-1.19-0.865L28.182,3.043c-0.607-1.231-1.839-1.996-3.212-1.996c-1.372,0-2.604,0.765-3.211,1.996
	L16.352,14c-0.23,0.467-0.676,0.79-1.191,0.865L3.069,16.623C1.71,16.82,0.603,17.753,0.178,19.06
	c-0.424,1.307-0.077,2.713,0.906,3.671l8.749,8.528c0.373,0.364,0.544,0.888,0.456,1.4L8.224,44.702
	c-0.232,1.353,0.313,2.694,1.424,3.502c1.11,0.809,2.555,0.914,3.772,0.273l10.814-5.686c0.461-0.242,1.011-0.242,1.472,0
	l10.815,5.686c0.528,0.278,1.1,0.415,1.669,0.415c0.739,0,1.475-0.231,2.103-0.688c1.111-0.808,1.656-2.149,1.424-3.502
	L39.651,32.66c-0.088-0.513,0.083-1.036,0.456-1.4L48.856,22.731z M37.681,32.998l2.065,12.042c0.104,0.606-0.131,1.185-0.629,1.547
	c-0.499,0.361-1.12,0.405-1.665,0.121l-10.815-5.687c-0.521-0.273-1.095-0.411-1.667-0.411s-1.145,0.138-1.667,0.412l-10.813,5.686
	c-0.547,0.284-1.168,0.24-1.666-0.121c-0.498-0.362-0.732-0.94-0.629-1.547l2.065-12.042c0.199-1.162-0.186-2.348-1.03-3.17
	L2.48,21.299c-0.441-0.43-0.591-1.036-0.4-1.621c0.19-0.586,0.667-0.988,1.276-1.077l12.091-1.757
	c1.167-0.169,2.176-0.901,2.697-1.959l5.407-10.957c0.272-0.552,0.803-0.881,1.418-0.881c0.616,0,1.146,0.329,1.419,0.881
	l5.407,10.957c0.521,1.058,1.529,1.79,2.696,1.959l12.092,1.757c0.609,0.089,1.086,0.491,1.276,1.077
	c0.19,0.585,0.041,1.191-0.4,1.621l-8.749,8.528C37.866,30.65,37.481,31.835,37.681,32.998z"/>
  </symbol>

  <symbol id="rating" viewBox="0 0 471.701 471.701">
    <path d="M433.601,67.001c-24.7-24.7-57.4-38.2-92.3-38.2s-67.7,13.6-92.4,38.3l-12.9,12.9l-13.1-13.1
		c-24.7-24.7-57.6-38.4-92.5-38.4c-34.8,0-67.6,13.6-92.2,38.2c-24.7,24.7-38.3,57.5-38.2,92.4c0,34.9,13.7,67.6,38.4,92.3
		l187.8,187.8c2.6,2.6,6.1,4,9.5,4c3.4,0,6.9-1.3,9.5-3.9l188.2-187.5c24.7-24.7,38.3-57.5,38.3-92.4
		C471.801,124.501,458.301,91.701,433.601,67.001z M414.401,232.701l-178.7,178l-178.3-178.3c-19.6-19.6-30.4-45.6-30.4-73.3
		s10.7-53.7,30.3-73.2c19.5-19.5,45.5-30.3,73.1-30.3c27.7,0,53.8,10.8,73.4,30.4l22.6,22.6c5.3,5.3,13.8,5.3,19.1,0l22.4-22.4
		c19.6-19.6,45.7-30.4,73.3-30.4c27.6,0,53.6,10.8,73.2,30.3c19.6,19.6,30.3,45.6,30.3,73.3
		C444.801,187.101,434.001,213.101,414.401,232.701z"/>
  </symbol>

  <symbol id="comments" viewBox="0 0 60 60">
    <path d="M10,25.465h13c0.553,0,1-0.448,1-1s-0.447-1-1-1H10c-0.553,0-1,0.448-1,1S9.447,25.465,10,25.465z"/>
    <path d="M36,29.465H10c-0.553,0-1,0.448-1,1s0.447,1,1,1h26c0.553,0,1-0.448,1-1S36.553,29.465,36,29.465z"/>
    <path d="M36,35.465H10c-0.553,0-1,0.448-1,1s0.447,1,1,1h26c0.553,0,1-0.448,1-1S36.553,35.465,36,35.465z"/>
    <path d="M54.072,2.535L19.93,2.465c-3.27,0-5.93,2.66-5.93,5.93v5.124l-8.07,0.017c-3.27,0-5.93,2.66-5.93,5.93v21.141
		c0,3.27,2.66,5.929,5.93,5.929H12v10c0,0.413,0.254,0.784,0.64,0.933c0.117,0.045,0.239,0.067,0.36,0.067
		c0.276,0,0.547-0.115,0.74-0.327l9.704-10.675l16.626-0.068c3.27,0,5.93-2.66,5.93-5.929v-0.113l5.26,5.786
		c0.193,0.212,0.464,0.327,0.74,0.327c0.121,0,0.243-0.022,0.36-0.067c0.386-0.149,0.64-0.52,0.64-0.933v-10h1.07
		c3.27,0,5.93-2.66,5.93-5.929V8.465C60,5.196,57.341,2.536,54.072,2.535z M44,40.536c0,2.167-1.763,3.929-3.934,3.929l-17.07,0.07
		c-0.28,0.001-0.548,0.12-0.736,0.327L14,53.949v-8.414c0-0.552-0.447-1-1-1H5.93c-2.167,0-3.93-1.763-3.93-3.929V19.465
		c0-2.167,1.763-3.93,3.932-3.93l9.068-0.019c0,0,0,0,0,0c0.001,0,0.001,0,0.002,0l25.068-0.052c2.167,0,3.93,1.763,3.93,3.93
		v18.441V40.536z M58,29.606c0,2.167-1.763,3.929-3.93,3.929H52c-0.553,0-1,0.448-1,1v8.414l-5-5.5V19.395
		c0-3.27-2.66-5.93-5.932-5.93L16,13.514v-5.12c0-2.167,1.763-3.93,3.928-3.93l34.141,0.07c0.001,0,0.001,0,0.002,0
		c2.167,0,3.93,1.763,3.93,3.93V29.606z"/>
  </symbol>
  <symbol id="going" 	 viewBox="0 0 92.9 92.9">
    <path d="M72.932,46.973L61.629,40.45c-0.725-0.418-1.601-1.531-1.837-2.334l-3.501-11.912c-0.087-0.298-0.219-0.564-0.381-0.798
		c-0.509-0.936-1.49-1.572-2.627-1.572l-14.945,0.645c-0.655,0.028-1.264,0.276-1.763,0.687c-0.1,0.061-0.204,0.12-0.294,0.189
		l-10.155,7.832c-1.173,0.905-1.83,2.745-1.494,4.188l4.021,17.3c0.335,1.444,1.717,2.534,3.212,2.534
		c0.101,0,0.203-0.005,0.304-0.015l1.501-0.15c0.804-0.081,1.53-0.489,1.99-1.121c0.461-0.632,0.628-1.448,0.459-2.238L33.26,40.33
		c-0.15-0.701,0.23-1.738,0.798-2.175l1.809-1.393l0.93,21.444c0.001,0.023,0.008,0.044,0.01,0.067l-4.128,9.156
		c-0.52,1.153-1.826,2.75-2.852,3.489l-9.678,6.968c-1.559,1.122-2.148,3.366-1.342,5.11l1.324,2.861
		c0.528,1.141,1.587,1.85,2.765,1.85c0.674,0,1.337-0.229,1.917-0.66l12.778-9.515c1.273-0.948,2.843-2.793,3.574-4.202
		l6.379-12.286c0.051-0.099,0.083-0.205,0.125-0.308l0.445-0.019l10.441,28.786c0.737,2.032,2.703,3.398,4.892,3.398
		c0.52,0,1.034-0.079,1.528-0.236l0.644-0.205c1.276-0.405,2.301-1.282,2.887-2.47c0.585-1.188,0.656-2.536,0.2-3.794L57.711,55.885
		c-0.051-0.14-0.121-0.268-0.182-0.401l-0.353-8.134l12.122,6.297c0.426,0.222,0.906,0.339,1.389,0.339
		c1.122,0,2.149-0.607,2.68-1.584l0.721-1.328C74.872,49.633,74.353,47.793,72.932,46.973z"/>
    <path d="M44.162,21.673c0.157,0,0.316-0.003,0.475-0.01c2.891-0.125,5.561-1.37,7.517-3.503s2.964-4.901,2.839-7.792
		C54.735,4.397,49.745-0.249,43.698,0.01c-2.891,0.125-5.561,1.37-7.517,3.503c-1.956,2.134-2.964,4.901-2.839,7.792
		C33.594,17.119,38.347,21.673,44.162,21.673z"/>
  </symbol>
  <symbol id="share" 	 viewBox="0 0 58.995 58.995">
    <path d="M39.927,41.929c-0.524,0.524-0.975,1.1-1.365,1.709l-17.28-10.489c0.457-1.144,0.716-2.388,0.716-3.693
	c0-1.305-0.259-2.549-0.715-3.693l17.284-10.409C40.342,18.142,43.454,20,46.998,20c5.514,0,10-4.486,10-10s-4.486-10-10-10
	s-10,4.486-10,10c0,1.256,0.243,2.454,0.667,3.562L20.358,23.985c-1.788-2.724-4.866-4.529-8.361-4.529c-5.514,0-10,4.486-10,10
	s4.486,10,10,10c3.495,0,6.572-1.805,8.36-4.529L37.661,45.43c-0.43,1.126-0.664,2.329-0.664,3.57c0,2.671,1.04,5.183,2.929,7.071
	c1.949,1.949,4.51,2.924,7.071,2.924s5.122-0.975,7.071-2.924c1.889-1.889,2.929-4.4,2.929-7.071s-1.04-5.183-2.929-7.071
	C50.169,38.029,43.826,38.029,39.927,41.929z M46.998,2c4.411,0,8,3.589,8,8s-3.589,8-8,8s-8-3.589-8-8S42.586,2,46.998,2z
	 M11.998,37.456c-4.411,0-8-3.589-8-8s3.589-8,8-8s8,3.589,8,8S16.409,37.456,11.998,37.456z M52.654,54.657
	c-3.119,3.119-8.194,3.119-11.313,0c-1.511-1.511-2.343-3.521-2.343-5.657s0.832-4.146,2.343-5.657
	c1.56-1.56,3.608-2.339,5.657-2.339s4.097,0.779,5.657,2.339c1.511,1.511,2.343,3.521,2.343,5.657S54.166,53.146,52.654,54.657z"/>
  </symbol>
  <symbol id="list_view" viewBox="0 0 344.339 344.339">
 <g>
		<g>
			<rect y="46.06" width="344.339" height="29.52"/>
		</g>
		<g>
			<rect y="156.506" width="344.339" height="29.52"/>
		</g>
		<g>
			<rect y="268.748" width="344.339" height="29.531"/>
		</g>
	</g>
  </symbol>
 <symbol id="card_view" viewBox="0 0 341.333 341.333">
  <rect x="128" y="128" width="85.333" height="85.333"/>
			<rect x="0" y="0" width="85.333" height="85.333"/>
			<rect x="128" y="256" width="85.333" height="85.333"/>
			<rect x="0" y="128" width="85.333" height="85.333"/>
			<rect x="0" y="256" width="85.333" height="85.333"/>
			<rect x="256" y="0" width="85.333" height="85.333"/>
			<rect x="128" y="0" width="85.333" height="85.333"/>
			<rect x="256" y="128" width="85.333" height="85.333"/>
			<rect x="256" y="256" width="85.333" height="85.333"/>
  </symbol>
  <symbol id="user" viewBox="0 0 55 55">
    <path d="M55,27.5C55,12.337,42.663,0,27.5,0S0,12.337,0,27.5c0,8.009,3.444,15.228,8.926,20.258l-0.026,0.023l0.892,0.752
	c0.058,0.049,0.121,0.089,0.179,0.137c0.474,0.393,0.965,0.766,1.465,1.127c0.162,0.117,0.324,0.234,0.489,0.348
	c0.534,0.368,1.082,0.717,1.642,1.048c0.122,0.072,0.245,0.142,0.368,0.212c0.613,0.349,1.239,0.678,1.88,0.98
	c0.047,0.022,0.095,0.042,0.142,0.064c2.089,0.971,4.319,1.684,6.651,2.105c0.061,0.011,0.122,0.022,0.184,0.033
	c0.724,0.125,1.456,0.225,2.197,0.292c0.09,0.008,0.18,0.013,0.271,0.021C25.998,54.961,26.744,55,27.5,55
	c0.749,0,1.488-0.039,2.222-0.098c0.093-0.008,0.186-0.013,0.279-0.021c0.735-0.067,1.461-0.164,2.178-0.287
	c0.062-0.011,0.125-0.022,0.187-0.034c2.297-0.412,4.495-1.109,6.557-2.055c0.076-0.035,0.153-0.068,0.229-0.104
	c0.617-0.29,1.22-0.603,1.811-0.936c0.147-0.083,0.293-0.167,0.439-0.253c0.538-0.317,1.067-0.648,1.581-1
	c0.185-0.126,0.366-0.259,0.549-0.391c0.439-0.316,0.87-0.642,1.289-0.983c0.093-0.075,0.193-0.14,0.284-0.217l0.915-0.764
	l-0.027-0.023C51.523,42.802,55,35.55,55,27.5z M2,27.5C2,13.439,13.439,2,27.5,2S53,13.439,53,27.5
	c0,7.577-3.325,14.389-8.589,19.063c-0.294-0.203-0.59-0.385-0.893-0.537l-8.467-4.233c-0.76-0.38-1.232-1.144-1.232-1.993v-2.957
	c0.196-0.242,0.403-0.516,0.617-0.817c1.096-1.548,1.975-3.27,2.616-5.123c1.267-0.602,2.085-1.864,2.085-3.289v-3.545
	c0-0.867-0.318-1.708-0.887-2.369v-4.667c0.052-0.519,0.236-3.448-1.883-5.864C34.524,9.065,31.541,8,27.5,8
	s-7.024,1.065-8.867,3.168c-2.119,2.416-1.935,5.345-1.883,5.864v4.667c-0.568,0.661-0.887,1.502-0.887,2.369v3.545
	c0,1.101,0.494,2.128,1.34,2.821c0.81,3.173,2.477,5.575,3.093,6.389v2.894c0,0.816-0.445,1.566-1.162,1.958l-7.907,4.313
	c-0.252,0.137-0.502,0.297-0.752,0.476C5.276,41.792,2,35.022,2,27.5z M42.459,48.132c-0.35,0.254-0.706,0.5-1.067,0.735
	c-0.166,0.108-0.331,0.216-0.5,0.321c-0.472,0.292-0.952,0.57-1.442,0.83c-0.108,0.057-0.217,0.111-0.326,0.167
	c-1.126,0.577-2.291,1.073-3.488,1.476c-0.042,0.014-0.084,0.029-0.127,0.043c-0.627,0.208-1.262,0.393-1.904,0.552
	c-0.002,0-0.004,0.001-0.006,0.001c-0.648,0.16-1.304,0.293-1.964,0.402c-0.018,0.003-0.036,0.007-0.054,0.01
	c-0.621,0.101-1.247,0.174-1.875,0.229c-0.111,0.01-0.222,0.017-0.334,0.025C28.751,52.97,28.127,53,27.5,53
	c-0.634,0-1.266-0.031-1.895-0.078c-0.109-0.008-0.218-0.015-0.326-0.025c-0.634-0.056-1.265-0.131-1.89-0.233
	c-0.028-0.005-0.056-0.01-0.084-0.015c-1.322-0.221-2.623-0.546-3.89-0.971c-0.039-0.013-0.079-0.027-0.118-0.04
	c-0.629-0.214-1.251-0.451-1.862-0.713c-0.004-0.002-0.009-0.004-0.013-0.006c-0.578-0.249-1.145-0.525-1.705-0.816
	c-0.073-0.038-0.147-0.074-0.219-0.113c-0.511-0.273-1.011-0.568-1.504-0.876c-0.146-0.092-0.291-0.185-0.435-0.279
	c-0.454-0.297-0.902-0.606-1.338-0.933c-0.045-0.034-0.088-0.07-0.133-0.104c0.032-0.018,0.064-0.036,0.096-0.054l7.907-4.313
	c1.36-0.742,2.205-2.165,2.205-3.714l-0.001-3.602l-0.23-0.278c-0.022-0.025-2.184-2.655-3.001-6.216l-0.091-0.396l-0.341-0.221
	c-0.481-0.311-0.769-0.831-0.769-1.392v-3.545c0-0.465,0.197-0.898,0.557-1.223l0.33-0.298v-5.57l-0.009-0.131
	c-0.003-0.024-0.298-2.429,1.396-4.36C21.583,10.837,24.061,10,27.5,10c3.426,0,5.896,0.83,7.346,2.466
	c1.692,1.911,1.415,4.361,1.413,4.381l-0.009,5.701l0.33,0.298c0.359,0.324,0.557,0.758,0.557,1.223v3.545
	c0,0.713-0.485,1.36-1.181,1.575l-0.497,0.153l-0.16,0.495c-0.59,1.833-1.43,3.526-2.496,5.032c-0.262,0.37-0.517,0.698-0.736,0.949
	l-0.248,0.283V39.8c0,1.612,0.896,3.062,2.338,3.782l8.467,4.233c0.054,0.027,0.107,0.055,0.16,0.083
	C42.677,47.979,42.567,48.054,42.459,48.132z"/>
  </symbol>
  <symbol id="remove" viewBox="0 0 212.982 212.982">
    <path style="fill-rule:evenodd;clip-rule:evenodd;" d="M131.804,106.491l75.936-75.936c6.99-6.99,6.99-18.323,0-25.312
		c-6.99-6.99-18.322-6.99-25.312,0l-75.937,75.937L30.554,5.242c-6.99-6.99-18.322-6.99-25.312,0c-6.989,6.99-6.989,18.323,0,25.312
		l75.937,75.936L5.242,182.427c-6.989,6.99-6.989,18.323,0,25.312c6.99,6.99,18.322,6.99,25.312,0l75.937-75.937l75.937,75.937
		c6.989,6.99,18.322,6.99,25.312,0c6.99-6.99,6.99-18.322,0-25.312L131.804,106.491z"/>
     </symbol>
</svg>